# Blender v2.80 (sub 75) OBJ File: 'barbedwirefence.blend'
# www.blender.org
o barbedwirefence.002_barbedwirefence.006
v 0.054775 0.085410 5.935380
v 0.054775 2.195861 5.935380
v 0.051224 0.085410 5.935380
v 0.051224 2.195861 5.935380
v 0.054775 0.085409 3.273081
v 0.054775 2.195861 3.273081
v 0.051224 0.085409 3.273081
v 0.051224 2.195861 3.273081
vt 1.000000 0.250000
vt 0.750000 0.500000
vt 0.750000 0.250000
vt 1.000000 0.750000
vt 0.750000 1.000000
vt 0.750000 0.750000
vt 1.000000 0.500000
vt 1.000000 1.000000
vn -1.0000 0.0000 0.0000
vn 1.0000 0.0000 -0.0000
s off
f 4/1/1 7/2/1 3/3/1
f 6/4/2 1/5/2 5/6/2
f 4/1/1 8/7/1 7/2/1
f 6/4/2 2/8/2 1/5/2
