# Blender v2.80 (sub 75) OBJ File: 'concrete barrier.blend'
# www.blender.org
o Cube_Cube.001
v -0.305000 -0.240000 -1.000000
v -0.305000 -0.240000 1.000000
v 0.305000 -0.240000 -1.000000
v 0.305000 -0.240000 1.000000
v -0.305000 -0.165000 -1.000000
v -0.305000 -0.165000 1.000000
v 0.305000 -0.165000 -1.000000
v 0.305000 -0.165000 1.000000
v -0.152500 0.090000 -1.000000
v -0.152500 0.090000 1.000000
v 0.152500 0.090000 -1.000000
v 0.152500 0.090000 1.000000
v -0.082276 0.900000 -0.987282
v -0.082276 0.900000 0.987282
v 0.082276 0.900000 -0.987282
v 0.082276 0.900000 0.987282
v -0.074550 -0.240000 -1.000000
v -0.074550 -0.240000 1.000000
v 0.074550 -0.240000 -1.000000
v 0.074550 -0.240000 1.000000
v -0.074550 -0.165000 -1.000000
v -0.074550 -0.165000 1.000000
v 0.074550 -0.165000 -1.000000
v 0.074550 -0.165000 1.000000
v -0.300554 -0.148986 -1.000000
v -0.300554 -0.148986 1.000000
v 0.300554 -0.148986 1.000000
v 0.300554 -0.148986 -1.000000
v -0.157234 0.077058 -1.000000
v 0.157234 0.077058 -1.000000
v -0.157234 0.077058 1.000000
v 0.157234 0.077058 1.000000
v -0.085631 0.887275 1.000000
v 0.085631 0.887275 1.000000
v 0.085631 0.887275 -1.000000
v -0.085631 0.887275 -1.000000
vt 0.877763 0.000000
vt 0.877763 0.484942
vt 0.738303 0.484942
vt 0.369152 0.352825
vt 0.000000 0.352825
vt 0.000000 0.346490
vt 0.369152 0.000000
vt 0.738303 0.000000
vt 0.738303 0.031149
vt 0.369152 0.515058
vt 0.000000 0.515058
vt 0.000000 0.484414
vt 0.000000 0.698263
vt 0.000000 0.515058
vt 0.024232 0.515058
vt 0.024232 0.816796
vt 0.024232 1.000000
vt 0.000000 1.000000
vt 0.364210 0.825605
vt 0.364210 0.689453
vt 0.368479 0.692120
vt 0.102438 0.632530
vt 0.106619 0.636294
vt 0.106619 0.878765
vt 0.635193 0.879230
vt 0.631011 0.875467
vt 0.631011 0.632996
vt 0.369152 0.157090
vt 0.738303 0.157090
vt 0.738303 0.163279
vt 0.976673 0.990535
vt 0.877091 0.990535
vt 0.877091 0.511761
vt 0.373420 0.686156
vt 0.373420 0.822307
vt 0.369152 0.819640
vt 0.369152 0.505899
vt 0.738303 0.505899
vt 0.735956 0.511761
vt 0.369152 0.005941
vt 0.000000 0.005942
vt 0.002347 0.000000
vt 0.877091 0.511761
vt 0.877091 0.996702
vt 0.737631 0.996702
vt 0.877763 0.484942
vt 0.877763 0.000000
vt 0.967994 0.000000
vt 1.000000 0.511761
vt 1.000000 0.996702
vt 0.976673 0.996702
vt 0.967994 0.484941
vt 0.967994 0.000000
vt 0.991706 0.000000
vt 0.737631 0.813498
vt 0.737631 0.996702
vt 0.713399 0.996702
vt 0.713399 0.694965
vt 0.713399 0.511761
vt 0.737630 0.511761
vt 0.369152 0.031149
vt 0.738303 0.038564
vt 0.708225 0.993168
vt 0.708225 0.515295
vt 0.713399 0.813498
vt 0.024232 0.698263
vt 0.029406 0.518593
vt 0.369152 0.484414
vt 0.000000 0.476887
vt 0.369152 0.038564
vt 0.029406 0.996465
vt 0.369152 0.476887
vt 0.369152 0.346490
vt 0.369152 0.163279
vt 0.738303 0.000000
vt 0.000000 0.816796
vt 0.368479 0.822938
vt 0.102438 0.882528
vt 0.635193 0.629233
vt 0.976673 0.511761
vt 0.369152 0.688823
vt 0.371499 0.511761
vt 0.366804 0.000000
vt 0.737631 0.511761
vt 0.967994 0.484942
vt 0.976673 0.511761
vt 0.991706 0.484941
vt 0.737630 0.694965
vn 0.0000 -1.0000 0.0000
vn -0.9391 0.3435 0.0000
vn 1.0000 0.0000 0.0000
vn -1.0000 0.0000 0.0000
vn 0.0000 0.0000 1.0000
vn 0.0000 0.7069 0.7073
vn 0.0000 0.0000 -1.0000
vn 0.9391 0.3435 0.0000
vn 0.0000 1.0000 0.0000
vn 0.0000 0.7069 -0.7073
vn 0.9670 0.2549 0.0000
vn -0.9670 0.2549 0.0000
vn 0.9636 0.2675 0.0000
vn -0.9636 0.2675 0.0000
vn 0.8446 0.5355 0.0000
vn -0.8446 0.5355 0.0000
vn -0.9965 0.0836 0.0000
vn 0.9965 0.0836 0.0000
s off
f 3/1/1 4/2/1 20/3/1
f 29/4/2 31/5/2 10/6/2
f 4/7/3 3/8/3 7/9/3
f 1/10/4 2/11/4 6/12/4
f 20/13/5 4/14/5 8/15/5
f 22/16/5 6/17/5 2/18/5
f 33/19/6 34/20/6 16/21/6
f 32/22/5 12/23/5 10/24/5
f 29/25/7 9/26/7 11/27/7
f 32/28/8 30/29/8 11/30/8
f 15/31/9 13/32/9 14/33/9
f 35/34/10 36/35/10 13/36/10
f 34/37/11 35/38/11 15/39/11
f 36/40/12 33/41/12 14/42/12
f 2/43/1 1/44/1 17/45/1
f 22/46/1 21/47/1 23/48/1
f 19/49/4 20/50/4 24/51/4
f 18/52/3 17/53/3 21/54/3
f 17/55/7 1/56/7 5/57/7
f 23/58/7 7/59/7 3/60/7
f 8/61/13 7/9/13 28/62/13
f 25/63/7 28/64/7 23/58/7 21/65/7
f 24/66/5 8/15/5 27/67/5
f 5/68/14 6/12/14 26/69/14
f 27/70/15 28/62/15 30/29/15
f 28/64/7 25/63/7 29/25/7
f 26/71/5 27/67/5 32/22/5
f 25/72/16 26/69/16 31/5/16
f 9/73/17 10/6/17 33/41/17
f 12/74/18 11/30/18 35/38/18
f 11/27/7 9/26/7 36/35/7
f 10/24/5 12/23/5 34/20/5
f 3/1/1 20/3/1 19/75/1
f 29/4/2 10/6/2 9/73/2
f 4/7/3 7/9/3 8/61/3
f 1/10/4 6/12/4 5/68/4
f 20/13/5 8/15/5 24/66/5
f 22/16/5 2/18/5 18/76/5
f 33/19/6 16/21/6 14/77/6
f 32/22/5 10/24/5 31/78/5
f 29/25/7 11/27/7 30/79/7
f 32/28/8 11/30/8 12/74/8
f 15/31/9 14/33/9 16/80/9
f 35/34/10 13/36/10 15/81/10
f 34/37/11 15/39/11 16/82/11
f 36/40/12 14/42/12 13/83/12
f 2/43/1 17/45/1 18/84/1
f 22/46/1 23/48/1 24/85/1
f 19/49/4 24/51/4 23/86/4
f 18/52/3 21/54/3 22/87/3
f 17/55/7 5/57/7 21/65/7
f 23/58/7 3/60/7 19/88/7
f 8/61/13 28/62/13 27/70/13
f 21/65/7 5/57/7 25/63/7
f 23/58/7 28/64/7 7/59/7
f 5/68/14 26/69/14 25/72/14
f 27/70/15 30/29/15 32/28/15
f 28/64/7 29/25/7 30/79/7
f 26/71/5 32/22/5 31/78/5
f 25/72/16 31/5/16 29/4/16
f 9/73/17 33/41/17 36/40/17
f 12/74/18 35/38/18 34/37/18
f 11/27/7 36/35/7 35/34/7
f 10/24/5 34/20/5 33/19/5
f 27/67/5 26/71/5 22/16/5 24/66/5
f 26/71/5 6/17/5 22/16/5
