# Blender v2.80 (sub 75) OBJ File: 'Modular Building.blend'
# www.blender.org
o Floor_Edge_Cube.002
v 2.000000 -0.000000 -3.000000
v 2.000000 0.200000 -3.000000
v 2.000000 -0.000000 -5.000000
v 2.000000 0.200000 -5.000000
v 4.000000 0.200000 -3.000000
v 4.000000 0.200000 -5.000000
v 3.750000 -0.000000 -3.000000
v 4.000000 0.075000 -3.000000
v 4.000000 0.075000 -5.000000
v 3.750000 -0.000000 -5.000000
vt 0.341270 0.658730
vt 0.658730 0.341270
vt 0.658730 0.658730
vt 0.674603 0.206349
vt 0.992064 0.325397
vt 0.714286 0.325397
vt 0.658730 0.007937
vt 0.341270 0.126984
vt 0.380952 0.007937
vt 0.007937 0.007993
vt 0.325397 0.203843
vt 0.007937 0.203844
vt 0.007937 0.661100
vt 0.325397 0.343640
vt 0.325397 0.661100
vt 0.007937 0.327710
vt 0.325397 0.327710
vt 0.618055 0.674603
vt 0.340278 0.992063
vt 0.340278 0.674603
vt 0.992063 0.007937
vt 0.674603 0.007937
vt 0.658730 0.325397
vt 0.341270 0.325397
vt 0.341270 0.341270
vt 0.325397 0.007993
vt 0.007937 0.343640
vt 0.618056 0.992063
vn -1.0000 0.0000 0.0000
vn 0.0000 0.0000 1.0000
vn 0.0000 0.0000 -1.0000
vn 1.0000 0.0000 0.0000
vn 0.0000 1.0000 0.0000
vn 0.2873 -0.9578 0.0000
vn 0.0000 -1.0000 0.0000
s off
f 2/1/1 3/2/1 1/3/1
f 8/4/2 1/5/2 7/6/2
f 3/7/3 9/8/3 10/9/3
f 6/10/4 8/11/4 9/12/4
f 4/13/5 5/14/5 6/15/5
f 10/16/6 8/11/6 7/17/6
f 10/18/7 1/19/7 3/20/7
f 2/21/2 8/4/2 5/22/2
f 9/8/3 4/23/3 6/24/3
f 2/1/1 4/25/1 3/2/1
f 8/4/2 2/21/2 1/5/2
f 3/7/3 4/23/3 9/8/3
f 6/10/4 5/26/4 8/11/4
f 4/13/5 2/27/5 5/14/5
f 10/16/6 9/12/6 8/11/6
f 10/18/7 7/28/7 1/19/7
