# Blender v2.80 (sub 75) OBJ File: 'Modular Building.blend'
# www.blender.org
o Floor_Cube.010
v 2.000000 -0.000000 -6.000000
v 2.000000 0.200000 -6.000000
v 2.000000 -0.000000 -8.000000
v 2.000000 0.200000 -8.000000
v 4.000000 0.200000 -6.000000
v 4.000000 0.200000 -8.000000
v 4.000000 -0.000000 -6.000000
v 4.000000 -0.000000 -8.000000
vt 0.341270 0.325397
vt 0.658730 0.007937
vt 0.658730 0.325397
vt 0.325397 0.007937
vt 0.007937 0.325397
vt 0.007937 0.007937
vt 0.007937 0.658730
vt 0.325397 0.341270
vt 0.325397 0.658730
vt 0.674603 0.325397
vt 0.992063 0.007937
vt 0.992063 0.325397
vt 0.007937 0.992063
vt 0.325397 0.674603
vt 0.325397 0.992063
vt 0.341270 0.658730
vt 0.658730 0.341270
vt 0.658730 0.658730
vt 0.341270 0.007937
vt 0.325397 0.325397
vt 0.007937 0.341270
vt 0.674603 0.007937
vt 0.007937 0.674603
vt 0.341270 0.341270
vn -1.0000 0.0000 0.0000
vn 1.0000 0.0000 0.0000
vn 0.0000 0.0000 -1.0000
vn 0.0000 -1.0000 0.0000
vn 0.0000 1.0000 0.0000
vn 0.0000 0.0000 1.0000
s off
f 2/1/1 3/2/1 1/3/1
f 7/4/2 6/5/2 5/6/2
f 6/7/3 3/8/3 4/9/3
f 3/10/4 7/11/4 1/12/4
f 4/13/5 5/14/5 6/15/5
f 7/16/6 2/17/6 1/18/6
f 2/1/1 4/19/1 3/2/1
f 7/4/2 8/20/2 6/5/2
f 6/7/3 8/21/3 3/8/3
f 3/10/4 8/22/4 7/11/4
f 4/13/5 2/23/5 5/14/5
f 7/16/6 5/24/6 2/17/6
