# Blender v2.80 (sub 75) OBJ File: 'Modular Building.blend'
# www.blender.org
o Floor_Outer_Corner_Cube.001
v 2.000000 0.200000 0.000000
v 2.000000 -0.000000 -2.000000
v 2.000000 0.200000 -2.000000
v 4.000000 0.200000 0.000000
v 4.000000 0.200000 -2.000000
v 2.000000 -0.000000 -0.250000
v 2.000000 0.075000 0.000000
v 3.750000 -0.000000 -0.250000
v 4.000000 0.075000 0.000000
v 4.000000 0.075000 -2.000000
v 3.750000 -0.000000 -2.000000
vt 0.007937 0.011947
vt 0.325397 0.304682
vt 0.007937 0.304682
vt 0.325397 0.513634
vt 0.007937 0.691573
vt 0.047619 0.513634
vt 0.341270 0.011947
vt 0.658730 0.304682
vt 0.341270 0.304682
vt 0.658730 0.691573
vt 0.341270 0.513634
vt 0.619048 0.513634
vt 0.674603 0.486366
vt 0.992064 0.011863
vt 0.992063 0.486366
vt 0.619048 0.489824
vt 0.047619 0.489824
vt 0.325397 0.489824
vt 0.673611 0.512151
vt 0.951389 0.927342
vt 0.673611 0.927342
vt 0.325397 0.988137
vt 0.007937 0.988137
vt 0.341270 0.988137
vt 0.658730 0.988137
vt 0.325397 0.011947
vt 0.658730 0.011947
vt 0.674603 0.011863
vt 0.341270 0.489824
vt 0.951389 0.512151
vn 0.0000 0.0000 1.0000
vn 0.0000 0.0000 -1.0000
vn 1.0000 0.0000 0.0000
vn -1.0000 0.0000 0.0000
vn 0.0000 1.0000 0.0000
vn 0.2873 -0.9578 0.0000
vn 0.0000 -0.9578 0.2873
vn 0.0000 -1.0000 0.0000
s off
f 4/1/1 7/2/1 9/3/1
f 2/4/2 10/5/2 11/6/2
f 5/7/3 9/8/3 10/9/3
f 7/10/4 2/11/4 6/12/4
f 3/13/5 4/14/5 5/15/5
f 8/16/6 10/9/6 9/8/6
f 8/17/7 7/2/7 6/18/7
f 11/19/8 6/20/8 2/21/8
f 10/5/2 3/22/2 5/23/2
f 3/24/4 7/10/4 1/25/4
f 4/1/1 1/26/1 7/2/1
f 2/4/2 3/22/2 10/5/2
f 5/7/3 4/27/3 9/8/3
f 7/10/4 3/24/4 2/11/4
f 3/13/5 1/28/5 4/14/5
f 8/16/6 11/29/6 10/9/6
f 8/17/7 9/3/7 7/2/7
f 11/19/8 8/30/8 6/20/8
