# Blender v2.80 (sub 75) OBJ File: 'Modular Building.blend'
# www.blender.org
o Roof_Corner_Plane.001
v 5.000000 0.000000 -5.700000
v 7.300000 0.000000 -5.700000
v 5.000000 0.000000 -8.000000
v 7.300000 0.000000 -8.000000
v 5.000000 0.200000 -8.000000
v 5.000000 0.200000 -6.000000
v 7.000000 0.200000 -6.000000
v 7.000000 0.200000 -8.000000
v 7.300000 0.100000 -8.000000
v 7.300000 0.100000 -5.700000
v 5.000000 0.100000 -5.700000
v 5.000000 0.100000 -8.000000
v 7.000000 0.100000 -8.000000
v 7.000000 0.000000 -8.000000
v 5.000000 0.100000 -6.000000
v 5.000000 0.000000 -6.000000
v 7.000000 0.100000 -5.700000
v 7.000000 0.000000 -5.700000
v 7.300000 0.100000 -6.000000
v 7.300000 0.000000 -6.000000
v 7.000000 0.000000 -6.000000
vt 0.925902 0.488095
vt 0.988082 0.074017
vt 0.988082 0.488095
vt 0.076141 0.423044
vt 0.487558 0.018191
vt 0.487558 0.429202
vt 0.011892 0.486269
vt 0.011892 0.424617
vt 0.564739 0.925983
vt 0.544012 0.511905
vt 0.564739 0.511905
vt 0.521213 0.511905
vt 0.521213 0.574017
vt 0.500486 0.574017
vt 0.073604 0.487192
vt 0.485021 0.493350
vt 0.608784 0.574017
vt 0.629510 0.988095
vt 0.608784 0.988095
vt 0.541940 0.574016
vt 0.541940 0.511905
vt 0.585466 0.511905
vt 0.607747 0.574017
vt 0.587020 0.511905
vt 0.607747 0.511905
vt 0.541940 0.988095
vt 0.521213 0.988095
vt 0.500486 0.988095
vt 0.585466 0.925983
vt 0.564739 0.988095
vt 0.544012 0.925983
vt 0.629510 0.574017
vt 0.608784 0.511905
vt 0.629510 0.511905
vt 0.076141 0.012033
vt 0.587021 0.988095
vt 0.587020 0.574017
vt 0.925902 0.074017
vt 0.988082 0.011905
vt 0.511368 0.011905
vt 0.925902 0.011905
vt 0.511368 0.488095
vt 0.511368 0.074017
vt 0.585466 0.988095
vt 0.011892 0.013606
vt 0.607747 0.988095
vn 0.0000 -1.0000 0.0000
vn 0.0000 1.0000 0.0000
vn 0.3162 0.9487 0.0000
vn -1.0000 0.0000 0.0000
vn 0.0000 0.0000 -1.0000
vn 0.0000 0.9487 0.3162
vn 0.0000 0.0000 1.0000
vn 1.0000 0.0000 0.0000
s off
f 16/1/1 18/2/1 1/3/1
f 7/4/2 5/5/2 6/6/2
f 10/7/3 19/8/3 7/4/3
f 15/9/4 5/10/4 12/11/4
f 9/12/5 13/13/5 8/14/5
f 17/15/6 6/6/6 11/16/6
f 18/17/7 11/18/7 1/19/7
f 14/20/5 9/12/5 4/21/5
f 3/22/4 15/9/4 12/11/4
f 20/23/8 10/24/8 2/25/8
f 13/13/5 3/26/5 12/27/5
f 8/14/5 12/27/5 5/28/5
f 16/29/4 11/30/4 15/9/4
f 6/31/4 15/9/4 11/30/4
f 7/4/6 17/15/6 10/7/6
f 17/32/7 2/33/7 10/34/7
f 19/8/3 8/35/3 7/4/3
f 20/23/8 9/36/8 19/37/8
f 21/38/1 2/39/1 18/2/1
f 21/38/1 4/40/1 20/41/1
f 21/38/1 3/42/1 14/43/1
f 16/1/1 21/38/1 18/2/1
f 7/4/2 8/35/2 5/5/2
f 15/9/4 6/31/4 5/10/4
f 17/15/6 7/4/6 6/6/6
f 18/17/7 17/32/7 11/18/7
f 14/20/5 13/13/5 9/12/5
f 3/22/4 16/29/4 15/9/4
f 20/23/8 19/37/8 10/24/8
f 13/13/5 14/20/5 3/26/5
f 8/14/5 13/13/5 12/27/5
f 16/29/4 1/44/4 11/30/4
f 17/32/7 18/17/7 2/33/7
f 19/8/3 9/45/3 8/35/3
f 20/23/8 4/46/8 9/36/8
f 21/38/1 20/41/1 2/39/1
f 21/38/1 14/43/1 4/40/1
f 21/38/1 16/1/1 3/42/1
