# Blender v2.80 (sub 75) OBJ File: 'Modular Building.blend'
# www.blender.org
o Roof_Plane.004
v 5.000000 0.000000 0.000000
v 7.000000 0.000000 0.000000
v 5.000000 0.000000 -2.000000
v 7.000000 0.000000 -2.000000
v 5.000000 0.200000 -2.000000
v 5.000000 0.200000 0.000000
v 7.000000 0.200000 0.000000
v 7.000000 0.200000 -2.000000
vt 0.017007 0.488095
vt 0.697278 0.011905
vt 0.697278 0.488095
vt 0.697278 0.511905
vt 0.017007 0.988095
vt 0.017007 0.511905
vt 0.784013 0.488095
vt 0.715986 0.011905
vt 0.784013 0.011905
vt 0.998299 0.488095
vt 0.930272 0.011905
vt 0.998299 0.011905
vt 0.855442 0.488095
vt 0.787415 0.011905
vt 0.855442 0.011905
vt 0.858843 0.011905
vt 0.926871 0.488095
vt 0.858844 0.488095
vt 0.017007 0.011905
vt 0.697278 0.988095
vt 0.715986 0.488095
vt 0.930272 0.488095
vt 0.787415 0.488095
vt 0.926871 0.011905
vn 0.0000 -1.0000 0.0000
vn 0.0000 1.0000 0.0000
vn 1.0000 0.0000 0.0000
vn -1.0000 0.0000 0.0000
vn 0.0000 0.0000 -1.0000
vn 0.0000 0.0000 1.0000
s off
f 3/1/1 2/2/1 1/3/1
f 7/4/2 5/5/2 6/6/2
f 4/7/3 7/8/3 2/9/3
f 1/10/4 5/11/4 3/12/4
f 3/13/5 8/14/5 4/15/5
f 2/16/6 6/17/6 1/18/6
f 3/1/1 4/19/1 2/2/1
f 7/4/2 8/20/2 5/5/2
f 4/7/3 8/21/3 7/8/3
f 1/10/4 6/22/4 5/11/4
f 3/13/5 5/23/5 8/14/5
f 2/16/6 7/24/6 6/17/6
