# Blender v2.80 (sub 75) OBJ File: 'Modular Building.blend'
# www.blender.org
o Roof_Edge_Plane.007
v 5.000000 0.000000 -3.000000
v 7.300000 0.000000 -3.000000
v 5.000000 0.000000 -5.000000
v 7.300000 0.000000 -5.000000
v 5.000000 0.200000 -5.000000
v 5.000000 0.200000 -3.000000
v 7.000000 0.200000 -3.000000
v 7.000000 0.200000 -5.000000
v 7.300000 0.100000 -5.000000
v 7.300000 0.100000 -3.000000
v 5.000000 0.100000 -3.000000
v 5.000000 0.100000 -5.000000
v 7.000001 0.100000 -3.000000
v 7.000001 0.000000 -3.000000
v 7.000000 0.000000 -5.000000
v 7.000000 0.100000 -5.000000
vt 0.443723 0.523815
vt 0.010823 0.079433
vt 0.443723 0.079433
vt 0.898268 0.451344
vt 0.465368 0.012700
vt 0.898268 0.012700
vt 0.465368 0.520699
vt 0.898268 0.520699
vt 0.477273 0.988890
vt 0.455628 0.544509
vt 0.477273 0.544509
vt 0.931818 0.012776
vt 0.931818 0.079433
vt 0.910173 0.079433
vt 0.977273 0.523815
vt 0.998918 0.079433
vt 0.998918 0.523815
vt 0.955628 0.079433
vt 0.955628 0.523815
vt 0.953463 0.079433
vt 0.953463 0.012776
vt 0.498918 0.988890
vt 0.498918 0.544509
vt 0.522186 0.988890
vt 0.500541 0.544509
vt 0.522186 0.544509
vt 0.977273 0.079433
vt 0.977273 0.012776
vt 0.955628 0.012776
vt 0.931818 0.523815
vt 0.910173 0.523815
vt 0.010823 0.012776
vt 0.443723 0.012776
vt 0.010823 0.523815
vt 0.465368 0.451344
vt 0.455628 0.988890
vt 0.500541 0.988890
vt 0.953463 0.523815
vn 0.0000 -1.0000 0.0000
vn 0.0000 1.0000 0.0000
vn 0.3162 0.9487 0.0000
vn -1.0000 0.0000 0.0000
vn 0.0000 0.0000 -1.0000
vn 0.0000 0.0000 1.0000
vn 1.0000 0.0000 0.0000
s off
f 1/1/1 15/2/1 14/3/1
f 7/4/2 5/5/2 6/6/2
f 9/7/3 7/4/3 10/8/3
f 11/9/4 5/10/4 12/11/4
f 9/12/5 16/13/5 8/14/5
f 11/15/6 7/16/6 6/17/6
f 14/18/6 11/15/6 1/19/6
f 15/20/5 9/12/5 4/21/5
f 1/22/4 12/11/4 3/23/4
f 4/24/7 10/25/7 2/26/7
f 7/16/6 13/27/6 10/28/6
f 13/27/6 2/29/6 10/28/6
f 15/20/5 12/30/5 16/13/5
f 16/13/5 5/31/5 8/14/5
f 14/3/1 4/32/1 2/33/1
f 1/1/1 3/34/1 15/2/1
f 7/4/2 8/35/2 5/5/2
f 9/7/3 8/35/3 7/4/3
f 11/9/4 6/36/4 5/10/4
f 11/15/6 13/27/6 7/16/6
f 14/18/6 13/27/6 11/15/6
f 15/20/5 16/13/5 9/12/5
f 1/22/4 11/9/4 12/11/4
f 4/24/7 9/37/7 10/25/7
f 13/27/6 14/18/6 2/29/6
f 15/20/5 3/38/5 12/30/5
f 16/13/5 12/30/5 5/31/5
f 14/3/1 15/2/1 4/32/1
