# Blender v2.80 (sub 75) OBJ File: 'Modular Building.blend'
# www.blender.org
o Stand_Cube.003
v 8.500000 0.000000 0.000000
v 8.500000 0.000000 -0.500000
v 9.000000 0.000000 0.000000
v 9.000000 0.000000 -0.500000
v 8.500000 0.059762 0.000000
v 8.500000 0.059762 -0.500000
v 9.000000 0.059762 -0.500000
v 9.000000 0.059762 0.000000
v 8.641271 0.175863 -0.141271
v 8.641271 0.175863 -0.358729
v 8.858729 0.175863 -0.358729
v 8.858729 0.175863 -0.141271
v 8.641055 0.365953 -0.141055
v 8.641055 0.365953 -0.358945
v 8.858945 0.365953 -0.358945
v 8.858945 0.365953 -0.141055
v 8.641055 0.398516 -0.141055
v 8.641055 0.398516 -0.358945
v 8.858945 0.398516 -0.358945
v 8.858945 0.398516 -0.141055
v 8.722836 0.175863 -0.179086
v 8.679086 0.175863 -0.222836
v 8.648149 0.175863 -0.148150
v 8.679086 0.175863 -0.277164
v 8.722836 0.175863 -0.320914
v 8.648149 0.175863 -0.351850
v 8.820914 0.175863 -0.222836
v 8.777164 0.175863 -0.179086
v 8.851851 0.175863 -0.148150
v 8.777164 0.175863 -0.320914
v 8.820914 0.175863 -0.277164
v 8.851851 0.175863 -0.351850
v 8.679086 0.365953 -0.222836
v 8.722836 0.365953 -0.179086
v 8.648149 0.365953 -0.148150
v 8.722836 0.365953 -0.320914
v 8.679086 0.365953 -0.277164
v 8.648149 0.365953 -0.351850
v 8.820914 0.365953 -0.277164
v 8.777164 0.365953 -0.320914
v 8.851851 0.365953 -0.351850
v 8.777164 0.365953 -0.179086
v 8.820914 0.365953 -0.222836
v 8.851851 0.365953 -0.148150
vt 0.772573 0.923873
vt 0.837170 0.447683
vt 0.837170 0.923873
vt 0.569092 0.923873
vt 0.633689 0.447683
vt 0.633689 0.923873
vt 0.636919 0.923873
vt 0.701516 0.447683
vt 0.701516 0.923873
vt 0.769343 0.447683
vt 0.704746 0.923873
vt 0.704746 0.447683
vt 0.013511 0.011905
vt 0.553966 0.488095
vt 0.013511 0.488095
vt 0.808883 0.212701
vt 0.573365 0.212701
vt 0.661762 0.176482
vt 0.166212 0.853552
vt 0.013511 0.511905
vt 0.166212 0.646448
vt 0.401265 0.853552
vt 0.013511 0.988095
vt 0.401265 0.646448
vt 0.553965 0.988095
vt 0.553965 0.511905
vt 0.840253 0.811433
vt 0.898978 0.630395
vt 0.898978 0.811433
vt 0.360390 0.775871
vt 0.947450 0.440304
vt 0.888725 0.621343
vt 0.888725 0.440304
vt 0.817421 0.431252
vt 0.876146 0.250214
vt 0.876146 0.431252
vt 0.573365 0.005188
vt 0.614472 0.083074
vt 0.207086 0.724129
vt 0.313101 0.682463
vt 0.254376 0.817537
vt 0.808883 0.005188
vt 0.720486 0.041407
vt 0.767776 0.134815
vt 0.999120 0.430590
vt 0.963923 0.223077
vt 0.999120 0.223077
vt 0.973480 0.838570
vt 0.938283 0.631056
vt 0.973480 0.631056
vt 0.901326 0.631056
vt 0.936523 0.838570
vt 0.901326 0.838570
vt 0.926966 0.223077
vt 0.962163 0.430590
vt 0.926966 0.430590
vt 0.573365 0.223077
vt 0.808883 0.430590
vt 0.573365 0.430590
vt 0.254376 0.682463
vt 0.173648 0.653000
vt 0.207086 0.775871
vt 0.173648 0.847000
vt 0.360390 0.724129
vt 0.393829 0.653000
vt 0.313101 0.817537
vt 0.393829 0.847000
vt 0.720486 0.176482
vt 0.801215 0.205945
vt 0.614472 0.134815
vt 0.581033 0.205945
vt 0.661762 0.041407
vt 0.581033 0.011944
vt 0.767776 0.083074
vt 0.801215 0.011944
vt 0.923436 0.431252
vt 0.841436 0.440304
vt 0.841436 0.621343
vt 0.818604 0.004526
vt 0.865893 0.185565
vt 0.818604 0.185565
vt 0.971907 0.185565
vt 0.924618 0.004526
vt 0.971907 0.004526
vt 0.924618 0.185564
vt 0.772573 0.447683
vt 0.569092 0.447683
vt 0.636919 0.447683
vt 0.769343 0.923873
vt 0.553965 0.011905
vt 0.840253 0.630395
vt 0.947450 0.621343
vt 0.817421 0.250214
vt 0.963923 0.430590
vt 0.938283 0.838570
vt 0.936523 0.631056
vt 0.962163 0.223077
vt 0.808883 0.223077
vt 0.923436 0.250214
vt 0.865893 0.004526
vn -1.0000 0.0000 0.0000
vn 0.0000 0.0000 -1.0000
vn 1.0000 0.0000 0.0000
vn 0.0000 0.0000 1.0000
vn 0.0000 -1.0000 0.0000
vn -0.6349 0.7726 0.0000
vn 0.0000 0.7726 -0.6349
vn 0.6349 0.7726 0.0000
vn 0.0000 0.7726 0.6349
vn 0.0000 1.0000 0.0000
vn 0.7071 0.0000 -0.7071
vn 0.7071 0.0000 0.7071
vn -0.7071 0.0000 0.7071
vn -0.7071 0.0000 -0.7071
s off
f 5/1/1 2/2/1 1/3/1
f 6/4/2 4/5/2 2/6/2
f 7/7/3 3/8/3 4/9/3
f 8/10/4 1/11/4 3/12/4
f 4/13/5 1/14/5 2/15/5
f 13/16/5 14/17/5 37/18/5
f 10/19/6 5/20/6 9/21/6
f 11/22/7 6/23/7 10/19/7
f 12/24/8 7/25/8 11/22/8
f 9/21/9 8/26/9 12/24/9
f 28/27/4 34/28/4 21/29/4
f 12/24/10 11/22/10 31/30/10
f 31/31/3 43/32/3 27/33/3
f 25/34/2 40/35/2 30/36/2
f 14/17/5 15/37/5 40/38/5
f 10/19/10 9/21/10 22/39/10
f 9/21/10 12/24/10 28/40/10
f 11/22/10 10/19/10 25/41/10
f 15/37/5 16/42/5 43/43/5
f 16/42/5 13/16/5 34/44/5
f 15/45/3 20/46/3 16/47/3
f 13/48/1 18/49/1 14/50/1
f 16/51/4 17/52/4 13/53/4
f 14/54/2 19/55/2 15/56/2
f 20/57/10 18/58/10 17/59/10
f 21/60/10 22/39/10 23/61/10
f 24/62/10 25/41/10 26/63/10
f 27/64/10 28/40/10 29/65/10
f 30/66/10 31/30/10 32/67/10
f 33/68/5 34/44/5 35/69/5
f 36/70/5 37/18/5 38/71/5
f 39/72/5 40/38/5 41/73/5
f 42/74/5 43/43/5 44/75/5
f 40/35/11 31/76/11 30/36/11
f 28/77/12 43/32/12 42/78/12
f 34/79/13 22/80/13 21/81/13
f 25/82/14 37/83/14 36/84/14
f 22/80/1 37/83/1 24/85/1
f 5/1/1 6/86/1 2/2/1
f 6/4/2 7/87/2 4/5/2
f 7/7/3 8/88/3 3/8/3
f 8/10/4 5/89/4 1/11/4
f 4/13/5 3/90/5 1/14/5
f 14/17/5 38/71/5 37/18/5
f 37/18/5 33/68/5 13/16/5
f 33/68/5 35/69/5 13/16/5
f 10/19/6 6/23/6 5/20/6
f 11/22/7 7/25/7 6/23/7
f 12/24/8 8/26/8 7/25/8
f 9/21/9 5/20/9 8/26/9
f 28/27/4 42/91/4 34/28/4
f 11/22/10 32/67/10 31/30/10
f 31/30/10 27/64/10 12/24/10
f 27/64/10 29/65/10 12/24/10
f 31/31/3 39/92/3 43/32/3
f 25/34/2 36/93/2 40/35/2
f 15/37/5 41/73/5 40/38/5
f 40/38/5 36/70/5 14/17/5
f 36/70/5 38/71/5 14/17/5
f 9/21/10 23/61/10 22/39/10
f 22/39/10 24/62/10 10/19/10
f 24/62/10 26/63/10 10/19/10
f 12/24/10 29/65/10 28/40/10
f 28/40/10 21/60/10 9/21/10
f 21/60/10 23/61/10 9/21/10
f 10/19/10 26/63/10 25/41/10
f 25/41/10 30/66/10 11/22/10
f 30/66/10 32/67/10 11/22/10
f 16/42/5 44/75/5 43/43/5
f 43/43/5 39/72/5 15/37/5
f 39/72/5 41/73/5 15/37/5
f 13/16/5 35/69/5 34/44/5
f 34/44/5 42/74/5 16/42/5
f 42/74/5 44/75/5 16/42/5
f 15/45/3 19/94/3 20/46/3
f 13/48/1 17/95/1 18/49/1
f 16/51/4 20/96/4 17/52/4
f 14/54/2 18/97/2 19/55/2
f 20/57/10 19/98/10 18/58/10
f 40/35/11 39/99/11 31/76/11
f 28/77/12 27/33/12 43/32/12
f 34/79/13 33/100/13 22/80/13
f 25/82/14 24/85/14 37/83/14
f 22/80/1 33/100/1 37/83/1
