# Blender v2.80 (sub 75) OBJ File: 'Modular Building.blend'
# www.blender.org
mtllib Wall 1U Left.mtl
o Wall_1U_Left_Plane.014
v -0.000000 2.000000 -2.066667
v 0.000000 0.000000 -2.066667
v -0.000000 0.798061 -2.066667
v 0.000000 0.340500 -2.066667
v 0.026936 0.745541 -2.066667
v 0.026936 0.393020 -2.066667
v 0.020000 2.000000 -2.066667
v 0.020000 2.000000 -2.000000
v 0.020000 0.340500 -2.000000
v 0.020000 0.000000 -2.000000
v 0.020000 0.798061 -2.000000
v 0.046936 0.393020 -2.000000
v 0.046936 0.745541 -2.000000
v 0.020000 0.000000 -2.066667
v 0.020000 0.798061 -2.066667
v 0.020000 0.340500 -2.066667
v 0.046936 0.745541 -2.066667
v 0.046936 0.393020 -2.066667
v -0.000000 2.000000 -2.000000
v 0.000000 0.340500 -2.000000
v 0.000000 0.000000 -2.000000
v -0.000000 0.798061 -2.000000
v 0.026936 0.393020 -2.000000
v 0.026936 0.745541 -2.000000
v -0.000000 2.000000 -3.000000
v 0.000000 0.000000 -3.000000
v -0.000000 0.798061 -3.000000
v 0.000000 0.340500 -3.000000
v 0.026936 0.745541 -3.000000
v 0.026936 0.393020 -3.000000
v -0.000000 2.000000 -2.133889
v -0.000000 2.000000 -2.097778
v 0.000000 0.000000 -2.097778
v 0.000000 0.000000 -2.133889
v -0.000000 0.798061 -2.097778
v -0.000000 0.798061 -2.133889
v 0.000000 0.340500 -2.097778
v 0.000000 0.340500 -2.133889
v 0.026936 0.745541 -2.097778
v 0.026936 0.745541 -2.133889
v 0.026936 0.393020 -2.097778
v 0.026936 0.393020 -2.133889
v -0.000000 1.038449 -2.066667
v -0.000000 1.278837 -2.066667
v -0.000000 1.519225 -2.066667
v -0.000000 1.759612 -2.066667
v 0.020000 1.759612 -2.000000
v 0.020000 1.519224 -2.000000
v 0.020000 1.278837 -2.000000
v 0.020000 1.038449 -2.000000
v 0.020000 1.038449 -2.066667
v 0.020000 1.278837 -2.066667
v 0.020000 1.519225 -2.066667
v 0.020000 1.759612 -2.066667
v -0.000000 1.759612 -2.000000
v -0.000000 1.519224 -2.000000
v -0.000000 1.278837 -2.000000
v -0.000000 1.038449 -2.000000
v -0.000000 1.038449 -3.000000
v -0.000000 1.278837 -3.000000
v -0.000000 1.519225 -3.000000
v -0.000000 1.759612 -3.000000
v -0.000000 1.038449 -2.097778
v -0.000000 1.278837 -2.097778
v -0.000000 1.519225 -2.097778
v -0.000000 1.759612 -2.097778
v -0.000000 1.038449 -2.133889
v -0.000000 1.278837 -2.133889
v -0.000000 1.519225 -2.133889
v -0.000000 1.759612 -2.133889
v -0.005000 1.038449 -2.097778
v -0.005000 1.278837 -2.097778
v -0.005000 1.519225 -2.097778
v -0.005000 1.759612 -2.097778
v -0.005000 1.038449 -2.133889
v -0.005000 1.278837 -2.133889
v -0.005000 1.519225 -2.133889
v -0.005000 1.759612 -2.133889
vt 0.944351 0.378829
vt 0.927495 0.210962
vt 0.944351 0.210962
vt 0.827375 0.210962
vt 0.883564 0.378829
vt 0.827375 0.378829
vt 0.883564 0.403839
vt 0.827375 0.403839
vt 0.827375 0.185952
vt 0.883564 0.210962
vt 0.827375 0.518309
vt 0.883564 0.518309
vt 0.827375 0.023810
vt 0.883564 0.185952
vt 0.950197 0.185952
vt 0.967054 0.185952
vt 0.950197 0.023810
vt 0.967054 0.023810
vt 0.950197 0.403839
vt 0.927495 0.378829
vt 0.967054 0.976191
vt 0.950197 0.861720
vt 0.967054 0.861720
vt 0.885957 0.621171
vt 0.902814 0.789038
vt 0.885958 0.789038
vt 0.908660 0.814048
vt 0.925517 0.814048
vt 0.925517 0.976191
vt 0.908660 0.976191
vt 0.908660 0.596161
vt 0.902814 0.621171
vt 0.908660 0.023810
vt 0.925517 0.138280
vt 0.908660 0.138280
vt 0.076323 0.023810
vt 0.806304 0.185952
vt 0.076323 0.185952
vt 0.076323 0.518309
vt 0.806304 0.403839
vt 0.806304 0.518309
vt 0.806304 0.210962
vt 0.076323 0.210962
vt 0.076323 0.378829
vt 0.076323 0.403839
vt 0.806304 0.378829
vt 0.019666 0.210962
vt 0.045887 0.378829
vt 0.019666 0.378829
vt 0.045887 0.210962
vt 0.045887 0.403839
vt 0.019666 0.403839
vt 0.019666 0.185952
vt 0.045887 0.185952
vt 0.045887 0.518309
vt 0.019666 0.518309
vt 0.019666 0.023810
vt 0.045887 0.023810
vt 0.045887 0.861720
vt 0.076323 0.976191
vt 0.045887 0.976191
vt 0.976787 0.498401
vt 0.972573 0.481205
vt 0.976787 0.481205
vt 0.045887 0.632779
vt 0.076323 0.747250
vt 0.045887 0.747250
vt 0.972362 0.498401
vt 0.968148 0.481205
vt 0.972362 0.481205
vt 0.019666 0.861720
vt 0.019666 0.976191
vt 0.019666 0.747250
vt 0.019666 0.632779
vt 0.076323 0.861720
vt 0.806304 0.976190
vt 0.806304 0.747250
vt 0.806304 0.861720
vt 0.076323 0.632779
vt 0.806304 0.632779
vt 0.908660 0.481691
vt 0.925517 0.596161
vt 0.908660 0.367221
vt 0.925517 0.481691
vt 0.908660 0.252750
vt 0.925517 0.367221
vt 0.925517 0.252750
vt 0.967054 0.518309
vt 0.967054 0.403839
vt 0.967054 0.632779
vt 0.950197 0.518309
vt 0.967054 0.747250
vt 0.950197 0.632779
vt 0.950197 0.747250
vt 0.827375 0.976190
vt 0.883564 0.861720
vt 0.883564 0.976190
vt 0.827375 0.861720
vt 0.883564 0.747250
vt 0.827375 0.747250
vt 0.883564 0.632779
vt 0.827375 0.632779
vt 0.968148 0.499261
vt 0.972362 0.516457
vt 0.968148 0.516457
vt 0.968148 0.517317
vt 0.972362 0.534512
vt 0.968148 0.534512
vt 0.968148 0.357720
vt 0.972362 0.243250
vt 0.972362 0.357720
vt 0.976787 0.477914
vt 0.972573 0.363443
vt 0.976787 0.363443
vt 0.972573 0.243250
vt 0.976787 0.357720
vt 0.972573 0.357720
vt 0.968148 0.363443
vt 0.972362 0.477914
vt 0.968148 0.477914
vt 0.883564 0.023810
vt 0.950197 0.976191
vt 0.925517 0.023810
vt 0.806304 0.023810
vt 0.972573 0.498401
vt 0.968148 0.498401
vt 0.972362 0.499261
vt 0.972362 0.517317
vt 0.968148 0.243250
vt 0.972573 0.477914
vt 0.976787 0.243250
vt 0.972362 0.363443
vn 0.0000 0.0000 -1.0000
vn 1.0000 0.0000 0.0000
vn 0.8898 0.4564 0.0000
vn 0.8898 -0.4564 0.0000
vn 0.0000 0.0000 1.0000
vn 0.0000 -1.0000 0.0000
vn 0.0000 1.0000 0.0000
vn 0.8898 0.4563 0.0000
vn 0.8898 -0.4563 0.0000
usemtl Base
s off
f 5/1/1 18/2/1 6/3/1
f 12/4/2 17/5/2 13/6/2
f 13/6/3 15/7/3 11/8/3
f 9/9/4 18/10/4 12/4/4
f 50/11/2 15/7/2 51/12/2
f 10/13/2 16/14/2 9/9/2
f 6/3/1 16/15/1 4/16/1
f 4/16/1 14/17/1 2/18/1
f 5/1/1 15/19/1 17/20/1
f 1/21/1 54/22/1 46/23/1
f 13/24/5 23/25/5 12/26/5
f 9/27/5 23/25/5 20/28/5
f 9/27/5 21/29/5 10/30/5
f 11/31/5 24/32/5 13/24/5
f 8/33/5 55/34/5 47/35/5
f 34/36/2 28/37/2 38/38/2
f 67/39/2 27/40/2 59/41/2
f 38/38/4 30/42/4 42/43/4
f 40/44/3 27/40/3 36/45/3
f 42/43/2 29/46/2 40/44/2
f 6/47/2 39/48/2 5/49/2
f 41/50/2 40/44/2 39/48/2
f 5/49/3 35/51/3 3/52/3
f 39/48/3 36/45/3 35/51/3
f 4/53/4 41/50/4 6/47/4
f 37/54/4 42/43/4 41/50/4
f 3/52/2 63/55/2 43/56/2
f 35/51/2 67/39/2 63/55/2
f 2/57/2 37/54/2 4/53/2
f 33/58/2 38/38/2 37/54/2
f 66/59/2 31/60/2 32/61/2
f 66/62/6 78/63/6 70/64/6
f 64/65/2 69/66/2 65/67/2
f 64/68/6 76/69/6 68/70/6
f 46/71/2 32/61/2 1/72/2
f 45/73/2 66/59/2 46/71/2
f 44/74/2 65/67/2 45/73/2
f 43/56/2 64/65/2 44/74/2
f 70/75/2 25/76/2 31/60/2
f 70/75/2 61/77/2 62/78/2
f 68/79/2 61/77/2 69/66/2
f 67/39/2 60/80/2 68/79/2
f 50/81/5 22/82/5 11/31/5
f 49/83/5 58/84/5 50/81/5
f 48/85/5 57/86/5 49/83/5
f 47/35/5 56/87/5 48/85/5
f 43/88/1 15/19/1 3/89/1
f 44/90/1 51/91/1 43/88/1
f 45/92/1 52/93/1 44/90/1
f 46/23/1 53/94/1 45/92/1
f 8/95/2 54/96/2 7/97/2
f 47/98/2 53/99/2 54/96/2
f 48/100/2 52/101/2 53/99/2
f 49/102/2 51/12/2 52/101/2
f 67/103/7 71/104/7 63/105/7
f 69/106/7 73/107/7 65/108/7
f 69/109/5 78/110/5 77/111/5
f 68/112/5 75/113/5 67/114/5
f 65/115/1 74/116/1 66/117/1
f 63/118/1 72/119/1 64/120/1
f 5/1/1 17/20/1 18/2/1
f 12/4/2 18/10/2 17/5/2
f 13/6/3 17/5/3 15/7/3
f 9/9/4 16/14/4 18/10/4
f 50/11/2 11/8/2 15/7/2
f 10/13/2 14/121/2 16/14/2
f 6/3/1 18/2/1 16/15/1
f 4/16/1 16/15/1 14/17/1
f 5/1/1 3/89/1 15/19/1
f 1/21/1 7/122/1 54/22/1
f 13/24/5 24/32/5 23/25/5
f 9/27/5 12/26/5 23/25/5
f 9/27/5 20/28/5 21/29/5
f 11/31/5 22/82/5 24/32/5
f 8/33/5 19/123/5 55/34/5
f 34/36/2 26/124/2 28/37/2
f 67/39/2 36/45/2 27/40/2
f 38/38/4 28/37/4 30/42/4
f 40/44/3 29/46/3 27/40/3
f 42/43/2 30/42/2 29/46/2
f 6/47/2 41/50/2 39/48/2
f 41/50/2 42/43/2 40/44/2
f 5/49/3 39/48/3 35/51/3
f 39/48/8 40/44/8 36/45/8
f 4/53/4 37/54/4 41/50/4
f 37/54/9 38/38/9 42/43/9
f 3/52/2 35/51/2 63/55/2
f 35/51/2 36/45/2 67/39/2
f 2/57/2 33/58/2 37/54/2
f 33/58/2 34/36/2 38/38/2
f 66/59/2 70/75/2 31/60/2
f 66/62/6 74/125/6 78/63/6
f 64/65/2 68/79/2 69/66/2
f 64/68/6 72/126/6 76/69/6
f 46/71/2 66/59/2 32/61/2
f 45/73/2 65/67/2 66/59/2
f 44/74/2 64/65/2 65/67/2
f 43/56/2 63/55/2 64/65/2
f 70/75/2 62/78/2 25/76/2
f 70/75/2 69/66/2 61/77/2
f 68/79/2 60/80/2 61/77/2
f 67/39/2 59/41/2 60/80/2
f 50/81/5 58/84/5 22/82/5
f 49/83/5 57/86/5 58/84/5
f 48/85/5 56/87/5 57/86/5
f 47/35/5 55/34/5 56/87/5
f 43/88/1 51/91/1 15/19/1
f 44/90/1 52/93/1 51/91/1
f 45/92/1 53/94/1 52/93/1
f 46/23/1 54/22/1 53/94/1
f 8/95/2 47/98/2 54/96/2
f 47/98/2 48/100/2 53/99/2
f 48/100/2 49/102/2 52/101/2
f 49/102/2 50/11/2 51/12/2
f 67/103/7 75/127/7 71/104/7
f 69/106/7 77/128/7 73/107/7
f 69/109/5 70/129/5 78/110/5
f 68/112/5 76/130/5 75/113/5
f 65/115/1 73/131/1 74/116/1
f 63/118/1 71/132/1 72/119/1
o Wall_1U_Left_EMS_Plane.013
v -0.005000 1.038449 -2.097778
v -0.005000 1.278837 -2.097778
v -0.005000 1.519225 -2.097778
v -0.005000 1.759612 -2.097778
v -0.005000 1.038449 -2.133889
v -0.005000 1.278837 -2.133889
v -0.005000 1.519225 -2.133889
v -0.005000 1.759612 -2.133889
vt 0.968804 0.123056
vt 0.999239 0.237526
vt 0.968804 0.237526
vt 0.999239 0.117332
vt 0.968804 0.002862
vt 0.999239 0.002862
vt 0.999239 0.123056
vt 0.968804 0.117332
vn 1.0000 0.0000 0.0000
usemtl Emission
s off
f 81/133/10 86/134/10 82/135/10
f 79/136/10 84/137/10 80/138/10
f 81/133/10 85/139/10 86/134/10
f 79/136/10 83/140/10 84/137/10
