# Blender v2.80 (sub 75) OBJ File: 'Modular Building.blend'
# www.blender.org
mtllib Wall 1U Right.mtl
o Wall_1U_Right_Plane.015
v -0.000000 2.000000 -4.933333
v 0.000000 0.000000 -4.933333
v -0.000000 0.798061 -4.933333
v 0.000000 0.340500 -4.933333
v 0.026936 0.745541 -4.933333
v 0.026936 0.393020 -4.933333
v 0.020000 0.000000 -4.933333
v 0.020000 0.000000 -5.000000
v 0.020000 0.798061 -5.000000
v 0.020000 2.000000 -5.000000
v 0.020000 0.340500 -5.000000
v 0.046936 0.745541 -5.000000
v 0.020000 0.798061 -4.933333
v 0.020000 0.340500 -4.933333
v 0.046936 0.393020 -5.000000
v 0.046936 0.745541 -4.933333
v 0.046936 0.393020 -4.933333
v 0.020000 2.000000 -4.933333
v 0.000000 0.000000 -5.000000
v -0.000000 0.798061 -5.000000
v -0.000000 2.000000 -5.000000
v 0.000000 0.340500 -5.000000
v 0.026936 0.745541 -5.000000
v 0.026936 0.393020 -5.000000
v -0.000000 2.000000 -4.000000
v 0.000000 0.000000 -4.000000
v -0.000000 0.798061 -4.000000
v 0.000000 0.340500 -4.000000
v 0.026936 0.745541 -4.000000
v 0.026936 0.393020 -4.000000
v 0.000000 0.000000 -4.866111
v 0.000000 0.000000 -4.902222
v -0.000000 0.798061 -4.866111
v -0.000000 0.798061 -4.902222
v 0.000000 0.340500 -4.866111
v 0.000000 0.340500 -4.902222
v 0.026936 0.745541 -4.866111
v 0.026936 0.745541 -4.902222
v 0.026936 0.393020 -4.866111
v 0.026936 0.393020 -4.902222
v -0.000000 2.000000 -4.902222
v -0.000000 2.000000 -4.866111
v -0.000000 1.038449 -4.933333
v -0.000000 1.278837 -4.933333
v -0.000000 1.519225 -4.933333
v -0.000000 1.759612 -4.933333
v 0.020000 1.038449 -5.000000
v 0.020000 1.278837 -5.000000
v 0.020000 1.519225 -5.000000
v 0.020000 1.759612 -5.000000
v 0.020000 1.038449 -4.933333
v 0.020000 1.278837 -4.933333
v 0.020000 1.519225 -4.933333
v 0.020000 1.759612 -4.933333
v -0.000000 1.038449 -5.000000
v -0.000000 1.278837 -5.000000
v -0.000000 1.519225 -5.000000
v -0.000000 1.759612 -5.000000
v -0.000000 1.038449 -4.000000
v -0.000000 1.278837 -4.000000
v -0.000000 1.519225 -4.000000
v -0.000000 1.759612 -4.000000
v -0.000000 1.038449 -4.866111
v -0.000000 1.278837 -4.866111
v -0.000000 1.519225 -4.866111
v -0.000000 1.759612 -4.866111
v -0.000000 1.038449 -4.902222
v -0.000000 1.278837 -4.902222
v -0.000000 1.519225 -4.902222
v -0.000000 1.759612 -4.902222
v -0.005000 1.038449 -4.866111
v -0.005000 1.278837 -4.866111
v -0.005000 1.519225 -4.866111
v -0.005000 1.759612 -4.866111
v -0.005000 1.038449 -4.902222
v -0.005000 1.278837 -4.902222
v -0.005000 1.519225 -4.902222
v -0.005000 1.759612 -4.902222
vt 0.950197 0.210962
vt 0.967054 0.378829
vt 0.950197 0.378829
vt 0.927495 0.518309
vt 0.944351 0.403839
vt 0.944351 0.518309
vt 0.927495 0.403839
vt 0.780083 0.210962
vt 0.806304 0.378829
vt 0.780083 0.378829
vt 0.806304 0.403839
vt 0.780083 0.403839
vt 0.780083 0.185952
vt 0.806304 0.210962
vt 0.806304 0.518309
vt 0.780083 0.518309
vt 0.780083 0.023810
vt 0.806304 0.185952
vt 0.827375 0.023810
vt 0.883563 0.185952
vt 0.827375 0.185952
vt 0.827375 0.403839
vt 0.883564 0.518309
vt 0.827375 0.518309
vt 0.883563 0.210962
vt 0.827375 0.210962
vt 0.827375 0.378829
vt 0.883564 0.403839
vt 0.883563 0.378829
vt 0.944351 0.185952
vt 0.967054 0.210962
vt 0.927495 0.023810
vt 0.927495 0.185952
vt 0.885957 0.210962
vt 0.902814 0.378829
vt 0.885957 0.378829
vt 0.908660 0.403839
vt 0.925516 0.403839
vt 0.925517 0.518309
vt 0.908660 0.518309
vt 0.908660 0.185952
vt 0.902814 0.210962
vt 0.908660 0.023810
vt 0.925516 0.185952
vt 0.019666 0.023810
vt 0.749647 0.185952
vt 0.019666 0.185952
vt 0.749647 0.023810
vt 0.019666 0.403839
vt 0.749647 0.518309
vt 0.019666 0.518309
vt 0.749647 0.403839
vt 0.749647 0.210962
vt 0.019666 0.210962
vt 0.019666 0.378829
vt 0.749647 0.378829
vt 0.749647 0.861720
vt 0.780083 0.976190
vt 0.749648 0.976190
vt 0.976787 0.357720
vt 0.972573 0.243250
vt 0.976787 0.243250
vt 0.749647 0.632779
vt 0.780083 0.747250
vt 0.749647 0.747250
vt 0.968148 0.517317
vt 0.972362 0.534512
vt 0.968148 0.534512
vt 0.019666 0.861720
vt 0.019666 0.976191
vt 0.019666 0.747250
vt 0.019666 0.632779
vt 0.908660 0.861720
vt 0.925517 0.976191
vt 0.908660 0.976191
vt 0.908660 0.747250
vt 0.925517 0.861720
vt 0.908660 0.632779
vt 0.925517 0.747250
vt 0.925517 0.632779
vt 0.827375 0.861720
vt 0.883564 0.976190
vt 0.827375 0.976190
vt 0.827375 0.747250
vt 0.883564 0.861720
vt 0.827375 0.632779
vt 0.883564 0.747250
vt 0.883564 0.632779
vt 0.780083 0.861720
vt 0.806304 0.976190
vt 0.806304 0.861720
vt 0.780083 0.632779
vt 0.806304 0.747250
vt 0.806304 0.632779
vt 0.927495 0.861720
vt 0.944351 0.976191
vt 0.927495 0.976191
vt 0.944351 0.747250
vt 0.944351 0.861720
vt 0.927495 0.632779
vt 0.927495 0.747250
vt 0.944351 0.632779
vt 0.972362 0.357720
vt 0.968148 0.243250
vt 0.972362 0.243250
vt 0.976787 0.477914
vt 0.972573 0.363443
vt 0.976787 0.363443
vt 0.972362 0.477914
vt 0.968148 0.363443
vt 0.972362 0.363443
vt 0.968148 0.499261
vt 0.972362 0.516457
vt 0.968148 0.516457
vt 0.972573 0.499261
vt 0.976787 0.516457
vt 0.972573 0.516457
vt 0.968148 0.481205
vt 0.972362 0.498401
vt 0.968148 0.498401
vt 0.806304 0.023810
vt 0.883563 0.023810
vt 0.944351 0.023810
vt 0.925516 0.023810
vt 0.972573 0.357720
vt 0.972362 0.517317
vt 0.968148 0.357720
vt 0.972573 0.477914
vt 0.968148 0.477914
vt 0.972362 0.499261
vt 0.976787 0.499261
vt 0.972362 0.481205
vn 0.0000 0.0000 1.0000
vn 1.0000 0.0000 0.0000
vn 0.8898 0.4563 0.0000
vn 0.8898 -0.4563 0.0000
vn 0.8898 -0.4564 0.0000
vn 0.8898 0.4564 0.0000
vn 0.0000 0.0000 -1.0000
vn 0.0000 1.0000 0.0000
vn 0.0000 -1.0000 0.0000
usemtl Base
s off
f 6/1/1 16/2/1 5/3/1
f 43/4/1 13/5/1 51/6/1
f 5/3/1 13/5/1 3/7/1
f 40/8/2 5/9/2 38/10/2
f 38/10/3 3/11/3 34/12/3
f 36/13/4 6/14/4 40/8/4
f 34/12/2 43/15/2 67/16/2
f 32/17/2 4/18/2 36/13/2
f 7/19/2 11/20/2 14/21/2
f 13/22/2 47/23/2 51/24/2
f 14/21/5 15/25/5 17/26/5
f 16/27/6 9/28/6 13/22/6
f 17/26/2 12/29/2 16/27/2
f 6/1/1 14/30/1 17/31/1
f 2/32/1 14/30/1 4/33/1
f 15/34/7 23/35/7 12/36/7
f 9/37/7 23/35/7 20/38/7
f 9/37/7 55/39/7 47/40/7
f 11/41/7 24/42/7 15/34/7
f 8/43/7 22/44/7 11/41/7
f 26/45/2 35/46/2 28/47/2
f 31/48/2 36/13/2 35/46/2
f 27/49/2 63/50/2 59/51/2
f 33/52/2 67/16/2 63/50/2
f 28/47/5 39/53/5 30/54/5
f 35/46/4 40/8/4 39/53/4
f 29/55/6 33/52/6 27/49/6
f 37/56/3 34/12/3 33/52/3
f 30/54/2 37/56/2 29/55/2
f 39/53/2 38/10/2 37/56/2
f 66/57/2 41/58/2 42/59/2
f 70/60/1 77/61/1 69/62/1
f 64/63/2 69/64/2 65/65/2
f 69/66/8 73/67/8 65/68/8
f 62/69/2 42/59/2 25/70/2
f 61/71/2 66/57/2 62/69/2
f 60/72/2 65/65/2 61/71/2
f 59/51/2 64/63/2 60/72/2
f 50/73/7 21/74/7 10/75/7
f 49/76/7 58/77/7 50/73/7
f 48/78/7 57/79/7 49/76/7
f 47/40/7 56/80/7 48/78/7
f 54/81/2 10/82/2 18/83/2
f 53/84/2 50/85/2 54/81/2
f 52/86/2 49/87/2 53/84/2
f 51/24/2 48/88/2 52/86/2
f 70/89/2 1/90/2 41/58/2
f 69/64/2 46/91/2 70/89/2
f 68/92/2 45/93/2 69/64/2
f 67/16/2 44/94/2 68/92/2
f 46/95/1 18/96/1 1/97/1
f 46/95/1 53/98/1 54/99/1
f 44/100/1 53/98/1 45/101/1
f 43/4/1 52/102/1 44/100/1
f 68/103/1 75/104/1 67/105/1
f 65/106/7 74/107/7 66/108/7
f 63/109/7 72/110/7 64/111/7
f 64/112/9 76/113/9 68/114/9
f 66/115/9 78/116/9 70/117/9
f 67/118/8 71/119/8 63/120/8
f 6/1/1 17/31/1 16/2/1
f 43/4/1 3/7/1 13/5/1
f 5/3/1 16/2/1 13/5/1
f 40/8/2 6/14/2 5/9/2
f 38/10/6 5/9/6 3/11/6
f 36/13/5 4/18/5 6/14/5
f 34/12/2 3/11/2 43/15/2
f 32/17/2 2/121/2 4/18/2
f 7/19/2 8/122/2 11/20/2
f 13/22/2 9/28/2 47/23/2
f 14/21/5 11/20/5 15/25/5
f 16/27/6 12/29/6 9/28/6
f 17/26/2 15/25/2 12/29/2
f 6/1/1 4/33/1 14/30/1
f 2/32/1 7/123/1 14/30/1
f 15/34/7 24/42/7 23/35/7
f 9/37/7 12/36/7 23/35/7
f 9/37/7 20/38/7 55/39/7
f 11/41/7 22/44/7 24/42/7
f 8/43/7 19/124/7 22/44/7
f 26/45/2 31/48/2 35/46/2
f 31/48/2 32/17/2 36/13/2
f 27/49/2 33/52/2 63/50/2
f 33/52/2 34/12/2 67/16/2
f 28/47/5 35/46/5 39/53/5
f 35/46/5 36/13/5 40/8/5
f 29/55/6 37/56/6 33/52/6
f 37/56/6 38/10/6 34/12/6
f 30/54/2 39/53/2 37/56/2
f 39/53/2 40/8/2 38/10/2
f 66/57/2 70/89/2 41/58/2
f 70/60/1 78/125/1 77/61/1
f 64/63/2 68/92/2 69/64/2
f 69/66/8 77/126/8 73/67/8
f 62/69/2 66/57/2 42/59/2
f 61/71/2 65/65/2 66/57/2
f 60/72/2 64/63/2 65/65/2
f 59/51/2 63/50/2 64/63/2
f 50/73/7 58/77/7 21/74/7
f 49/76/7 57/79/7 58/77/7
f 48/78/7 56/80/7 57/79/7
f 47/40/7 55/39/7 56/80/7
f 54/81/2 50/85/2 10/82/2
f 53/84/2 49/87/2 50/85/2
f 52/86/2 48/88/2 49/87/2
f 51/24/2 47/23/2 48/88/2
f 70/89/2 46/91/2 1/90/2
f 69/64/2 45/93/2 46/91/2
f 68/92/2 44/94/2 45/93/2
f 67/16/2 43/15/2 44/94/2
f 46/95/1 54/99/1 18/96/1
f 46/95/1 45/101/1 53/98/1
f 44/100/1 52/102/1 53/98/1
f 43/4/1 51/6/1 52/102/1
f 68/103/1 76/127/1 75/104/1
f 65/106/7 73/128/7 74/107/7
f 63/109/7 71/129/7 72/110/7
f 64/112/9 72/130/9 76/113/9
f 66/115/9 74/131/9 78/116/9
f 67/118/8 75/132/8 71/119/8
o Wall_1U_Right_EMS_Plane.016
v -0.005000 1.038449 -4.866111
v -0.005000 1.278837 -4.866111
v -0.005000 1.519225 -4.866111
v -0.005000 1.759612 -4.866111
v -0.005000 1.038449 -4.902222
v -0.005000 1.278837 -4.902222
v -0.005000 1.519225 -4.902222
v -0.005000 1.759612 -4.902222
vt 0.968804 0.123056
vt 0.999239 0.237526
vt 0.968804 0.237526
vt 0.968804 0.002862
vt 0.999239 0.117332
vt 0.968804 0.117332
vt 0.999239 0.123056
vt 0.999239 0.002862
vn 1.0000 0.0000 0.0000
usemtl Emission
s off
f 81/133/10 86/134/10 82/135/10
f 79/136/10 84/137/10 80/138/10
f 81/133/10 85/139/10 86/134/10
f 79/136/10 83/140/10 84/137/10
