# Blender v2.80 (sub 75) OBJ File: 'dipset.blend'
# www.blender.org
o beam_0.5x2_tri_Cube.014
v 1.369647 2.000000 6.131043
v 1.369647 2.000000 6.187709
v 1.369647 2.000000 6.584746
v 1.369647 2.000000 6.239932
v 1.369647 2.000000 6.532524
v 1.000000 2.000000 6.131043
v 1.000000 2.419647 6.239932
v 1.000000 2.419647 6.187710
v 1.000000 2.419647 6.584746
v 1.000000 2.419647 6.532524
v 1.000000 2.469647 6.532524
v 1.000000 2.469647 6.239932
v 1.000000 2.469647 6.584746
v 1.000000 2.469647 6.187710
v 1.000000 2.469647 6.641413
v 1.000000 2.469647 6.131043
v 1.369647 0.000000 6.131043
v 1.369647 2.000000 6.641413
v 1.369647 0.000000 6.641413
v 1.369647 0.000000 6.187710
v 1.369647 0.000000 6.584747
v 1.369647 0.000000 6.239932
v 1.369647 0.000000 6.532525
v 1.319647 0.000000 6.532525
v 1.319647 0.000000 6.584747
v 1.319647 2.000000 6.532525
v 1.319647 2.000000 6.584747
v 1.319647 2.000000 6.187710
v 1.319647 0.000000 6.187710
v 1.319647 0.000000 6.239932
v 1.319647 2.000000 6.239932
v 1.000000 2.000000 6.641413
v 1.000000 0.000000 6.641413
v 1.000000 0.000000 6.131043
vt 0.765988 0.563068
vt 0.763726 0.425324
vt 0.942486 0.556441
vt 0.941616 0.580160
vt 0.762286 0.710404
vt 0.765054 0.572642
vt 0.954026 0.598709
vt 0.768312 0.728946
vt 0.948470 0.617880
vt 0.777392 0.741146
vt 0.756781 0.775106
vt 0.952643 0.775106
vt 0.952643 0.794496
vt 0.756781 0.794496
vt 0.231302 0.382778
vt 0.030033 0.378962
vt 0.015204 0.367046
vt 0.236980 0.366143
vt 0.014832 0.257917
vt 0.236762 0.257613
vt 0.029608 0.245911
vt 0.231015 0.241000
vt 0.757087 0.752932
vt 0.952951 0.752932
vt 0.952951 0.772322
vt 0.757087 0.772322
vt 0.778960 0.394609
vt 0.949862 0.518775
vt 0.955351 0.538003
vt 0.769826 0.406785
vt 0.014391 0.402497
vt 0.014477 0.424170
vt 0.012903 0.709525
vt 0.013126 0.731151
vt 0.982179 0.365494
vt 0.982113 0.256324
vt 0.014509 0.752932
vt 0.014509 0.772321
vt 0.014202 0.775106
vt 0.014202 0.794495
vt 0.013353 0.750251
vt 0.982179 0.237547
vt 0.014305 0.383330
vt 0.982142 0.384264
vt 0.014477 0.563067
vt 0.012903 0.570577
vn 0.0000 0.0000 1.0000
vn 0.0000 0.0000 -1.0000
vn 0.7858 0.6185 0.0000
vn 0.7955 0.6059 0.0000
vn 1.0000 0.0000 0.0000
s off
f 32/1/1 18/2/1 15/3/1
f 16/4/2 1/5/2 6/6/2
f 1/5/3 16/4/3 14/7/3 2/8/3
f 2/8/1 14/7/1 8/9/1 28/10/1
f 28/11/4 8/12/4 7/13/4 31/14/4
f 31/15/2 7/16/2 12/17/2 4/18/2
f 4/18/3 12/17/3 11/19/3 5/20/3
f 5/20/1 11/19/1 10/21/1 26/22/1
f 26/23/4 10/24/4 9/25/4 27/26/4
f 27/27/2 9/28/2 13/29/2 3/30/2
f 3/30/3 13/29/3 15/3/3 18/2/3
f 21/31/5 3/30/5 18/2/5 19/32/5
f 17/33/5 1/5/5 2/8/5 20/34/5
f 22/35/5 4/18/5 5/20/5 23/36/5
f 24/37/5 26/23/5 27/26/5 25/38/5
f 29/39/5 28/11/5 31/14/5 30/40/5
f 20/34/1 2/8/1 28/10/1 29/41/1
f 23/36/1 5/20/1 26/22/1 24/42/1
f 3/30/2 21/31/2 25/43/2 27/27/2
f 4/18/2 22/35/2 30/44/2 31/15/2
f 19/32/1 18/2/1 32/1/1 33/45/1
f 1/5/2 17/33/2 34/46/2 6/6/2
