# Blender v2.80 (sub 75) OBJ File: 'dipset.blend'
# www.blender.org
o beam_0.5x2.002_Cube.029
v 1.877602 3.713724 6.131043
v 3.603419 2.100256 6.131043
v 1.877029 3.713724 6.641413
v 3.603419 2.100256 6.187710
v 3.603419 2.100256 6.584747
v 1.877029 3.713724 6.187710
v 1.877029 3.713724 6.584747
v 3.603419 2.100256 6.239932
v 3.603419 2.100256 6.532525
v 1.877029 3.713724 6.239932
v 1.877029 3.713724 6.532525
v 3.572981 2.060588 6.532525
v 3.572981 2.060588 6.584747
v 1.877029 3.663724 6.532525
v 1.877029 3.663724 6.584747
v 1.877029 3.663724 6.187710
v 3.572981 2.060588 6.187710
v 3.572981 2.060588 6.239932
v 1.877029 3.663724 6.239932
v 3.261380 1.958579 6.131043
v 3.603419 0.000000 6.131043
v 3.603419 0.000000 6.641413
v 3.603419 0.000000 6.187710
v 3.603419 0.000000 6.584747
v 3.603419 0.000000 6.239932
v 3.603419 0.000000 6.532525
v 3.553419 0.000000 6.532525
v 3.553419 0.000000 6.584747
v 3.553419 0.000000 6.187710
v 3.553419 0.000000 6.239932
v 3.261380 1.958579 6.641413
v 3.261380 0.000000 6.641413
v 3.261380 0.000000 6.131043
v 3.603419 2.100256 6.641413
v 1.877029 3.343503 6.641413
v 1.877029 3.343503 6.131043
v 1.877029 3.713724 6.131043
vt 0.206202 0.485424
vt 0.410887 0.000381
vt 0.422675 0.005229
vt 0.217629 0.485614
vt 0.322284 0.488711
vt 0.526417 0.969453
vt 0.514655 0.974366
vt 0.310854 0.488900
vt 0.643597 0.471685
vt 0.642294 0.989933
vt 0.578045 0.989720
vt 0.579549 0.471555
vt 0.676237 0.524922
vt 0.676237 0.013303
vt 0.687685 0.013303
vt 0.687690 0.524922
vt 0.664489 0.524922
vt 0.664489 0.013303
vt 0.675937 0.013303
vt 0.675942 0.524922
vt 0.504054 0.970437
vt 0.303949 0.485201
vt 0.569974 0.982175
vt 0.570770 0.466650
vt 0.199303 0.489118
vt 0.400280 0.004291
vt 0.652394 0.466818
vt 0.650407 0.982430
vt 0.404034 0.488713
vt 0.560002 0.894500
vt 0.299369 0.485615
vt 0.455992 0.080270
vt 0.373359 0.922266
vt 0.385322 0.917637
vt 0.489276 0.056528
vt 0.477317 0.052109
vt 0.644296 0.011462
vt 0.580092 0.011414
vt 0.676238 0.976846
vt 0.687690 0.976846
vt 0.664490 0.976846
vt 0.675942 0.976846
vt 0.466750 0.048059
vt 0.569046 0.011351
vt 0.362776 0.926525
vt 0.655347 0.011351
vt 0.455993 0.890285
vt 0.560002 0.083565
vn 0.6828 0.7306 0.0000
vn 0.6829 0.7305 0.0035
vn 0.6869 0.7267 0.0000
vn 0.0000 0.0000 1.0000
vn 0.0000 0.0000 -1.0000
vn 1.0000 0.0000 -0.0000
vn 1.0000 -0.0095 0.0000
s off
f 5/1/1 7/2/1 3/3/1 34/4/1
f 2/5/2 1/6/2 6/7/2 4/8/2
f 8/9/1 10/10/1 11/11/1 9/12/1
f 12/13/3 14/14/3 15/15/3 13/16/3
f 17/17/3 16/18/3 19/19/3 18/20/3
f 4/8/4 6/7/4 16/21/4 17/22/4
f 9/12/4 11/11/4 14/23/4 12/24/4
f 7/2/5 5/1/5 13/25/5 15/26/5
f 10/10/5 8/9/5 18/27/5 19/28/5
f 2/5/5 20/29/5 36/30/5 1/6/5
f 31/31/4 34/4/4 3/3/4 35/32/4
f 24/33/6 5/1/6 34/4/6 22/34/6
f 21/35/6 2/5/6 4/8/6 23/36/6
f 25/37/6 8/9/6 9/12/6 26/38/6
f 27/39/7 12/13/7 13/16/7 28/40/7
f 29/41/7 17/17/7 18/20/7 30/42/7
f 23/36/4 4/8/4 17/22/4 29/43/4
f 26/38/4 9/12/4 12/24/4 27/44/4
f 5/1/5 24/33/5 28/45/5 13/25/5
f 8/9/5 25/37/5 30/46/5 18/27/5
f 22/34/4 34/4/4 31/31/4 32/47/4
f 2/5/5 21/35/5 33/48/5 20/29/5
l 20 31
l 36 37
