# Blender v2.80 (sub 75) OBJ File: 'dipset.blend'
# www.blender.org
o beam_0.5x2_Cube.010
v -0.630353 2.000000 6.131043
v -0.630353 0.000000 6.131043
v -0.630353 2.000000 6.641413
v -0.630353 0.000000 6.641413
v -0.630353 0.000000 6.187710
v -0.630353 0.000000 6.584747
v -0.630353 2.000000 6.187710
v -0.630353 2.000000 6.584747
v -0.630353 0.000000 6.239932
v -0.630353 0.000000 6.532525
v -0.630353 2.000000 6.239932
v -0.630353 2.000000 6.532525
v -0.680353 0.000000 6.532525
v -0.680353 0.000000 6.584747
v -0.680353 2.000000 6.532525
v -0.680353 2.000000 6.584747
v -0.680353 2.000000 6.187710
v -0.680353 0.000000 6.187710
v -0.680353 0.000000 6.239932
v -0.680353 2.000000 6.239932
v -1.000000 2.000000 6.641413
v -1.000000 0.000000 6.641413
v -1.000000 2.000000 6.131043
v -1.000000 0.000000 6.131043
vt 0.601747 0.015386
vt 0.601748 0.989313
vt 0.574153 0.989313
vt 0.574154 0.015386
vt 0.682319 0.015707
vt 0.682319 0.989635
vt 0.654725 0.989635
vt 0.654727 0.015707
vt 0.171959 0.988629
vt 0.171958 0.014703
vt 0.314440 0.014703
vt 0.314442 0.988629
vt 0.365786 0.014930
vt 0.365786 0.988861
vt 0.340356 0.988861
vt 0.340356 0.014930
vt 0.392522 0.015002
vt 0.392522 0.988933
vt 0.367092 0.988933
vt 0.367092 0.015002
vt 0.630376 0.989635
vt 0.630379 0.015707
vt 0.338789 0.014703
vt 0.338789 0.988629
vt 0.626095 0.015386
vt 0.626095 0.989313
vt 0.147611 0.988629
vt 0.147611 0.014703
vt 0.394149 0.989313
vt 0.394150 0.015386
vt 0.862324 0.015707
vt 0.862324 0.989635
vn 1.0000 0.0000 0.0000
vn 0.0000 0.0000 1.0000
vn 0.0000 0.0000 -1.0000
s off
f 6/1/1 8/2/1 3/3/1 4/4/1
f 2/5/1 1/6/1 7/7/1 5/8/1
f 9/9/1 11/10/1 12/11/1 10/12/1
f 13/13/1 15/14/1 16/15/1 14/16/1
f 18/17/1 17/18/1 20/19/1 19/20/1
f 5/8/2 7/7/2 17/21/2 18/22/2
f 10/12/2 12/11/2 15/23/2 13/24/2
f 8/2/3 6/1/3 14/25/3 16/26/3
f 11/10/3 9/9/3 19/27/3 20/28/3
f 4/4/2 3/3/2 21/29/2 22/30/2
f 1/6/3 2/5/3 24/31/3 23/32/3
