# Blender v2.80 (sub 75) OBJ File: 'dipset.blend'
# www.blender.org
o beam_0.5x3_tri_Cube.011
v 5.500000 3.000000 6.131043
v 5.500000 0.000000 6.131043
v 5.500000 3.000000 6.641413
v 5.500000 0.000000 6.641413
v 5.500000 0.000000 6.187710
v 5.500000 0.000000 6.584747
v 5.500000 3.000000 6.187710
v 5.500000 3.000000 6.584747
v 5.500000 0.000000 6.239932
v 5.500000 0.000000 6.532525
v 5.500000 3.000000 6.239932
v 5.500000 3.000000 6.532525
v 5.450000 0.000000 6.532525
v 5.450000 0.000000 6.584747
v 5.450000 3.000000 6.532525
v 5.450000 3.000000 6.584747
v 5.450000 3.000000 6.187710
v 5.450000 0.000000 6.187710
v 5.450000 0.000000 6.239932
v 5.450000 3.000000 6.239932
v 5.130353 0.000000 6.641413
v 5.130353 3.000000 6.131043
v 5.130353 0.000000 6.131043
v 5.130353 3.000000 6.641413
v 5.130353 3.419647 6.239932
v 5.130353 3.419647 6.187710
v 5.130353 3.419647 6.584747
v 5.130353 3.419647 6.532525
v 5.130353 3.469647 6.532525
v 5.130353 3.469647 6.239932
v 5.130353 3.469647 6.584747
v 5.130353 3.469647 6.187710
v 5.130353 3.469647 6.641413
v 5.130353 3.469647 6.131043
vt 0.976964 0.404401
vt 0.144552 0.402986
vt 0.149015 0.389320
vt 0.977070 0.388566
vt 0.977072 0.448456
vt 0.149015 0.447702
vt 0.144553 0.434035
vt 0.976966 0.432620
vt 0.008280 0.564746
vt 0.831294 0.565864
vt 0.831232 0.645742
vt 0.008234 0.645086
vt 0.973524 0.677040
vt 0.154640 0.677038
vt 0.154640 0.662783
vt 0.973524 0.662783
vt 0.973524 0.691552
vt 0.154640 0.691550
vt 0.154640 0.677295
vt 0.973524 0.677295
vt 0.137883 0.425084
vt 0.976858 0.418639
vt 0.835422 0.657977
vt 0.008249 0.658870
vt 0.976856 0.418384
vt 0.137882 0.411936
vt 0.008244 0.550952
vt 0.835504 0.553636
vt 0.147113 0.287948
vt 0.977070 0.286326
vt 0.977072 0.550696
vt 0.147113 0.549073
vt 0.017387 0.293305
vt 0.017387 0.543716
vt 0.008234 0.530098
vt 0.012287 0.515992
vt 0.010647 0.691550
vt 0.010647 0.677295
vt 0.983536 0.556953
vt 0.994412 0.565755
vt 0.994412 0.646021
vt 0.983521 0.654815
vt 0.010647 0.677038
vt 0.010647 0.662783
vt 0.012287 0.321028
vt 0.008234 0.306923
vn 1.0000 0.0000 0.0000
vn 0.0000 0.0000 1.0000
vn 0.0000 0.0000 -1.0000
vn 0.7858 0.6185 0.0000
vn 0.7955 0.6059 0.0000
s off
f 6/1/1 8/2/1 3/3/1 4/4/1
f 2/5/1 1/6/1 7/7/1 5/8/1
f 9/9/1 11/10/1 12/11/1 10/12/1
f 13/13/1 15/14/1 16/15/1 14/16/1
f 18/17/1 17/18/1 20/19/1 19/20/1
f 5/8/2 7/7/2 17/21/2 18/22/2
f 10/12/2 12/11/2 15/23/2 13/24/2
f 8/2/3 6/1/3 14/25/3 16/26/3
f 11/10/3 9/9/3 19/27/3 20/28/3
f 4/4/2 3/3/2 24/29/2 21/30/2
f 1/6/3 2/5/3 23/31/3 22/32/3
f 24/29/2 3/3/2 33/33/2
f 34/34/3 1/6/3 22/32/3
f 1/6/4 34/34/4 32/35/4 7/7/4
f 7/7/2 32/35/2 26/36/2 17/21/2
f 17/18/5 26/37/5 25/38/5 20/19/5
f 20/28/3 25/39/3 30/40/3 11/10/3
f 11/10/4 30/40/4 29/41/4 12/11/4
f 12/11/2 29/41/2 28/42/2 15/23/2
f 15/14/5 28/43/5 27/44/5 16/15/5
f 16/26/3 27/45/3 31/46/3 8/2/3
f 8/2/4 31/46/4 33/33/4 3/3/4
