# Blender v2.80 (sub 75) OBJ File: 'dipset.blend'
# www.blender.org
o wall2_4x4_corner_Cube.057
v 2.585787 2.000000 -20.000000
v 2.585787 0.000000 -20.000000
v 4.585787 2.000000 -20.000000
v 4.585787 0.000000 -20.000000
v 4.585787 1.656863 -20.000000
v 4.585787 1.754902 -20.000000
v 2.585787 1.656863 -20.000000
v 2.585787 1.754902 -20.000000
v 2.585787 1.637255 -20.000000
v 2.585787 1.539216 -20.000000
v 4.585787 1.637255 -20.000000
v 4.585787 1.539216 -20.000000
v 4.585787 1.519608 -20.000000
v 4.585787 1.421569 -20.000000
v 2.585787 1.519608 -20.000000
v 2.585787 1.421569 -20.000000
v 4.585787 1.401961 -20.000000
v 4.585787 1.303921 -20.000000
v 2.585787 1.401961 -20.000000
v 2.585787 1.303921 -20.000000
v 4.585787 1.284314 -20.000000
v 4.585787 1.186275 -20.000000
v 2.585787 1.284314 -20.000000
v 2.585787 1.186275 -20.000000
v 4.585787 1.166667 -20.000000
v 2.585787 1.166667 -20.000000
v 2.585787 1.068627 -20.000000
v 4.585787 1.049020 -20.000000
v 4.585787 0.950981 -20.000000
v 2.585787 1.049020 -20.000000
v 2.585787 0.950981 -20.000000
v 4.585787 0.931373 -20.000000
v 4.585787 0.833333 -20.000000
v 2.585787 0.931373 -20.000000
v 2.585787 0.833333 -20.000000
v 4.585787 0.813726 -20.000000
v 4.585787 0.715686 -20.000000
v 2.585787 0.813726 -20.000000
v 2.585787 0.715686 -20.000000
v 4.585787 0.696079 -20.000000
v 4.585787 0.598039 -20.000000
v 2.585787 0.696079 -20.000000
v 2.585787 0.598039 -20.000000
v 4.585787 0.578431 -20.000000
v 4.585787 0.480392 -20.000000
v 2.585787 0.578431 -20.000000
v 2.585787 0.480392 -20.000000
v 4.585787 0.460784 -20.000000
v 4.585787 0.362745 -20.000000
v 2.585787 0.460784 -20.000000
v 2.585787 0.362745 -20.000000
v 2.585787 0.343137 -20.000000
v 2.585787 0.245098 -20.000000
v 4.585787 0.343137 -20.000000
v 4.585787 0.245098 -20.000000
v 4.585787 1.774510 -20.000000
v 2.585787 1.774510 -20.000000
v 2.585787 0.225490 -20.000000
v 4.585787 0.225490 -20.000000
v 2.585787 1.754902 -20.020000
v 4.593787 0.362745 -20.020000
v 4.593787 0.480392 -20.020000
v 4.593787 0.598039 -20.020000
v 4.593787 0.715686 -20.020000
v 4.593787 0.833333 -20.020000
v 4.593787 0.950981 -20.020000
v 4.593787 1.068627 -20.020000
v 4.593787 1.186275 -20.020000
v 4.593787 1.303921 -20.020000
v 4.593787 1.421569 -20.020000
v 2.585787 1.068627 -20.020000
v 2.585787 1.303921 -20.020000
v 2.585787 0.598039 -20.020000
v 2.585787 0.715686 -20.020000
v 2.585787 1.656863 -20.020000
v 2.585787 1.539216 -20.020000
v 2.585787 0.833333 -20.020000
v 2.585787 0.950981 -20.020000
v 4.593787 1.539216 -20.020000
v 4.593787 1.656863 -20.020000
v 4.593787 1.774510 -20.020000
v 2.585787 0.245098 -20.020000
v 2.585787 0.362745 -20.020000
v 2.585787 0.480392 -20.020000
v 2.585787 1.186275 -20.020000
v 2.585787 1.421569 -20.020000
v 2.585787 1.774510 -20.020000
v 4.593787 1.754902 -20.020000
v 4.593787 0.245098 -20.020000
v 2.585787 1.637255 -20.020000
v 4.593787 1.637255 -20.020000
v 4.593787 1.519608 -20.020000
v 2.585787 1.519608 -20.020000
v 4.593787 1.401961 -20.020000
v 2.585787 1.401961 -20.020000
v 4.593787 1.284314 -20.020000
v 2.585787 1.284314 -20.020000
v 4.593787 1.166667 -20.020000
v 2.585787 1.166667 -20.020000
v 4.593787 1.049020 -20.020000
v 2.585787 1.049020 -20.020000
v 4.593787 0.931373 -20.020000
v 2.585787 0.931373 -20.020000
v 4.593787 0.813726 -20.020000
v 2.585787 0.813726 -20.020000
v 4.593787 0.696079 -20.020000
v 2.585787 0.696079 -20.020000
v 4.593787 0.578431 -20.020000
v 2.585787 0.578431 -20.020000
v 4.593787 0.460784 -20.020000
v 2.585787 0.460784 -20.020000
v 2.585787 0.343137 -20.020000
v 4.593787 0.343137 -20.020000
v 2.585787 0.225490 -20.020000
v 4.593787 0.225490 -20.020000
v 6.000000 2.000000 -18.585785
v 6.000000 0.000000 -18.585785
v 6.000000 2.000000 -16.585785
v 6.000000 0.000000 -16.585785
v 6.000000 1.656863 -16.585785
v 6.000000 1.754902 -16.585785
v 6.000000 1.656863 -18.585785
v 6.000000 1.754902 -18.585785
v 6.000000 1.637255 -18.585785
v 6.000000 1.539216 -18.585785
v 6.000000 1.637255 -16.585785
v 6.000000 1.539216 -16.585785
v 6.000000 1.519608 -16.585785
v 6.000000 1.421569 -16.585785
v 6.000000 1.519608 -18.585785
v 6.000000 1.421569 -18.585785
v 6.000000 1.401961 -16.585785
v 6.000000 1.303921 -16.585785
v 6.000000 1.401961 -18.585785
v 6.000000 1.303921 -18.585785
v 6.000000 1.284314 -16.585785
v 6.000000 1.186275 -16.585785
v 6.000000 1.166667 -16.585785
v 6.000000 1.068627 -16.585785
v 6.000000 1.068627 -18.585785
v 6.000000 1.049020 -16.585785
v 6.000000 0.950981 -16.585785
v 6.000000 0.931373 -16.585785
v 6.000000 0.833333 -16.585785
v 6.000000 0.931373 -18.585785
v 6.000000 0.833333 -18.585785
v 6.000000 0.813726 -16.585785
v 6.000000 0.715686 -16.585785
v 6.000000 0.813726 -18.585785
v 6.000000 0.715686 -18.585785
v 6.000000 0.696079 -16.585785
v 6.000000 0.598039 -16.585785
v 6.000000 0.696079 -18.585785
v 6.000000 0.598039 -18.585785
v 6.000000 0.578431 -16.585785
v 6.000000 0.480392 -16.585785
v 6.000000 0.578431 -18.585785
v 6.000000 0.480392 -18.585785
v 6.000000 0.460784 -16.585785
v 6.000000 0.362745 -16.585785
v 6.000000 0.343137 -16.585785
v 6.000000 0.245098 -16.585785
v 6.000000 1.774510 -16.585785
v 6.000000 1.774510 -18.585785
v 6.000000 0.225490 -18.585785
v 6.000000 0.225490 -16.585785
v 6.020000 0.362745 -16.585785
v 6.020000 0.480392 -16.585785
v 6.020000 0.598039 -16.585785
v 6.020000 0.715686 -16.585785
v 6.020000 0.833333 -16.585785
v 6.020000 0.950981 -16.585785
v 6.020000 1.068627 -16.585785
v 6.020000 1.186275 -16.585785
v 6.020000 1.303921 -16.585785
v 6.020000 1.421569 -16.585785
v 6.020000 1.539216 -16.585785
v 6.020000 1.656863 -16.585785
v 6.020000 1.774510 -16.585785
v 6.020000 1.754902 -16.585785
v 6.020000 0.245098 -16.585785
v 6.020000 1.637255 -16.585785
v 6.020000 1.519608 -16.585785
v 6.020000 1.401961 -16.585785
v 6.020000 1.284314 -16.585785
v 6.020000 1.166667 -16.585785
v 6.020000 1.049020 -16.585785
v 6.020000 1.049020 -18.592785
v 6.020000 0.931373 -16.585785
v 6.020000 0.813726 -16.585785
v 6.020000 0.696079 -16.585785
v 6.020000 0.578431 -16.585785
v 6.020000 0.460784 -16.585785
v 6.020000 0.343137 -16.585785
v 6.020000 0.225490 -16.585785
v 6.000000 1.284314 -18.585785
v 6.000000 1.186275 -18.585785
v 6.000000 1.166667 -18.585785
v 4.585787 1.068627 -20.000000
v 6.000000 1.049020 -18.585785
v 6.000000 0.950981 -18.585785
v 6.000000 0.460784 -18.585785
v 6.000000 0.362745 -18.585785
v 6.000000 0.343137 -18.585785
v 6.000000 0.245098 -18.585785
v 6.020000 0.362745 -18.592785
v 6.020000 0.480392 -18.592785
v 6.020000 0.598039 -18.592785
v 6.020000 0.715686 -18.592785
v 6.020000 0.833333 -18.592785
v 6.020000 0.950981 -18.592785
v 6.020000 1.068627 -18.592785
v 6.020000 1.186275 -18.592785
v 6.020000 1.303921 -18.592785
v 6.020000 1.421569 -18.592785
v 6.020000 1.539216 -18.592785
v 6.020000 1.656863 -18.592785
v 6.020000 1.774510 -18.592785
v 6.020000 1.754902 -18.592785
v 6.020000 0.245098 -18.592785
v 6.020000 1.637255 -18.592785
v 6.020000 1.519608 -18.592785
v 6.020000 1.401961 -18.592785
v 6.020000 1.284314 -18.592785
v 6.020000 1.166667 -18.592785
v 6.020000 0.931373 -18.592785
v 6.020000 0.813726 -18.592785
v 6.020000 0.696079 -18.592785
v 6.020000 0.578431 -18.592785
v 6.020000 0.460784 -18.592785
v 6.020000 0.343137 -18.592785
v 6.020000 0.225490 -18.592785
vt 0.960280 0.976713
vt 0.960280 0.984050
vt 0.956766 0.984050
vt 0.956766 0.976713
vt 0.956628 0.976713
vt 0.956627 0.984050
vt 0.953113 0.984050
vt 0.953113 0.976713
vt 0.989915 0.976397
vt 0.664669 0.970894
vt 0.664817 0.886895
vt 0.990185 0.892291
vt 0.665663 0.336013
vt 0.994133 0.339519
vt 0.993999 0.347065
vt 0.665413 0.343431
vt 0.994325 0.302558
vt 0.665700 0.299219
vt 0.665480 0.291778
vt 0.994460 0.294994
vt 0.990419 0.833582
vt 0.664894 0.828290
vt 0.664671 0.820872
vt 0.990459 0.826154
vt 0.988236 0.984774
vt 0.985037 0.984774
vt 0.985037 0.976713
vt 0.988236 0.976713
vt 0.665188 0.630165
vt 0.991597 0.635103
vt 0.991515 0.642552
vt 0.664944 0.637570
vt 0.991763 0.598431
vt 0.665242 0.593522
vt 0.665025 0.586090
vt 0.991847 0.590975
vt 0.990289 0.870144
vt 0.664837 0.864840
vt 0.977910 0.984774
vt 0.974711 0.984774
vt 0.974711 0.976713
vt 0.977910 0.976714
vt 0.990692 0.774855
vt 0.990553 0.811436
vt 0.664919 0.806223
vt 0.664975 0.769652
vt 0.974573 0.976713
vt 0.974573 0.984050
vt 0.971059 0.984050
vt 0.971059 0.976713
vt 0.991007 0.716098
vt 0.990859 0.752702
vt 0.665005 0.747571
vt 0.665061 0.710978
vt 0.665574 0.394914
vt 0.993553 0.398884
vt 0.993430 0.406403
vt 0.665324 0.402331
vt 0.991365 0.657297
vt 0.991207 0.693932
vt 0.665095 0.688885
vt 0.665150 0.652270
vt 0.967269 0.984774
vt 0.964070 0.984774
vt 0.964070 0.976713
vt 0.967269 0.976713
vt 0.984899 0.976713
vt 0.984899 0.984050
vt 0.981385 0.984050
vt 0.981385 0.976713
vt 0.992202 0.539485
vt 0.992027 0.576201
vt 0.665284 0.571409
vt 0.665337 0.534739
vt 0.993745 0.361994
vt 0.665616 0.358153
vt 0.665398 0.350712
vt 0.993870 0.354458
vt 0.992680 0.480437
vt 0.992499 0.517205
vt 0.665383 0.512611
vt 0.665433 0.475912
vt 0.970921 0.976713
vt 0.970921 0.984050
vt 0.967407 0.984050
vt 0.967407 0.976713
vt 0.993195 0.421280
vt 0.993008 0.458107
vt 0.665479 0.453780
vt 0.665526 0.417052
vt 0.665879 0.159094
vt 0.995133 0.160691
vt 0.995153 0.168263
vt 0.665630 0.166524
vt 0.994933 0.242957
vt 0.994742 0.279997
vt 0.665746 0.277076
vt 0.665775 0.240252
vt 0.995203 0.183264
vt 0.995196 0.220324
vt 0.665818 0.218107
vt 0.665838 0.181258
vt 0.995141 0.123652
vt 0.665891 0.122236
vt 0.665669 0.114786
vt 0.995123 0.116086
vt 0.665682 0.107492
vt 0.995110 0.108669
vt 0.995137 0.015972
vt 0.995100 0.101105
vt 0.665930 0.100055
vt 0.665913 0.015227
vt 0.665495 0.284497
vt 0.994599 0.287573
vt 0.990250 0.877574
vt 0.990216 0.884862
vt 0.664593 0.879481
vt 0.664600 0.872228
vt 0.990505 0.818866
vt 0.664679 0.813615
vt 0.992297 0.532010
vt 0.665120 0.527298
vt 0.665135 0.520022
vt 0.992395 0.524683
vt 0.992786 0.472949
vt 0.665215 0.468473
vt 0.665231 0.461195
vt 0.992894 0.465603
vt 0.993310 0.413770
vt 0.665308 0.409611
vt 0.995077 0.235361
vt 0.665553 0.232811
vt 0.665568 0.225529
vt 0.995225 0.227907
vt 0.665039 0.578817
vt 0.991935 0.583663
vt 0.991438 0.649853
vt 0.664931 0.644840
vt 0.991069 0.708662
vt 0.664841 0.703552
vt 0.664852 0.696286
vt 0.991136 0.701372
vt 0.990799 0.760136
vt 0.990744 0.767425
vt 0.664754 0.762229
vt 0.664764 0.754968
vt 0.995176 0.175689
vt 0.665616 0.173812
vt 0.995225 0.976713
vt 0.995224 0.984050
vt 0.991710 0.984050
vt 0.991710 0.976713
vt 0.991572 0.984774
vt 0.988374 0.984774
vt 0.988374 0.976713
vt 0.991572 0.976713
vt 0.963932 0.976713
vt 0.963932 0.984050
vt 0.960418 0.984050
vt 0.960418 0.976713
vt 0.981247 0.984774
vt 0.978048 0.984774
vt 0.978048 0.976713
vt 0.981247 0.976713
vt 0.952976 0.976713
vt 0.952976 0.984050
vt 0.949461 0.984050
vt 0.949461 0.976713
vt 0.949323 0.976713
vt 0.949323 0.984050
vt 0.945809 0.984050
vt 0.945809 0.976713
vt 0.340476 0.970085
vt 0.015628 0.976396
vt 0.015318 0.892393
vt 0.340344 0.886122
vt 0.011072 0.340775
vt 0.339416 0.337018
vt 0.339261 0.344329
vt 0.011215 0.348301
vt 0.339360 0.300211
vt 0.011045 0.303844
vt 0.011082 0.296305
vt 0.339172 0.292889
vt 0.340272 0.827729
vt 0.015064 0.833802
vt 0.015021 0.826400
vt 0.340089 0.820428
vt 0.013800 0.635789
vt 0.339965 0.630326
vt 0.339805 0.637627
vt 0.013887 0.643210
vt 0.339903 0.593664
vt 0.013618 0.599166
vt 0.013529 0.591738
vt 0.339715 0.586343
vt 0.340325 0.864285
vt 0.015209 0.870311
vt 0.340190 0.769284
vt 0.340246 0.805867
vt 0.014922 0.811728
vt 0.014768 0.775201
vt 0.340101 0.710791
vt 0.340159 0.747400
vt 0.014592 0.753123
vt 0.014429 0.716572
vt 0.011695 0.400047
vt 0.339526 0.395738
vt 0.339370 0.403048
vt 0.011828 0.407544
vt 0.340005 0.652249
vt 0.340065 0.688884
vt 0.014218 0.694484
vt 0.014046 0.657902
vt 0.339796 0.535039
vt 0.339859 0.571729
vt 0.013337 0.577015
vt 0.013147 0.540346
vt 0.339466 0.358957
vt 0.011488 0.363193
vt 0.011354 0.355678
vt 0.339277 0.351640
vt 0.339687 0.476378
vt 0.339749 0.513097
vt 0.012830 0.518146
vt 0.012633 0.481424
vt 0.339575 0.417681
vt 0.339637 0.454432
vt 0.012282 0.459165
vt 0.012079 0.422379
vt 0.011195 0.162761
vt 0.339111 0.160708
vt 0.338954 0.168031
vt 0.011187 0.170276
vt 0.339259 0.241447
vt 0.339312 0.278259
vt 0.011142 0.281377
vt 0.011117 0.244476
vt 0.339161 0.182671
vt 0.339211 0.219487
vt 0.011183 0.222046
vt 0.011157 0.185167
vt 0.339062 0.123890
vt 0.011168 0.125898
vt 0.011175 0.118385
vt 0.338870 0.116571
vt 0.011178 0.111017
vt 0.338852 0.109253
vt 0.338917 0.017263
vt 0.339009 0.101930
vt 0.011176 0.103505
vt 0.011104 0.018735
vt 0.011114 0.288912
vt 0.339156 0.285575
vt 0.340159 0.871556
vt 0.340165 0.878829
vt 0.015286 0.884987
vt 0.015250 0.877717
vt 0.340081 0.813146
vt 0.014974 0.819132
vt 0.339608 0.527716
vt 0.013046 0.532901
vt 0.012941 0.525598
vt 0.339592 0.520405
vt 0.339497 0.469055
vt 0.012520 0.473960
vt 0.012404 0.466636
vt 0.339482 0.461742
vt 0.339386 0.410361
vt 0.011955 0.414891
vt 0.339070 0.234124
vt 0.011143 0.236949
vt 0.011166 0.229569
vt 0.339054 0.226807
vt 0.013436 0.584450
vt 0.339701 0.579034
vt 0.339818 0.644932
vt 0.013969 0.650485
vt 0.339915 0.703479
vt 0.014364 0.709164
vt 0.014294 0.701897
vt 0.339904 0.696179
vt 0.339996 0.754688
vt 0.340006 0.761977
vt 0.014715 0.767798
vt 0.014656 0.760529
vt 0.338970 0.175350
vt 0.011175 0.177650
vt 0.665947 0.343423
vt 0.666015 0.291791
vt 0.665202 0.820888
vt 0.665477 0.637564
vt 0.665557 0.586104
vt 0.665858 0.402323
vt 0.665932 0.350725
vt 0.666165 0.166514
vt 0.666204 0.114797
vt 0.666217 0.107481
vt 0.666030 0.284489
vt 0.665131 0.872222
vt 0.665124 0.879498
vt 0.665211 0.813608
vt 0.665653 0.527311
vt 0.665668 0.520015
vt 0.665749 0.468487
vt 0.665764 0.461188
vt 0.665842 0.409625
vt 0.666089 0.232823
vt 0.666103 0.225520
vt 0.665571 0.578811
vt 0.665463 0.644854
vt 0.665373 0.703568
vt 0.665384 0.696281
vt 0.665296 0.754961
vt 0.665285 0.762245
vt 0.666152 0.173823
vn 0.9285 0.0000 0.3714
vn 0.0000 0.0000 -1.0000
vn 0.0000 -1.0000 0.0000
vn 0.0000 1.0000 0.0000
vn 1.0000 0.0000 0.0000
vn 0.7071 0.0000 -0.7071
vn 0.7074 0.0000 -0.7069
s off
f 49/1/1 54/2/1 113/3/1 61/4/1
f 41/5/1 44/6/1 108/7/1 63/8/1
f 1/9/2 3/10/2 56/11/2 57/12/2
f 40/13/3 42/14/3 107/15/3 106/16/3
f 43/17/4 41/18/4 63/19/4 73/20/4
f 7/21/4 5/22/4 80/23/4 75/24/4
f 22/25/1 25/26/1 98/27/1 68/28/1
f 21/29/3 23/30/3 97/31/3 96/32/3
f 24/33/4 22/34/4 68/35/4 85/36/4
f 7/21/2 8/37/2 6/38/2 5/22/2
f 56/39/1 6/40/1 88/41/1 81/42/1
f 10/43/2 9/44/2 11/45/2 12/46/2
f 37/47/1 40/48/1 106/49/1 64/50/1
f 16/51/2 15/52/2 13/53/2 14/54/2
f 36/55/3 38/56/3 105/57/3 104/58/3
f 20/59/2 19/60/2 17/61/2 18/62/2
f 5/63/1 11/64/1 91/65/1 80/66/1
f 24/33/2 23/30/2 21/29/2 22/34/2
f 12/67/1 13/68/1 92/69/1 79/70/1
f 27/71/2 26/72/2 25/73/2 199/74/2
f 39/75/4 37/76/4 64/77/4 74/78/4
f 31/79/2 30/80/2 28/81/2 29/82/2
f 18/83/1 21/84/1 96/85/1 69/86/1
f 35/87/2 34/88/2 32/89/2 33/90/2
f 54/91/3 52/92/3 112/93/3 113/94/3
f 39/75/2 38/56/2 36/55/2 37/76/2
f 43/17/2 42/14/2 40/13/2 41/18/2
f 47/95/2 46/96/2 44/97/2 45/98/2
f 51/99/2 50/100/2 48/101/2 49/102/2
f 53/103/4 55/104/4 89/105/4 82/106/4
f 53/103/2 52/92/2 54/91/2 55/104/2
f 82/106/2 89/105/2 115/107/2 114/108/2
f 2/109/2 58/110/2 59/111/2 4/112/2
f 73/20/2 63/19/2 108/113/2 109/114/2
f 74/78/2 64/77/2 106/16/2 107/15/2
f 60/115/2 87/116/2 81/117/2 88/118/2
f 90/119/2 75/24/2 80/23/2 91/120/2
f 71/121/2 67/122/2 100/123/2 101/124/2
f 78/125/2 66/126/2 102/127/2 103/128/2
f 77/129/2 65/130/2 104/58/2 105/57/2
f 84/131/2 62/132/2 110/133/2 111/134/2
f 85/36/2 68/35/2 98/135/2 99/136/2
f 72/137/2 69/138/2 96/32/2 97/31/2
f 86/139/2 70/140/2 94/141/2 95/142/2
f 93/143/2 76/144/2 79/145/2 92/146/2
f 83/147/2 61/148/2 113/94/2 112/93/2
f 27/71/4 199/74/4 67/122/4 71/121/4
f 25/73/3 26/72/3 99/136/3 98/135/3
f 45/149/1 48/150/1 110/151/1 62/152/1
f 57/12/4 56/11/4 81/117/4 87/116/4
f 199/153/1 28/154/1 100/155/1 67/156/1
f 10/43/4 12/46/4 79/145/4 76/144/4
f 11/45/3 9/44/3 90/119/3 91/120/3
f 47/95/4 45/98/4 62/132/4 84/131/4
f 33/157/1 36/158/1 104/159/1 65/160/1
f 55/161/1 59/162/1 115/163/1 89/164/1
f 44/97/3 46/96/3 109/114/3 108/113/3
f 29/165/1 32/166/1 102/167/1 66/168/1
f 14/169/1 17/170/1 94/171/1 70/172/1
f 31/79/4 29/82/4 66/126/4 78/125/4
f 28/81/3 30/80/3 101/124/3 100/123/3
f 16/51/4 14/54/4 70/140/4 86/139/4
f 6/38/3 8/37/3 60/115/3 88/118/3
f 59/111/3 58/110/3 114/108/3 115/107/3
f 13/53/3 15/52/3 93/143/3 92/146/3
f 51/99/4 49/102/4 61/148/4 83/147/4
f 48/101/3 50/100/3 111/134/3 110/133/3
f 35/87/4 33/90/4 65/130/4 77/129/4
f 32/89/3 34/88/3 103/128/3 102/127/3
f 20/59/4 18/62/4 69/138/4 72/137/4
f 17/61/3 19/60/3 95/142/3 94/141/3
f 116/173/5 118/174/5 163/175/5 164/176/5
f 151/177/3 153/178/3 228/179/3 191/180/3
f 154/181/4 152/182/4 169/183/4 208/184/4
f 122/185/4 120/186/4 178/187/4 217/188/4
f 136/189/3 196/190/3 224/191/3 185/192/3
f 197/193/4 137/194/4 174/195/4 213/196/4
f 122/185/5 123/197/5 121/198/5 120/186/5
f 125/199/5 124/200/5 126/201/5 127/202/5
f 131/203/5 130/204/5 128/205/5 129/206/5
f 147/207/3 149/208/3 227/209/3 190/210/3
f 135/211/5 134/212/5 132/213/5 133/214/5
f 197/193/5 196/190/5 136/189/5 137/194/5
f 140/215/5 198/216/5 138/217/5 139/218/5
f 150/219/4 148/220/4 170/221/4 209/222/4
f 201/223/5 200/224/5 141/225/5 142/226/5
f 146/227/5 145/228/5 143/229/5 144/230/5
f 161/231/3 204/232/3 231/233/3 194/234/3
f 150/219/5 149/208/5 147/207/5 148/220/5
f 154/181/5 153/178/5 151/177/5 152/182/5
f 158/235/5 157/236/5 155/237/5 156/238/5
f 203/239/5 202/240/5 159/241/5 160/242/5
f 205/243/4 162/244/4 181/245/4 220/246/4
f 205/243/5 204/232/5 161/231/5 162/244/5
f 220/246/5 181/245/5 195/247/5 232/248/5
f 117/249/5 165/250/5 166/251/5 119/252/5
f 208/184/5 169/183/5 192/253/5 229/254/5
f 209/222/5 170/221/5 191/180/5 228/179/5
f 219/255/5 218/256/5 179/257/5 180/258/5
f 221/259/5 217/188/5 178/187/5 182/260/5
f 212/261/5 173/262/5 187/263/5 188/264/5
f 211/265/5 172/266/5 189/267/5 226/268/5
f 210/269/5 171/270/5 190/210/5 227/209/5
f 207/271/5 168/272/5 193/273/5 230/274/5
f 213/196/5 174/195/5 186/275/5 225/276/5
f 214/277/5 175/278/5 185/192/5 224/191/5
f 215/279/5 176/280/5 184/281/5 223/282/5
f 222/283/5 216/284/5 177/285/5 183/286/5
f 206/287/5 167/288/5 194/234/5 231/233/5
f 140/215/4 139/218/4 173/262/4 212/261/4
f 138/217/3 198/216/3 225/276/3 186/275/3
f 164/176/4 163/175/4 179/257/4 218/256/4
f 125/199/4 127/202/4 177/285/4 216/284/4
f 126/201/3 124/200/3 221/259/3 182/260/3
f 158/235/4 156/238/4 168/272/4 207/271/4
f 155/237/3 157/236/3 229/254/3 192/253/3
f 201/223/4 142/226/4 172/266/4 211/265/4
f 141/225/3 200/224/3 188/264/3 187/263/3
f 131/203/4 129/206/4 176/280/4 215/279/4
f 121/198/3 123/197/3 219/255/3 180/258/3
f 166/251/3 165/250/3 232/248/3 195/247/3
f 128/205/3 130/204/3 222/283/3 183/286/3
f 203/239/4 160/242/4 167/288/4 206/287/4
f 159/241/3 202/240/3 230/274/3 193/273/3
f 146/227/4 144/230/4 171/270/4 210/269/4
f 143/229/3 145/228/3 226/268/3 189/267/3
f 135/211/4 133/214/4 175/278/4 214/277/4
f 132/213/3 134/212/3 223/282/3 184/281/3
f 3/10/6 116/173/6 164/176/6 56/11/6
f 153/178/3 40/13/3 106/289/3 228/179/3
f 41/18/4 154/181/4 208/184/4 63/290/4
f 5/22/4 122/185/4 217/188/4 80/291/4
f 196/190/3 21/29/3 96/292/3 224/191/3
f 22/34/4 197/193/4 213/196/4 68/293/4
f 5/22/6 6/38/6 123/197/6 122/185/6
f 12/46/6 11/45/6 124/200/6 125/199/6
f 14/54/6 13/53/6 130/204/6 131/203/6
f 149/208/3 36/55/3 104/294/3 227/209/3
f 18/62/6 17/61/6 134/212/6 135/211/6
f 22/34/6 21/29/6 196/190/6 197/193/6
f 199/74/6 25/73/6 198/216/6 140/215/6
f 37/76/4 150/219/4 209/222/4 64/295/4
f 29/82/6 28/81/6 200/224/6 201/223/6
f 33/90/6 32/89/6 145/228/6 146/227/6
f 204/232/3 54/91/3 113/296/3 231/233/3
f 37/76/6 36/55/6 149/208/6 150/219/6
f 41/18/6 40/13/6 153/178/6 154/181/6
f 45/98/6 44/97/6 157/236/6 158/235/6
f 49/102/6 48/101/6 202/240/6 203/239/6
f 55/104/4 205/243/4 220/246/4 89/297/4
f 55/104/6 54/91/6 204/232/6 205/243/6
f 89/297/7 220/246/7 232/248/7 115/298/7
f 4/112/6 59/111/6 165/250/6 117/249/6
f 63/290/7 208/184/7 229/254/7 108/299/7
f 64/295/7 209/222/7 228/179/7 106/289/7
f 88/300/7 81/301/7 218/256/7 219/255/7
f 91/302/7 80/291/7 217/188/7 221/259/7
f 67/303/7 212/261/7 188/264/7 100/304/7
f 66/305/7 211/265/7 226/268/7 102/306/7
f 65/307/7 210/269/7 227/209/7 104/294/7
f 62/308/7 207/271/7 230/274/7 110/309/7
f 68/293/7 213/196/7 225/276/7 98/310/7
f 69/311/7 214/277/7 224/191/7 96/292/7
f 70/312/7 215/279/7 223/282/7 94/313/7
f 92/314/7 79/315/7 216/284/7 222/283/7
f 61/316/7 206/287/7 231/233/7 113/296/7
f 199/74/4 140/215/4 212/261/4 67/303/4
f 198/216/3 25/73/3 98/310/3 225/276/3
f 56/11/4 164/176/4 218/256/4 81/301/4
f 12/46/4 125/199/4 216/284/4 79/315/4
f 124/200/3 11/45/3 91/302/3 221/259/3
f 45/98/4 158/235/4 207/271/4 62/308/4
f 157/236/3 44/97/3 108/299/3 229/254/3
f 29/82/4 201/223/4 211/265/4 66/305/4
f 200/224/3 28/81/3 100/304/3 188/264/3
f 14/54/4 131/203/4 215/279/4 70/312/4
f 123/197/3 6/38/3 88/300/3 219/255/3
f 165/250/3 59/111/3 115/298/3 232/248/3
f 130/204/3 13/53/3 92/314/3 222/283/3
f 49/102/4 203/239/4 206/287/4 61/316/4
f 202/240/3 48/101/3 110/309/3 230/274/3
f 33/90/4 146/227/4 210/269/4 65/307/4
f 145/228/3 32/89/3 102/306/3 226/268/3
f 18/62/4 135/211/4 214/277/4 69/311/4
f 134/212/3 17/61/3 94/313/3 223/282/3
