# Blender v2.80 (sub 75) OBJ File: 'dipset.blend'
# www.blender.org
o wall4b_2x2.004_Cube.041
v 3.000000 0.000000 -1.000000
v 3.000000 0.000000 1.000000
v 3.000000 0.000000 -0.933333
v 3.000000 0.000000 0.933333
v 3.000000 1.958579 -0.933333
v 3.000000 1.958579 0.933333
v 3.000000 0.000000 -0.821111
v 3.000000 0.000000 0.821111
v 3.000000 1.958579 -0.821111
v 3.000000 1.958579 0.821111
v 2.950000 0.000000 0.821111
v 2.950000 0.000000 0.933333
v 2.950000 1.937868 0.821111
v 2.950000 1.937868 0.933333
v 2.950000 0.000000 -0.933333
v 2.950000 0.000000 -0.821111
v 3.000000 0.000000 -0.510555
v 3.000000 0.000000 0.510555
v 3.000000 1.958579 -0.510555
v 3.092388 0.000000 -0.373704
v 3.092388 0.000000 0.373704
v 3.092388 1.996847 -0.373704
v 3.092388 1.996847 0.373704
v 2.951593 1.936275 -0.821111
v 1.615076 3.343503 -1.000000
v 1.615076 3.343503 1.000000
v 3.000000 1.958579 1.000000
v 1.615076 3.343503 -0.933333
v 1.615076 3.343503 0.933333
v 1.615076 3.343503 -0.821111
v 1.615076 3.343503 0.821111
v 1.615076 3.293503 0.821111
v 1.615076 3.293503 0.933333
v 1.615076 3.293503 -0.933333
v 1.615076 3.293503 -0.821111
v 3.000000 1.958579 0.510555
v 1.615076 3.343503 -0.510555
v 1.615076 3.343503 0.510555
v 3.000000 1.958579 -1.000000
v 2.950000 1.937868 -0.933333
v 1.615076 3.443488 -0.373704
v 1.615076 3.443488 0.373704
vt 0.892581 0.017582
vt 0.798877 0.490834
vt 0.782158 0.490907
vt 0.874124 0.013975
vt 0.753084 0.977165
vt 0.658693 0.496897
vt 0.675624 0.496902
vt 0.769432 0.973952
vt 0.385166 0.992301
vt 0.291427 0.508164
vt 0.369448 0.507040
vt 0.461932 0.977438
vt 0.935584 0.987838
vt 0.935584 0.496422
vt 0.964042 0.496422
vt 0.964042 0.987838
vt 0.935101 0.014058
vt 0.933670 0.505466
vt 0.905211 0.504979
vt 0.906643 0.013975
vt 0.688337 0.496961
vt 0.781676 0.971544
vt 0.382031 0.507107
vt 0.474005 0.975065
vt 0.904728 0.019988
vt 0.811475 0.490779
vt 0.550784 0.499700
vt 0.646165 0.030238
vt 0.658211 0.032685
vt 0.563060 0.499101
vt 0.474488 0.500110
vt 0.560163 0.013975
vt 0.245620 0.999763
vt 0.230302 0.509009
vt 0.270983 0.508874
vt 0.286891 0.998422
vt 0.001908 0.997717
vt 0.016735 0.514340
vt 0.057410 0.514399
vt 0.042659 0.998967
vt 0.755142 0.013975
vt 0.773830 0.017756
vt 0.378796 0.013975
vt 0.466184 0.030577
vt 0.935585 0.013975
vt 0.964042 0.013975
vt 0.781676 0.029654
vt 0.650660 0.966200
vt 0.658211 0.954527
vt 0.000237 0.020519
vt 0.041299 0.000237
vt 0.246335 0.001092
vt 0.286891 0.021091
vt 0.565187 0.983354
vt 0.896991 0.964602
vt 0.878513 0.968379
vt 0.904728 0.952817
vt 0.935101 0.987920
vt 0.906643 0.988004
vt 0.474005 0.042392
vn 1.0000 0.0000 0.0000
vn 1.0000 -0.0004 -0.0071
vn -0.0000 0.0000 1.0000
vn -0.0000 0.0000 -1.0000
vn 0.8288 0.0000 0.5595
vn 0.8288 0.0000 -0.5595
vn 0.7071 0.7071 -0.0000
vn 0.7125 0.7016 0.0000
vn 0.6040 0.6105 -0.5123
vn 0.6040 0.6105 0.5123
vn 0.6997 0.7145 0.0000
vn 0.7125 0.7016 -0.0001
s off
f 4/1/1 6/2/1 27/3/1 2/4/1
f 1/5/1 39/6/1 5/7/1 3/8/1
f 18/9/1 36/10/1 10/11/1 8/12/1
f 11/13/1 13/14/1 14/15/1 12/16/1
f 15/17/2 40/18/2 24/19/2 16/20/2
f 3/8/3 5/7/3 40/21/3 15/22/3
f 8/12/3 10/11/3 13/23/3 11/24/3
f 6/2/4 4/1/4 12/25/4 14/26/4
f 9/27/4 7/28/4 16/29/4 24/30/4
f 7/28/1 9/27/1 19/31/1 17/32/1
f 21/33/5 23/34/5 36/35/5 18/36/5
f 17/37/6 19/38/6 22/39/6 20/40/6
f 20/40/1 22/39/1 23/34/1 21/33/1
f 39/6/7 25/41/7 28/42/7 5/7/7
f 36/10/7 38/43/7 31/44/7 10/11/7
f 13/14/8 32/45/8 33/46/8 14/15/8
f 5/7/3 28/42/3 34/47/3 40/21/3
f 30/48/4 9/27/4 24/30/4 35/49/4
f 22/39/9 19/38/9 37/50/9 41/51/9
f 36/35/10 23/34/10 42/52/10 38/53/10
f 22/39/11 41/51/11 42/52/11 23/34/11
f 19/31/7 9/27/7 30/48/7 37/54/7
f 27/3/7 6/2/7 29/55/7 26/56/7
f 29/55/4 6/2/4 14/26/4 33/57/4
f 24/19/12 40/18/12 34/58/12 35/59/12
f 10/11/3 31/44/3 32/60/3 13/23/3
