# Blender v2.80 (sub 75) OBJ File: 'dipset.blend'
# www.blender.org
o wall1_2x2_Cube
v -3.000000 2.000000 -1.000000
v -3.000000 0.000000 -1.000000
v -3.000000 2.000000 1.000000
v -3.000000 0.000000 1.000000
v -3.000000 0.000000 -0.933333
v -3.000000 0.000000 0.933333
v -3.000000 2.000000 -0.933333
v -3.000000 2.000000 0.933333
v -3.000000 0.000000 -0.821111
v -3.000000 0.000000 0.821111
v -3.000000 2.000000 -0.821111
v -3.000000 2.000000 0.821111
v -3.050000 0.000000 0.821111
v -3.050000 0.000000 0.933333
v -3.050000 2.000000 0.821111
v -3.050000 2.000000 0.933333
v -3.050000 2.000000 -0.933333
v -3.050000 0.000000 -0.933333
v -3.050000 0.000000 -0.821111
v -3.050000 2.000000 -0.821111
vt 0.012373 0.964723
vt 0.952121 0.964723
vt 0.952121 0.996048
vt 0.012373 0.996048
vt 0.993064 0.000669
vt 0.993064 0.940416
vt 0.961740 0.940416
vt 0.961740 0.000669
vt 0.807501 0.001129
vt 0.807502 0.940873
vt 0.035867 0.940874
vt 0.035866 0.001129
vt 0.937165 0.001129
vt 0.937165 0.940872
vt 0.884435 0.940872
vt 0.884435 0.001129
vt 0.831350 0.940872
vt 0.831350 0.001129
vt 0.884080 0.001129
vt 0.884080 0.940872
vt 0.938246 0.940416
vt 0.938247 0.000669
vt 0.012373 0.940874
vt 0.012373 0.001129
vt 0.012373 0.941229
vt 0.952121 0.941231
vt 0.830994 0.001129
vt 0.830994 0.940873
vn 1.0000 0.0000 0.0000
vn 0.0000 0.0000 1.0000
vn 0.0000 0.0000 -1.0000
s off
f 6/1/1 8/2/1 3/3/1 4/4/1
f 2/5/1 1/6/1 7/7/1 5/8/1
f 9/9/1 11/10/1 12/11/1 10/12/1
f 13/13/1 15/14/1 16/15/1 14/16/1
f 18/17/1 17/18/1 20/19/1 19/20/1
f 5/8/2 7/7/2 17/21/2 18/22/2
f 10/12/2 12/11/2 15/23/2 13/24/2
f 8/2/3 6/1/3 14/25/3 16/26/3
f 11/10/3 9/9/3 19/27/3 20/28/3
