# Blender v2.80 (sub 75) OBJ File: 'dipset.blend'
# www.blender.org
o wall2_2x2.001_Cube.055
v 6.000000 2.000000 -1.000000
v 6.000000 0.000000 -1.000000
v 6.000000 2.000000 1.000000
v 6.000000 0.000000 1.000000
v 6.000000 1.656863 1.000000
v 6.000000 1.754902 1.000000
v 6.000000 1.656863 -1.000000
v 6.000000 1.754902 -1.000000
v 6.000000 1.637255 -1.000000
v 6.000000 1.539216 -1.000000
v 6.000000 1.637255 1.000000
v 6.000000 1.539216 1.000000
v 6.000000 1.519608 1.000000
v 6.000000 1.421569 1.000000
v 6.000000 1.519608 -1.000000
v 6.000000 1.421569 -1.000000
v 6.000000 1.401961 1.000000
v 6.000000 1.303921 1.000000
v 6.000000 1.401961 -1.000000
v 6.000000 1.303921 -1.000000
v 6.000000 1.284314 1.000000
v 6.000000 1.186275 1.000000
v 6.000000 1.284314 -1.000000
v 6.000000 1.186275 -1.000000
v 6.000000 1.166667 1.000000
v 6.000000 1.068627 1.000000
v 6.000000 1.166667 -1.000000
v 6.000000 1.068627 -1.000000
v 6.000000 1.049020 1.000000
v 6.000000 0.950981 1.000000
v 6.000000 1.049020 -1.000000
v 6.000000 0.950981 -1.000000
v 6.000000 0.931373 1.000000
v 6.000000 0.833333 1.000000
v 6.000000 0.931373 -1.000000
v 6.000000 0.833333 -1.000000
v 6.000000 0.813726 1.000000
v 6.000000 0.715686 1.000000
v 6.000000 0.813726 -1.000000
v 6.000000 0.715686 -1.000000
v 6.000000 0.696079 1.000000
v 6.000000 0.598039 1.000000
v 6.000000 0.696079 -1.000000
v 6.000000 0.598039 -1.000000
v 6.000000 0.578431 1.000000
v 6.000000 0.480392 1.000000
v 6.000000 0.578431 -1.000000
v 6.000000 0.480392 -1.000000
v 6.000000 0.460784 1.000000
v 6.000000 0.362745 1.000000
v 6.000000 0.460784 -1.000000
v 6.000000 0.362745 -1.000000
v 6.000000 0.343137 -1.000000
v 6.000000 0.245098 -1.000000
v 6.000000 0.343137 1.000000
v 6.000000 0.245098 1.000000
v 6.000000 1.774510 1.000000
v 6.000000 1.774510 -1.000000
v 6.000000 0.225490 -1.000000
v 6.000000 0.225490 1.000000
v 6.020000 1.754902 -1.000000
v 6.020000 0.362745 1.000000
v 6.020000 0.480392 1.000000
v 6.020000 0.598039 1.000000
v 6.020000 0.715686 1.000000
v 6.020000 0.833333 1.000000
v 6.020000 0.950981 1.000000
v 6.020000 1.068627 1.000000
v 6.020000 1.186275 1.000000
v 6.020000 1.303921 1.000000
v 6.020000 1.421569 1.000000
v 6.020000 1.068627 -1.000000
v 6.020000 1.303921 -1.000000
v 6.020000 0.598039 -1.000000
v 6.020000 0.715686 -1.000000
v 6.020000 1.656863 -1.000000
v 6.020000 1.539216 -1.000000
v 6.020000 0.833333 -1.000000
v 6.020000 0.950981 -1.000000
v 6.020000 1.539216 1.000000
v 6.020000 1.656863 1.000000
v 6.020000 1.774510 1.000000
v 6.020000 0.245098 -1.000000
v 6.020000 0.362745 -1.000000
v 6.020000 0.480392 -1.000000
v 6.020000 1.186275 -1.000000
v 6.020000 1.421569 -1.000000
v 6.020000 1.774510 -1.000000
v 6.020000 1.754902 1.000000
v 6.020000 0.245098 1.000000
v 6.020000 1.637255 -1.000000
v 6.020000 1.637255 1.000000
v 6.020000 1.519608 1.000000
v 6.020000 1.519608 -1.000000
v 6.020000 1.401961 1.000000
v 6.020000 1.401961 -1.000000
v 6.020000 1.284314 1.000000
v 6.020000 1.284314 -1.000000
v 6.020000 1.166667 1.000000
v 6.020000 1.166667 -1.000000
v 6.020000 1.049020 1.000000
v 6.020000 1.049020 -1.000000
v 6.020000 0.931373 1.000000
v 6.020000 0.931373 -1.000000
v 6.020000 0.813726 1.000000
v 6.020000 0.813726 -1.000000
v 6.020000 0.696079 1.000000
v 6.020000 0.696079 -1.000000
v 6.020000 0.578431 1.000000
v 6.020000 0.578431 -1.000000
v 6.020000 0.460784 1.000000
v 6.020000 0.460784 -1.000000
v 6.020000 0.343137 -1.000000
v 6.020000 0.343137 1.000000
v 6.020000 0.225490 -1.000000
v 6.020000 0.225490 1.000000
vt 0.989869 0.990239
vt 0.010438 0.990236
vt 0.010438 0.903772
vt 0.989869 0.903775
vt 0.010438 0.336921
vt 0.989869 0.336920
vt 0.989869 0.344589
vt 0.010438 0.344586
vt 0.989868 0.299327
vt 0.010438 0.299329
vt 0.010438 0.291660
vt 0.989868 0.291662
vt 0.989869 0.843330
vt 0.010439 0.843329
vt 0.010439 0.835660
vt 0.989869 0.835664
vt 0.010439 0.639144
vt 0.989869 0.639142
vt 0.989869 0.646811
vt 0.010439 0.646809
vt 0.989869 0.601549
vt 0.010439 0.601552
vt 0.010439 0.593883
vt 0.989869 0.593884
vt 0.989869 0.880922
vt 0.010439 0.880921
vt 0.989870 0.782884
vt 0.989870 0.820477
vt 0.010439 0.820477
vt 0.010439 0.782885
vt 0.989869 0.722439
vt 0.989870 0.760031
vt 0.010439 0.760033
vt 0.010439 0.722442
vt 0.010438 0.397366
vt 0.989869 0.397364
vt 0.989869 0.405033
vt 0.010438 0.405031
vt 0.989869 0.661994
vt 0.989869 0.699587
vt 0.010439 0.699589
vt 0.010439 0.661997
vt 0.989869 0.541105
vt 0.989869 0.578698
vt 0.010439 0.578699
vt 0.010438 0.541108
vt 0.989869 0.359772
vt 0.010438 0.359774
vt 0.010438 0.352105
vt 0.989869 0.352106
vt 0.989869 0.480661
vt 0.989869 0.518253
vt 0.010438 0.518255
vt 0.010438 0.480663
vt 0.989869 0.420216
vt 0.989869 0.457809
vt 0.010438 0.457810
vt 0.010438 0.420218
vt 0.010438 0.155587
vt 0.989868 0.155586
vt 0.989868 0.163255
vt 0.010438 0.163252
vt 0.989868 0.238883
vt 0.989869 0.276475
vt 0.010438 0.276476
vt 0.010438 0.238884
vt 0.989868 0.178438
vt 0.989869 0.216031
vt 0.010438 0.216032
vt 0.010438 0.178440
vt 0.989868 0.117994
vt 0.010438 0.117995
vt 0.010438 0.110326
vt 0.989868 0.110329
vt 0.010438 0.102808
vt 0.989868 0.102811
vt 0.989868 0.008679
vt 0.989868 0.095142
vt 0.010438 0.095142
vt 0.010438 0.008679
vt 0.010438 0.284141
vt 0.989868 0.284144
vt 0.989869 0.888591
vt 0.989869 0.896110
vt 0.010439 0.896103
vt 0.010439 0.888586
vt 0.989870 0.828146
vt 0.010439 0.828143
vt 0.989869 0.533440
vt 0.010438 0.533439
vt 0.010438 0.525920
vt 0.989869 0.525922
vt 0.989869 0.472995
vt 0.010438 0.472994
vt 0.010438 0.465475
vt 0.989869 0.465478
vt 0.989869 0.412551
vt 0.010438 0.412549
vt 0.989868 0.231217
vt 0.010438 0.231216
vt 0.010438 0.223697
vt 0.989868 0.223700
vt 0.010439 0.586365
vt 0.989869 0.586367
vt 0.989869 0.654329
vt 0.010439 0.654328
vt 0.989869 0.714773
vt 0.010439 0.714773
vt 0.010439 0.707254
vt 0.989869 0.707256
vt 0.989869 0.767700
vt 0.989870 0.775219
vt 0.010439 0.775216
vt 0.010439 0.767699
vt 0.989868 0.170773
vt 0.010438 0.170771
vn 1.0000 0.0000 0.0000
vn 0.0000 -1.0000 0.0000
vn 0.0000 1.0000 0.0000
s off
f 1/1/1 3/2/1 57/3/1 58/4/1
f 41/5/2 43/6/2 108/7/2 107/8/2
f 44/9/3 42/10/3 64/11/3 74/12/3
f 7/13/3 5/14/3 81/15/3 76/16/3
f 21/17/2 23/18/2 98/19/2 97/20/2
f 24/21/3 22/22/3 69/23/3 86/24/3
f 7/13/1 8/25/1 6/26/1 5/14/1
f 10/27/1 9/28/1 11/29/1 12/30/1
f 16/31/1 15/32/1 13/33/1 14/34/1
f 37/35/2 39/36/2 106/37/2 105/38/2
f 20/39/1 19/40/1 17/41/1 18/42/1
f 24/21/1 23/18/1 21/17/1 22/22/1
f 28/43/1 27/44/1 25/45/1 26/46/1
f 40/47/3 38/48/3 65/49/3 75/50/3
f 32/51/1 31/52/1 29/53/1 30/54/1
f 36/55/1 35/56/1 33/57/1 34/58/1
f 55/59/2 53/60/2 113/61/2 114/62/2
f 40/47/1 39/36/1 37/35/1 38/48/1
f 44/9/1 43/6/1 41/5/1 42/10/1
f 48/63/1 47/64/1 45/65/1 46/66/1
f 52/67/1 51/68/1 49/69/1 50/70/1
f 54/71/3 56/72/3 90/73/3 83/74/3
f 54/71/1 53/60/1 55/59/1 56/72/1
f 83/74/1 90/73/1 116/75/1 115/76/1
f 2/77/1 59/78/1 60/79/1 4/80/1
f 74/12/1 64/11/1 109/81/1 110/82/1
f 75/50/1 65/49/1 107/8/1 108/7/1
f 61/83/1 88/84/1 82/85/1 89/86/1
f 91/87/1 76/16/1 81/15/1 92/88/1
f 72/89/1 68/90/1 101/91/1 102/92/1
f 79/93/1 67/94/1 103/95/1 104/96/1
f 78/97/1 66/98/1 105/38/1 106/37/1
f 85/99/1 63/100/1 111/101/1 112/102/1
f 86/24/1 69/23/1 99/103/1 100/104/1
f 73/105/1 70/106/1 97/20/1 98/19/1
f 87/107/1 71/108/1 95/109/1 96/110/1
f 94/111/1 77/112/1 80/113/1 93/114/1
f 84/115/1 62/116/1 114/62/1 113/61/1
f 28/43/3 26/46/3 68/90/3 72/89/3
f 25/45/2 27/44/2 100/104/2 99/103/2
f 58/4/3 57/3/3 82/85/3 88/84/3
f 10/27/3 12/30/3 80/113/3 77/112/3
f 11/29/2 9/28/2 91/87/2 92/88/2
f 48/63/3 46/66/3 63/100/3 85/99/3
f 45/65/2 47/64/2 110/82/2 109/81/2
f 32/51/3 30/54/3 67/94/3 79/93/3
f 29/53/2 31/52/2 102/92/2 101/91/2
f 16/31/3 14/34/3 71/108/3 87/107/3
f 6/26/2 8/25/2 61/83/2 89/86/2
f 60/79/2 59/78/2 115/76/2 116/75/2
f 13/33/2 15/32/2 94/111/2 93/114/2
f 52/67/3 50/70/3 62/116/3 84/115/3
f 49/69/2 51/68/2 112/102/2 111/101/2
f 36/55/3 34/58/3 66/98/3 78/97/3
f 33/57/2 35/56/2 104/96/2 103/95/2
f 20/39/3 18/42/3 70/106/3 73/105/3
f 17/41/2 19/40/2 96/110/2 95/109/2
