# Blender v2.80 (sub 75) OBJ File: 'dipset.blend'
# www.blender.org
o wall4b_2x2.000_Cube.025
v 0.000000 2.000000 -1.000000
v 0.000000 0.000000 -1.000000
v 0.000000 2.000000 1.000000
v 0.000000 0.000000 1.000000
v 0.000000 0.000000 -0.933333
v 0.000000 0.000000 0.933333
v 0.000000 2.000000 -0.933333
v 0.000000 2.000000 0.933333
v 0.000000 0.000000 -0.821111
v 0.000000 0.000000 0.821111
v 0.000000 2.000000 -0.821111
v 0.000000 2.000000 0.821111
v -0.050000 0.000000 0.821111
v -0.050000 0.000000 0.933333
v -0.050000 2.000000 0.821111
v -0.050000 2.000000 0.933333
v -0.050000 2.000000 -0.933333
v -0.050000 0.000000 -0.933333
v -0.050000 0.000000 -0.821111
v -0.050000 2.000000 -0.821111
v 0.000000 0.000000 -0.510555
v 0.000000 0.000000 0.510555
v 0.000000 2.000000 -0.510555
v 0.000000 2.000000 0.510555
v 0.100000 0.000000 -0.373704
v 0.100000 0.000000 0.373704
v 0.100000 2.000000 -0.373704
v 0.100000 2.000000 0.373704
vt 0.040896 0.063273
vt 0.040897 0.926281
vt 0.012130 0.926281
vt 0.012129 0.063273
vt 0.113253 0.063273
vt 0.113253 0.926282
vt 0.084486 0.926282
vt 0.084486 0.063273
vt 0.739548 0.063468
vt 0.739548 0.926475
vt 0.605542 0.926475
vt 0.605542 0.063468
vt 0.739987 0.926475
vt 0.739986 0.063468
vt 0.788411 0.063468
vt 0.788411 0.926475
vt 0.788850 0.926475
vt 0.788850 0.063468
vt 0.837274 0.063468
vt 0.837274 0.926475
vt 0.062911 0.926282
vt 0.062911 0.063273
vt 0.583966 0.926475
vt 0.583968 0.063468
vt 0.062472 0.063273
vt 0.062472 0.926281
vt 0.859139 0.063471
vt 0.859140 0.926479
vt 0.837564 0.926479
vt 0.837565 0.063471
vt 0.993145 0.063471
vt 0.993145 0.926479
vt 0.186981 0.063309
vt 0.186981 0.926315
vt 0.113843 0.926315
vt 0.113843 0.063309
vt 0.582627 0.063309
vt 0.582627 0.926315
vt 0.509490 0.926315
vt 0.509490 0.063309
vn 1.0000 0.0000 0.0000
vn 0.0000 0.0000 1.0000
vn 0.0000 0.0000 -1.0000
vn 0.8074 0.0000 0.5900
vn 0.8074 0.0000 -0.5900
s off
f 6/1/1 8/2/1 3/3/1 4/4/1
f 2/5/1 1/6/1 7/7/1 5/8/1
f 22/9/1 24/10/1 12/11/1 10/12/1
f 13/13/1 15/14/1 16/15/1 14/16/1
f 18/17/1 17/18/1 20/19/1 19/20/1
f 5/8/2 7/7/2 17/21/2 18/22/2
f 10/12/2 12/11/2 15/23/2 13/24/2
f 8/2/3 6/1/3 14/25/3 16/26/3
f 11/27/3 9/28/3 19/29/3 20/30/3
f 9/28/1 11/27/1 23/31/1 21/32/1
f 26/33/4 28/34/4 24/35/4 22/36/4
f 21/37/5 23/38/5 27/39/5 25/40/5
f 25/40/1 27/39/1 28/34/1 26/33/1
