# Blender v2.80 (sub 75) OBJ File: 'dipset.blend'
# www.blender.org
o wall4a_2x2.003_Cube.008
v -5.975000 2.000000 -1.000000
v -5.975000 0.000000 -1.000000
v -5.975000 2.000000 1.000000
v -5.975000 0.000000 1.000000
v -5.952255 0.442115 1.000000
v -5.952255 0.964410 1.000000
v -5.952255 0.964410 -1.000000
v -5.952255 0.442115 -1.000000
v -6.000000 0.318912 1.000000
v -5.995489 0.337837 1.000000
v -5.995489 1.068689 1.000000
v -6.000000 1.087613 1.000000
v -5.995489 0.337837 -1.000000
v -6.000000 0.318912 -1.000000
v -6.000000 1.087613 -1.000000
v -5.995489 1.068689 -1.000000
v -5.952255 0.513931 1.000000
v -5.952255 0.892594 1.000000
v -5.952255 0.892595 -1.000000
v -5.952255 0.513931 -1.000000
v -5.952255 0.978154 -1.000000
v -5.952255 0.978154 1.000000
v -5.952255 0.428371 -1.000000
v -5.952255 0.428371 1.000000
v -5.975000 0.000000 -0.416667
v -5.975000 0.000000 0.416667
v -5.975000 2.000000 -0.416667
v -5.975000 2.000000 0.416667
v -6.000000 1.087613 -0.416667
v -6.000000 1.087613 0.416667
v -5.995489 1.068689 0.416667
v -5.995489 1.068689 -0.416667
v -5.952255 0.442115 0.416667
v -5.952255 0.442115 -0.416667
v -5.952255 0.892594 0.416667
v -5.952255 0.892594 -0.416667
v -5.952255 0.964410 0.416667
v -5.952255 0.964410 -0.416667
v -5.995489 0.337837 -0.416667
v -5.995489 0.337837 0.416667
v -6.000000 0.318912 0.416667
v -6.000000 0.318912 -0.416667
v -5.952255 0.513931 0.416667
v -5.952255 0.513931 -0.416667
v -5.952255 0.978154 0.416667
v -5.952255 0.978154 -0.416667
v -5.952255 0.428371 0.416667
v -5.952255 0.428371 -0.416667
v -5.975000 0.000000 -0.361111
v -5.975000 0.000000 0.361111
v -5.975000 2.000000 -0.361111
v -5.975000 2.000000 0.361111
v -6.000000 1.087613 -0.361111
v -6.000000 1.087613 0.361111
v -5.995489 1.068689 0.361111
v -5.995489 1.068689 -0.361111
v -5.952255 0.442115 0.361111
v -5.952255 0.442115 -0.361111
v -5.952255 0.955705 0.361111
v -5.952255 0.955705 -0.361111
v -5.952255 0.964410 0.361111
v -5.952255 0.964410 -0.361111
v -5.995489 0.337837 -0.361111
v -5.995489 0.337837 0.361111
v -6.000000 0.318912 0.361111
v -6.000000 0.318912 -0.361111
v -5.952255 0.450820 0.361111
v -5.952255 0.450820 -0.361111
v -5.952255 0.978154 0.361111
v -5.952255 0.978154 -0.361111
v -5.952255 0.428371 0.361111
v -5.952255 0.428371 -0.361111
v -5.977255 0.442115 -0.416667
v -5.977255 0.442115 -1.000000
v -5.977255 0.892594 -0.416667
v -5.977255 0.892595 -1.000000
v -5.977255 0.964410 -1.000000
v -5.977255 0.964410 -0.416667
v -5.977255 0.513931 1.000000
v -5.977255 0.442115 1.000000
v -5.977255 0.513931 -0.416667
v -5.977255 0.513931 -1.000000
v -5.977255 0.964410 1.000000
v -5.977255 0.892594 1.000000
v -5.977255 0.442115 0.416667
v -5.977255 0.442115 -0.361111
v -5.977255 0.892594 0.416667
v -5.977255 0.955705 -0.361111
v -5.977255 0.964410 0.416667
v -5.977255 0.964410 -0.361111
v -5.977255 0.513931 0.416667
v -5.977255 0.450820 -0.361111
v -5.977255 0.442115 0.361111
v -5.977255 0.955705 0.361111
v -5.977255 0.964410 0.361111
v -5.977255 0.450820 0.361111
v -5.927255 0.845261 1.000000
v -5.927255 0.561264 1.000000
v -5.927255 0.561264 -1.000000
v -5.927255 0.845262 -1.000000
v -5.927255 0.561264 0.416667
v -5.927255 0.845261 0.416667
v -5.927255 0.561264 -0.416667
v -5.927255 0.845262 -0.416667
v -5.902255 0.513931 0.361111
v -5.902255 0.892594 0.361111
v -5.902255 0.513931 -0.361111
v -5.902255 0.892594 -0.361111
v -6.000000 0.159456 -1.000000
v -6.000000 0.159456 1.000000
v -6.000000 0.159456 -0.416667
v -6.000000 0.159456 0.416667
v -6.000000 0.159456 -0.361111
v -6.000000 0.159456 0.361111
v -5.975000 1.818807 -1.000000
v -5.975000 1.818807 1.000000
v -5.975000 1.818807 -0.416667
v -5.975000 1.818807 0.416667
v -5.975000 1.818807 -0.361111
v -5.975000 1.818807 0.361111
v -5.975000 0.131551 1.000000
v -5.975000 0.131551 -0.416667
v -5.975000 0.131551 0.416667
v -5.975000 0.131551 -0.361111
v -5.975000 0.131551 0.361111
v -5.975000 0.131551 -1.000000
v -6.000000 1.790902 1.000000
v -6.000000 1.790902 -0.416667
v -6.000000 1.790902 0.416667
v -6.000000 1.790902 -0.361111
v -6.000000 1.790902 0.361111
v -6.000000 1.790902 -1.000000
vt 0.983499 0.340725
vt 0.935149 0.340725
vt 0.935149 0.021084
vt 0.983500 0.021084
vt 0.533223 0.341014
vt 0.456744 0.341014
vt 0.456744 0.021263
vt 0.533223 0.021263
vt 0.232818 0.660765
vt 0.451620 0.660765
vt 0.451620 0.980516
vt 0.232818 0.980516
vt 0.014015 0.660765
vt 0.014015 0.980516
vt 0.009219 0.980516
vt 0.009219 0.660765
vt 0.671034 0.660365
vt 0.759073 0.660365
vt 0.759073 0.980006
vt 0.671034 0.980006
vt 0.988294 0.021084
vt 0.988294 0.340725
vt 0.759073 0.447271
vt 0.759073 0.340725
vt 0.759073 0.340725
vt 0.759073 0.447271
vt 0.814097 0.660365
vt 0.817765 0.660365
vt 0.817765 0.980006
vt 0.814097 0.980006
vt 0.847111 0.660365
vt 0.935149 0.660365
vt 0.935149 0.980006
vt 0.847111 0.980006
vt 0.000000 0.000000
vt 0.000000 0.000000
vt 0.000000 0.000000
vt 0.000000 0.000000
vt 0.622685 0.660365
vt 0.622685 0.980006
vt 0.622684 0.021084
vt 0.671034 0.021084
vt 0.671034 0.340725
vt 0.622684 0.340725
vt 0.622685 0.553818
vt 0.671034 0.553818
vt 0.817765 0.553818
vt 0.817765 0.447271
vt 0.817765 0.447271
vt 0.817765 0.553818
vt 0.759073 0.660365
vt 0.759073 0.980006
vt 0.847111 0.021084
vt 0.847111 0.340725
vt 0.847111 0.553818
vt 0.935149 0.553818
vt 0.814096 0.021084
vt 0.817765 0.021084
vt 0.817765 0.340725
vt 0.814096 0.340725
vt 0.814097 0.553818
vt 0.759073 0.553818
vt 0.759073 0.553818
vt 0.817765 0.660365
vt 0.817765 0.980006
vt 0.983498 0.980006
vt 0.983499 0.660365
vt 0.988293 0.660365
vt 0.988293 0.980006
vt 0.983499 0.447272
vt 0.988294 0.447272
vt 0.759073 0.021084
vt 0.014015 0.021263
vt 0.014015 0.341014
vt 0.009219 0.341014
vt 0.009219 0.021263
vt 0.014015 0.554182
vt 0.009219 0.554181
vt 0.232818 0.021263
vt 0.451620 0.021263
vt 0.451620 0.341014
vt 0.232818 0.341014
vt 0.232818 0.554182
vt 0.451620 0.554182
vt 0.533223 0.980516
vt 0.456744 0.980516
vt 0.456744 0.660765
vt 0.533223 0.660765
vt 0.533223 0.447598
vt 0.456744 0.447598
vt 0.935149 0.447272
vt 0.983499 0.553818
vt 0.456744 0.554182
vt 0.533223 0.554182
vt 0.451620 0.447598
vt 0.232818 0.447598
vt 0.014015 0.447598
vt 0.009219 0.447598
vt 0.671034 0.447272
vt 0.988293 0.553818
vt 0.788419 0.447271
vt 0.788419 0.553818
vt 0.788419 0.553818
vt 0.788419 0.447271
vt 0.817765 0.340725
vt 0.814096 0.447271
vt 0.847111 0.447272
vt 0.759073 0.021084
vt 0.000000 0.000000
vt 0.000000 0.000000
vt 0.000000 0.000000
vt 0.000000 0.000000
vt 0.622684 0.447272
vt 0.847111 0.660365
vt 0.847111 0.980006
vt 0.788419 0.660365
vt 0.788419 0.980006
vt 0.788419 0.021084
vt 0.788419 0.340725
vt 0.817765 0.021084
vt 0.847111 0.021084
vt 0.847111 0.340725
vt 0.847111 0.553818
vt 0.847111 0.447272
vt 0.000000 0.000000
vt 0.000000 0.000000
vt 0.000000 0.000000
vt 0.000000 0.000000
vt 0.788419 0.021084
vt 0.788419 0.340725
vt 0.000000 0.000000
vt 0.000000 0.000000
vt 0.000000 0.000000
vt 0.000000 0.000000
vt 0.788419 0.660365
vt 0.788419 0.980006
vt 0.792087 0.447271
vt 0.792087 0.553818
vt 0.792087 0.340725
vt 0.792087 0.660365
vt 0.792087 0.021084
vt 0.792087 0.980006
vt 0.546607 0.554182
vt 0.546607 0.447598
vt 0.546607 0.660765
vt 0.546607 0.341014
vt 0.546607 0.980516
vt 0.546607 0.021263
vt 0.123416 0.447598
vt 0.123416 0.554182
vt 0.123416 0.341014
vt 0.123416 0.660765
vt 0.123416 0.021263
vt 0.123416 0.980516
vt 0.609702 0.341014
vt 0.609702 0.021263
vt 0.609702 0.980516
vt 0.609702 0.660765
vt 0.609702 0.447598
vt 0.609702 0.554182
vn 0.9024 -0.4309 0.0000
vn 1.0000 0.0000 0.0000
vn 0.9727 0.2319 0.0000
vn 0.9727 -0.2319 0.0000
vn 0.0000 -1.0000 0.0000
vn 0.8842 -0.4670 0.0000
vn 0.0000 0.0000 -1.0000
vn 0.9024 0.4309 0.0000
vn 0.6636 -0.4506 -0.5972
vn 0.0000 1.0000 0.0000
vn 0.0000 -0.6608 0.7506
vn 0.6636 -0.4506 0.5972
vn 0.7838 -0.6210 -0.0000
vn 0.0000 0.0000 1.0000
vn 0.0000 0.6608 -0.7506
vn 0.0000 0.6608 0.7506
vn 0.0000 -0.6608 -0.7506
vn 0.7838 0.6210 0.0000
vn 0.6636 0.4506 0.5972
vn 0.9119 0.0000 0.4104
vn 0.6636 0.4506 -0.5972
vn 0.9119 0.0000 -0.4104
vn 0.8842 0.4670 0.0000
vn 0.7448 0.6673 0.0000
vn 0.7448 -0.6673 0.0000
s off
f 40/1/1 47/2/1 24/3/1 10/4/1
f 112/5/2 41/6/2 9/7/2 110/8/2
f 118/9/2 28/10/2 3/11/2 116/12/2
f 30/13/3 12/14/3 11/15/3 31/16/3
f 46/17/2 38/18/2 7/19/2 21/20/2
f 40/1/4 10/4/4 9/21/4 41/22/4
f 61/23/5 37/24/5 89/25/5 95/26/5
f 103/27/6 44/28/6 20/29/6 99/30/6
f 34/31/2 48/32/2 23/33/2 8/34/2
f 6/35/7 18/36/7 84/37/7 83/38/7
f 32/39/8 46/17/8 21/20/8 16/40/8
f 11/41/8 22/42/8 45/43/8 31/44/8
f 56/45/8 70/46/8 46/17/8 32/39/8
f 68/47/5 67/48/5 96/49/5 92/50/5
f 7/19/5 38/18/5 78/51/5 77/52/5
f 5/53/2 24/3/2 47/2/2 33/54/2
f 58/55/2 72/56/2 48/32/2 34/31/2
f 98/57/6 17/58/6 43/59/6 101/60/6
f 107/61/9 68/47/9 44/28/9 103/27/9
f 38/18/5 62/62/5 90/63/5 78/51/5
f 20/29/5 44/28/5 81/64/5 82/65/5
f 13/66/4 39/67/4 42/68/4 14/69/4
f 64/70/4 40/1/4 41/22/4 65/71/4
f 22/42/2 6/72/2 37/24/2 45/43/2
f 70/46/2 62/62/2 38/18/2 46/17/2
f 15/73/3 29/74/3 32/75/3 16/76/3
f 54/77/3 30/13/3 31/16/3 55/78/3
f 115/79/2 1/80/2 27/81/2 117/82/2
f 120/83/2 52/84/2 28/10/2 118/9/2
f 109/85/2 14/86/2 42/87/2 111/88/2
f 114/89/2 65/90/2 41/6/2 112/5/2
f 13/66/1 23/33/1 48/32/1 39/67/1
f 64/70/1 71/91/1 47/2/1 40/1/1
f 39/67/1 48/32/1 72/56/1 63/92/1
f 63/92/1 72/56/1 71/91/1 64/70/1
f 111/88/2 42/87/2 66/93/2 113/94/2
f 113/94/2 66/93/2 65/90/2 114/89/2
f 117/82/2 27/81/2 51/95/2 119/96/2
f 119/96/2 51/95/2 52/84/2 120/83/2
f 29/74/3 53/97/3 56/98/3 32/75/3
f 53/97/3 54/77/3 55/78/3 56/98/3
f 45/43/2 37/24/2 61/23/2 69/99/2
f 69/99/2 61/23/2 62/62/2 70/46/2
f 39/67/4 63/92/4 66/100/4 42/68/4
f 63/92/4 64/70/4 65/71/4 66/100/4
f 59/101/10 60/102/10 88/103/10 94/104/10
f 67/48/11 43/59/11 91/105/11 96/49/11
f 101/60/12 43/59/12 67/48/12 105/106/12
f 105/106/13 67/48/13 68/47/13 107/61/13
f 33/54/2 47/2/2 71/91/2 57/107/2
f 57/107/2 71/91/2 72/56/2 58/55/2
f 37/24/5 6/72/5 83/108/5 89/25/5
f 19/109/14 7/110/14 77/111/14 76/112/14
f 31/44/8 45/43/8 69/99/8 55/113/8
f 55/113/8 69/99/8 70/46/8 56/45/8
f 81/64/2 73/114/2 74/115/2 82/65/2
f 78/51/2 75/116/2 76/117/2 77/52/2
f 83/108/2 84/118/2 87/119/2 89/25/2
f 90/63/2 88/103/2 75/116/2 78/51/2
f 79/120/2 80/121/2 85/122/2 91/105/2
f 92/50/2 86/123/2 73/114/2 81/64/2
f 91/105/2 85/122/2 93/124/2 96/49/2
f 96/49/2 93/124/2 86/123/2 92/50/2
f 89/25/2 87/119/2 94/104/2 95/26/2
f 95/26/2 94/104/2 88/103/2 90/63/2
f 62/62/5 61/23/5 95/26/5 90/63/5
f 8/125/14 20/126/14 82/127/14 74/128/14
f 5/53/10 33/54/10 85/122/10 80/121/10
f 58/55/10 34/31/10 73/114/10 86/123/10
f 33/54/10 57/107/10 93/124/10 85/122/10
f 34/31/10 8/34/10 74/115/10 73/114/10
f 18/129/10 35/130/10 87/119/10 84/118/10
f 57/107/10 58/55/10 86/123/10 93/124/10
f 43/59/5 17/58/5 79/120/5 91/105/5
f 17/131/7 5/132/7 80/133/7 79/134/7
f 36/135/10 19/136/10 76/117/10 75/116/10
f 60/102/15 36/135/15 75/116/15 88/103/15
f 35/130/16 59/101/16 94/104/16 87/119/16
f 44/28/17 68/47/17 92/50/17 81/64/17
f 59/101/18 106/137/18 108/138/18 60/102/18
f 106/137/2 105/106/2 107/61/2 108/138/2
f 35/130/19 102/139/19 106/137/19 59/101/19
f 102/139/20 101/60/20 105/106/20 106/137/20
f 60/102/21 108/138/21 104/140/21 36/135/21
f 108/138/22 107/61/22 103/27/22 104/140/22
f 18/129/23 97/141/23 102/139/23 35/130/23
f 97/141/2 98/57/2 101/60/2 102/139/2
f 36/135/23 104/140/23 100/142/23 19/136/23
f 104/140/2 103/27/2 99/30/2 100/142/2
f 124/143/24 113/94/24 114/89/24 125/144/24
f 122/145/24 111/88/24 113/94/24 124/143/24
f 125/144/24 114/89/24 112/5/24 123/146/24
f 126/147/24 109/85/24 111/88/24 122/145/24
f 123/146/24 112/5/24 110/8/24 121/148/24
f 130/149/25 119/96/25 120/83/25 131/150/25
f 128/151/25 117/82/25 119/96/25 130/149/25
f 131/150/25 120/83/25 118/9/25 129/152/25
f 132/153/25 115/79/25 117/82/25 128/151/25
f 129/152/25 118/9/25 116/12/25 127/154/25
f 26/155/2 123/146/2 121/148/2 4/156/2
f 2/157/2 126/147/2 122/145/2 25/158/2
f 50/159/2 125/144/2 123/146/2 26/155/2
f 25/158/2 122/145/2 124/143/2 49/160/2
f 49/160/2 124/143/2 125/144/2 50/159/2
f 30/13/2 129/152/2 127/154/2 12/14/2
f 15/73/2 132/153/2 128/151/2 29/74/2
f 54/77/2 131/150/2 129/152/2 30/13/2
f 29/74/2 128/151/2 130/149/2 53/97/2
f 53/97/2 130/149/2 131/150/2 54/77/2
