# Blender v2.80 (sub 75) OBJ File: 'dipset.blend'
# www.blender.org
o wall4a_2x4.006_Cube.039
v 1.095202 2.000000 15.267710
v 1.095202 2.000000 17.267710
v 1.095202 0.000000 17.267710
v 1.095202 0.205556 17.167709
v 1.095202 0.205556 15.367710
v 1.095202 1.794444 17.167709
v 1.095202 1.794444 15.367710
v 1.095202 0.000000 15.267710
v 1.095202 0.000000 17.267710
v 1.095202 2.000000 17.267710
v 1.095202 0.105556 17.267710
v 1.095202 0.105556 15.267710
v 1.095202 1.894444 17.267710
v 1.095202 1.894444 15.267710
v 1.145203 0.115556 17.257710
v 1.135202 0.105556 17.267710
v 1.135202 1.894444 17.267710
v 1.145203 1.884444 17.257710
v 1.135202 1.894444 15.267710
v 1.135202 0.205556 17.167709
v 1.145203 0.195556 17.177710
v 1.145203 0.195556 15.357710
v 1.135202 0.205556 15.367710
v 1.145203 1.804444 17.177710
v 1.135202 1.794444 17.167709
v 1.135202 1.794444 15.367710
v 1.145203 1.804444 15.353568
v 1.135203 0.105556 15.263568
v 1.145203 0.115556 15.273568
v 1.135203 1.894444 15.267710
v 1.145203 1.884444 15.277710
vt 0.025384 0.973626
vt 0.863661 0.970742
vt 0.869404 0.976501
vt 0.019108 0.979798
vt 0.947404 0.996547
vt 0.947404 0.000000
vt 1.000000 0.000000
vt 1.000000 0.996547
vt 0.946938 0.996547
vt 0.894342 0.996547
vt 0.894342 0.000000
vt 0.946938 0.000000
vt 0.802899 0.090123
vt 0.802899 0.906207
vt 0.087019 0.906207
vt 0.087019 0.090123
vt 0.079123 0.086378
vt 0.079780 0.919239
vt 0.070038 0.928935
vt 0.070101 0.077307
vt 0.863155 0.029311
vt 0.868979 0.022359
vt 0.869408 0.023452
vt 0.026959 0.032094
vt 0.021452 0.026572
vt 0.809570 0.084268
vt 0.819072 0.074330
vt 0.011950 0.017953
vt 0.000000 0.979556
vt 0.888346 0.023452
vt 0.888346 0.976501
vt 0.810704 0.917615
vt 0.819965 0.926930
vt 0.868648 0.003082
vt 0.825717 0.932705
vt 0.063763 0.935102
vt 0.064591 0.071780
vt 0.825095 0.066173
vt 0.869501 0.995655
vt 0.018251 1.000000
vn 0.7071 0.0000 0.7071
vn 1.0000 0.0000 0.0000
vn 0.0000 1.0000 0.0000
vn 0.7071 0.7071 -0.0000
vn 0.7071 0.0016 -0.7071
vn 0.0000 0.0000 1.0000
vn 0.0000 -1.0000 -0.0000
vn 0.0000 0.0000 -1.0000
vn -0.0517 0.0012 -0.9987
vn 0.7071 0.0000 -0.7071
vn 0.7701 0.0008 0.6379
vn 0.7071 -0.7071 0.0000
s off
f 15/1/1 18/2/1 17/3/1 16/4/1
f 1/5/2 10/6/2 13/7/2 14/8/2
f 8/9/2 12/10/2 11/11/2 9/12/2
f 4/13/2 5/14/2 7/15/2 6/16/2
f 5/17/3 4/18/3 20/19/3 23/20/3
f 18/2/4 31/21/4 30/22/4 19/23/4 17/3/4
f 29/24/5 28/25/5 30/22/5 31/21/5
f 7/26/6 5/17/6 23/20/6 26/27/6
f 12/28/7 28/25/7 16/4/7 11/29/7
f 14/30/3 13/31/3 17/3/3 19/23/3
f 4/18/8 6/32/8 25/33/8 20/19/8
f 6/32/7 7/26/7 26/27/7 25/33/7
f 14/34/9 30/22/9 28/25/9 12/28/9
f 20/19/10 25/33/10 24/35/10 21/36/10
f 22/37/11 27/38/11 26/27/11 23/20/11
f 21/36/4 22/37/4 23/20/4 20/19/4
f 25/33/12 26/27/12 27/38/12 24/35/12
f 13/39/6 11/40/6 16/4/6 17/3/6
f 21/36/2 24/35/2 18/2/2 15/1/2
f 21/36/2 15/1/2 29/24/2 22/37/2
f 27/38/2 22/37/2 29/24/2 31/21/2
f 27/38/2 31/21/2 18/2/2 24/35/2
f 16/4/12 28/25/12 29/24/12 15/1/12
l 9 3
l 10 2
