# Blender v2.80 (sub 75) OBJ File: 'dipset.blend'
# www.blender.org
o wall4a_2x4.005_Cube.054
v -6.000000 2.000000 15.267710
v -6.000000 0.000000 15.267710
v -6.000000 2.000000 17.267710
v -6.000000 0.000000 17.267710
v -6.000000 0.105556 15.267710
v -6.000000 0.361111 15.267710
v -6.000000 1.638889 15.267710
v -6.000000 1.894444 15.267710
v -6.000000 0.105556 17.267710
v -6.000000 0.361111 17.267710
v -6.000000 1.638889 17.267710
v -6.000000 1.894444 17.267710
v -6.000000 0.105556 17.162155
v -6.000000 0.205556 16.865177
v -6.000000 0.205556 15.670242
v -6.000000 0.105556 15.373265
v -6.000000 0.402533 17.062155
v -6.000000 0.402533 15.473266
v -6.000000 1.894444 17.162155
v -6.000000 1.794444 16.865177
v -6.000000 1.794444 15.670242
v -6.000000 1.894444 15.373265
v -6.000000 0.000000 15.373265
v -6.000000 0.000000 15.628821
v -6.000000 0.000000 16.906599
v -6.000000 0.000000 17.162153
v -6.000000 2.000000 15.373265
v -6.000000 2.000000 15.628821
v -6.000000 2.000000 16.906599
v -6.000000 2.000000 17.162153
v -6.000000 1.597467 17.062155
v -6.000000 1.597467 15.473266
v -6.000000 0.105556 16.906599
v -6.000000 0.105556 15.628821
v -6.000000 1.894444 16.906599
v -6.000000 1.894444 15.628821
v -6.000000 1.638889 15.373265
v -6.000000 1.638889 17.162155
v -6.000000 0.361111 17.162155
v -6.000000 0.361111 15.373265
v -5.950000 0.115556 16.902456
v -5.960000 0.105556 16.906599
v -5.960000 0.105556 15.628821
v -5.950000 0.115556 15.632963
v -5.960000 1.894444 16.906599
v -5.950000 1.884444 16.902456
v -5.950000 1.884444 15.632963
v -5.960000 1.894444 15.628821
v -5.950000 1.634747 15.383265
v -5.960000 1.638889 15.373265
v -5.960000 1.638889 17.162155
v -5.950000 1.634747 17.152155
v -5.950000 0.365253 17.152155
v -5.960000 0.361111 17.162155
v -5.950000 0.365253 15.383265
v -5.960000 0.361111 15.373265
v -5.960000 0.205556 16.865177
v -5.950000 0.195556 16.869320
v -5.950000 0.195556 15.666101
v -5.960000 0.205556 15.670242
v -5.950000 1.804444 16.869320
v -5.960000 1.794444 16.865177
v -5.960000 1.794444 15.670242
v -5.950000 1.804444 15.666101
v -5.960000 1.597467 15.473266
v -5.950000 1.601610 15.463265
v -5.950000 1.601610 17.072155
v -5.960000 1.597467 17.062155
v -5.960000 0.402533 17.062155
v -5.950000 0.398390 17.072155
v -5.960000 0.402533 15.473266
v -5.950000 0.398390 15.463265
vt 0.186313 0.059433
vt 0.059433 0.059434
vt 0.059433 0.007027
vt 0.186313 0.007026
vt 0.947593 0.059433
vt 0.820713 0.059433
vt 0.820713 0.007026
vt 0.947593 0.007026
vt 0.007026 0.059434
vt 0.007026 0.007026
vt 1.000000 0.059433
vt 1.000000 0.007027
vt 1.000000 1.000000
vt 0.947593 1.000000
vt 0.947593 0.947594
vt 1.000000 0.947593
vt 0.947593 0.820713
vt 1.000000 0.820713
vt 0.947593 0.186314
vt 1.000000 0.186314
vt 0.059433 1.000000
vt 0.007026 1.000000
vt 0.007026 0.947593
vt 0.059433 0.947594
vt 0.007026 0.820713
vt 0.059433 0.820713
vt 0.007026 0.186314
vt 0.059433 0.186314
vt 0.834700 0.745745
vt 0.751573 0.828872
vt 0.247293 0.828872
vt 0.164166 0.745744
vt 0.164166 0.241465
vt 0.247293 0.158339
vt 0.751573 0.158339
vt 0.834700 0.241465
vt 0.820713 1.000000
vt 0.820713 0.947594
vt 0.186313 0.947594
vt 0.186313 1.000000
vt 0.149248 0.230178
vt 0.150574 0.762961
vt 0.135640 0.769904
vt 0.134335 0.223287
vt 0.877474 0.218827
vt 0.778697 0.118843
vt 0.794598 0.080324
vt 0.915178 0.202835
vt 0.235490 0.143749
vt 0.228408 0.128815
vt 0.856090 0.229250
vt 0.768826 0.141549
vt 0.775728 0.125681
vt 0.871339 0.222041
vt 0.128437 0.220295
vt 0.129732 0.772925
vt 0.092677 0.788690
vt 0.091343 0.204632
vt 0.768942 0.850381
vt 0.856120 0.762879
vt 0.871352 0.770067
vt 0.775860 0.866237
vt 0.778838 0.873075
vt 0.877479 0.773271
vt 0.915198 0.789250
vt 0.794731 0.911500
vt 0.069065 0.194840
vt 0.199146 0.063677
vt 0.206345 0.079853
vt 0.085267 0.201842
vt 0.804667 0.055913
vt 0.937961 0.192733
vt 0.921412 0.199952
vt 0.797427 0.073219
vt 0.070414 0.798545
vt 0.086606 0.791496
vt 0.804809 0.935876
vt 0.200583 0.929455
vt 0.207748 0.913293
vt 0.797562 0.918595
vt 0.226592 0.870284
vt 0.210610 0.907230
vt 0.937961 0.799340
vt 0.921428 0.792129
vt 0.225280 0.122900
vt 0.209220 0.085923
vt 0.236760 0.849498
vt 0.229703 0.864391
vn 1.0000 0.0000 0.0000
vn 0.0000 1.0000 0.0000
vn 0.0000 0.7071 0.7071
vn 0.0000 -0.7071 0.7071
vn 0.0000 0.0000 1.0000
vn 0.0000 -0.7071 -0.7071
vn 0.0000 0.7071 -0.7071
vn 0.0000 0.0000 -1.0000
vn 0.0000 -1.0000 0.0000
vn 0.7071 -0.7071 0.0000
vn 0.7071 0.7071 0.0000
vn 0.7071 0.5000 -0.5000
vn 0.7072 0.5000 0.5000
vn 0.7071 -0.5000 0.5000
vn 0.7071 0.0000 0.7071
vn 0.7071 0.0000 -0.7071
vn 0.7071 -0.5000 -0.5000
vn 0.7071 0.5000 0.5000
s off
f 40/1/1 16/2/1 5/3/1 6/4/1
f 22/5/1 37/6/1 7/7/1 8/8/1
f 16/2/1 23/9/1 2/10/1 5/3/1
f 27/11/1 22/5/1 8/8/1 1/12/1
f 3/13/1 12/14/1 19/15/1 30/16/1
f 30/16/1 19/15/1 35/17/1 29/18/1
f 35/17/1 36/19/1 28/20/1 29/18/1
f 28/20/1 36/19/1 22/5/1 27/11/1
f 9/21/1 4/22/1 26/23/1 13/24/1
f 13/24/1 26/23/1 25/25/1 33/26/1
f 24/27/1 34/28/1 33/26/1 25/25/1
f 15/29/1 18/30/1 32/31/1 21/32/1 20/33/1 31/34/1 17/35/1 14/36/1
f 34/28/1 24/27/1 23/9/1 16/2/1
f 12/14/1 11/37/1 38/38/1 19/15/1
f 22/5/1 36/19/1 37/6/1
f 19/15/1 38/38/1 35/17/1
f 33/26/1 39/39/1 13/24/1
f 40/1/1 6/4/1 7/7/1 37/6/1
f 10/40/1 9/21/1 13/24/1 39/39/1
f 11/37/1 10/40/1 39/39/1 38/38/1
f 16/2/1 40/1/1 34/28/1
f 15/41/2 14/42/2 57/43/2 60/44/2
f 64/45/1 66/46/1 49/47/1 47/48/1
f 18/49/3 15/41/3 60/44/3 71/50/3
f 21/51/4 32/52/4 65/53/4 63/54/4
f 59/55/1 58/56/1 41/57/1 44/58/1
f 32/52/5 18/49/5 71/50/5 65/53/5
f 31/59/6 20/60/6 62/61/6 68/62/6
f 67/63/1 61/64/1 46/65/1 52/66/1
f 34/67/6 40/68/6 56/69/6 43/70/6
f 37/71/7 36/72/7 48/73/7 50/74/7
f 40/68/8 37/71/8 50/74/8 56/69/8
f 61/64/1 64/45/1 47/48/1 46/65/1
f 33/75/9 34/67/9 43/70/9 42/76/9
f 38/77/5 39/78/5 54/79/5 51/80/5
f 70/81/1 67/63/1 52/66/1 53/82/1
f 35/83/3 38/77/3 51/80/3 45/84/3
f 36/72/2 35/83/2 45/84/2 48/73/2
f 66/46/1 72/85/1 55/86/1 49/47/1
f 17/87/8 31/59/8 68/62/8 69/88/8
f 58/56/1 70/81/1 53/82/1 41/57/1
f 72/85/1 59/55/1 44/58/1 55/86/1
f 20/60/9 21/51/9 63/54/9 62/61/9
f 14/42/7 17/87/7 69/88/7 57/43/7
f 42/76/10 43/70/10 44/58/10 41/57/10
f 46/65/11 47/48/11 48/73/11 45/84/11
f 47/48/12 49/47/12 50/74/12 48/73/12
f 45/84/13 51/80/13 52/66/13 46/65/13
f 41/57/14 53/82/14 54/79/14 42/76/14
f 53/82/15 52/66/15 51/80/15 54/79/15
f 56/69/16 50/74/16 49/47/16 55/86/16
f 43/70/17 56/69/17 55/86/17 44/58/17
f 58/56/11 59/55/11 60/44/11 57/43/11
f 62/61/10 63/54/10 64/45/10 61/64/10
f 63/54/14 65/53/14 66/46/14 64/45/14
f 61/64/17 67/63/17 68/62/17 62/61/17
f 57/43/12 69/88/12 70/81/12 58/56/12
f 69/88/16 68/62/16 67/63/16 70/81/16
f 72/85/15 66/46/15 65/53/15 71/50/15
f 59/55/18 72/85/18 71/50/18 60/44/18
f 39/78/4 33/75/4 42/76/4 54/79/4
