# Blender v2.80 (sub 75) OBJ File: 'dipset.blend'
# www.blender.org
o wall4a_2x4.000_Cube.038
v -1.671817 2.000000 15.267710
v -1.671817 2.000000 17.267710
v -1.671817 0.000000 17.267710
v -1.671817 0.105556 17.267710
v -1.671817 0.361111 17.267710
v -1.671817 1.638889 17.267710
v -1.671817 1.894444 17.267710
v -1.671817 0.105556 17.162155
v -1.671817 0.205556 16.865177
v -1.671817 0.205556 15.367710
v -1.671817 0.402533 17.062155
v -1.671817 1.894444 17.162155
v -1.671817 1.794444 16.865177
v -1.671817 1.794444 15.367710
v -1.671817 0.000000 15.267710
v -1.671817 0.000000 16.906599
v -1.671817 0.000000 17.162153
v -1.671817 2.000000 16.906599
v -1.671817 2.000000 17.162153
v -1.671817 1.597467 17.062155
v -1.671817 0.105556 16.906599
v -1.671817 0.105556 15.267710
v -1.671817 1.894444 16.906599
v -1.671817 1.894444 15.267710
v -1.671817 1.638889 17.162155
v -1.671817 0.361111 17.162155
v -1.621817 0.115556 16.902456
v -1.631817 0.105556 16.906599
v -1.631817 0.105556 15.267710
v -1.621817 0.115556 15.267710
v -1.631817 1.894444 16.906599
v -1.621817 1.884444 16.902456
v -1.621817 1.884444 15.271852
v -1.631817 1.894444 15.271852
v -1.631817 1.638889 17.162155
v -1.621817 1.634747 17.152155
v -1.621817 0.365253 17.152155
v -1.631817 0.361111 17.162155
v -1.631817 0.205556 16.865177
v -1.621817 0.195556 16.869320
v -1.621817 0.195556 15.357710
v -1.631817 0.205556 15.367710
v -1.621817 1.804444 16.869320
v -1.631817 1.794444 16.865177
v -1.631817 1.794444 15.367710
v -1.621817 1.804444 15.353568
v -1.621817 1.601610 17.072155
v -1.631817 1.597467 17.062155
v -1.631817 0.402533 17.062155
v -1.621817 0.398390 17.072155
vt 1.000000 0.000001
vt 1.000000 0.052632
vt 0.947377 0.052632
vt 0.947376 0.000001
vt 0.819971 0.052632
vt 0.819971 0.000000
vt 0.002918 -0.000000
vt 0.002918 0.052631
vt 1.000000 0.944593
vt 1.000000 0.997224
vt 0.947376 0.997224
vt 0.947377 0.944593
vt 0.819971 0.997224
vt 0.819971 0.944593
vt 0.002916 0.997224
vt 0.002916 0.944593
vt 0.732617 0.834344
vt 0.098050 0.834344
vt 0.098050 0.160941
vt 0.732617 0.160941
vt 0.816088 0.244424
vt 0.816088 0.750861
vt 1.000000 0.180055
vt 0.947376 0.180055
vt 0.947377 0.817170
vt 1.000000 0.817170
vt 0.074703 0.864111
vt 0.757367 0.858596
vt 0.764749 0.874155
vt 0.064459 0.873192
vt 0.057653 0.878774
vt 0.768002 0.880431
vt 0.784409 0.919080
vt 0.014286 0.916132
vt 0.839317 0.223979
vt 0.750400 0.136815
vt 0.757160 0.121577
vt 0.854469 0.216561
vt 0.860455 0.213260
vt 0.760049 0.115566
vt 0.775382 0.077624
vt 0.898001 0.196435
vt 0.053835 0.128257
vt 0.015524 0.091563
vt 0.070147 0.142453
vt 0.061078 0.133620
vt 0.794693 0.942404
vt 0.002634 0.931018
vt 0.012096 0.921571
vt 0.787318 0.925479
vt 0.920568 0.185874
vt 0.935237 0.803887
vt 0.917224 0.796704
vt 0.904154 0.193420
vt 0.869899 0.778183
vt 0.909704 0.793993
vt 0.784913 0.054820
vt 0.778080 0.071387
vt 0.002634 0.076841
vt 0.013275 0.086155
vt 0.846191 0.768487
vt 0.862672 0.775307
vn 1.0000 0.0000 0.0000
vn 0.0000 1.0000 0.0000
vn 0.0000 -0.7071 -0.7071
vn 0.0000 0.0000 1.0000
vn 0.0000 -1.0000 0.0000
vn 0.0000 0.7071 0.7071
vn 0.0000 0.0000 -1.0000
vn 0.0000 0.7071 -0.7071
vn 0.7071 -0.7071 0.0000
vn 0.7071 0.7071 0.0000
vn 0.0517 0.0012 -0.9987
vn 0.7072 0.5000 0.5000
vn 0.7071 -0.5000 0.5000
vn 0.7071 0.0000 0.7071
vn 0.7701 0.0008 0.6379
vn 0.7071 -0.5000 -0.5000
vn 0.7071 0.5000 -0.5000
vn 0.7071 0.0000 -0.7071
vn 0.0000 -0.7071 0.7071
vn -0.0000 0.0023 -1.0000
s off
f 2/1/1 7/2/1 12/3/1 19/4/1
f 19/4/1 12/3/1 23/5/1 18/6/1
f 1/7/1 18/6/1 23/5/1 24/8/1
f 4/9/1 3/10/1 17/11/1 8/12/1
f 8/12/1 17/11/1 16/13/1 21/14/1
f 15/15/1 22/16/1 21/14/1 16/13/1
f 9/17/1 10/18/1 14/19/1 13/20/1 20/21/1 11/22/1
f 7/2/1 6/23/1 25/24/1 12/3/1
f 12/3/1 25/24/1 23/5/1
f 21/14/1 26/25/1 8/12/1
f 5/26/1 4/9/1 8/12/1 26/25/1
f 6/23/1 5/26/1 26/25/1 25/24/1
f 10/27/2 9/28/2 39/29/2 42/30/2
f 41/31/1 40/32/1 27/33/1 30/34/1
f 20/35/3 13/36/3 44/37/3 48/38/3
f 47/39/1 43/40/1 32/41/1 36/42/1
f 46/43/1 41/31/1 30/34/1 33/44/1
f 14/45/4 10/27/4 42/30/4 45/46/4
f 43/40/1 46/43/1 33/44/1 32/41/1
f 21/47/5 22/48/5 29/49/5 28/50/5
f 25/51/4 26/52/4 38/53/4 35/54/4
f 50/55/1 47/39/1 36/42/1 37/56/1
f 23/57/6 25/51/6 35/54/6 31/58/6
f 24/59/2 23/57/2 31/58/2 34/60/2
f 11/61/7 20/35/7 48/38/7 49/62/7
f 40/32/1 50/55/1 37/56/1 27/33/1
f 13/36/5 14/45/5 45/46/5 44/37/5
f 9/28/8 11/61/8 49/62/8 39/29/8
f 28/50/9 29/49/9 30/34/9 27/33/9
f 32/41/10 33/44/10 34/60/10 31/58/10
f 24/59/11 34/60/11 29/49/11 22/48/11
f 31/58/12 35/54/12 36/42/12 32/41/12
f 27/33/13 37/56/13 38/53/13 28/50/13
f 37/56/14 36/42/14 35/54/14 38/53/14
f 41/31/15 46/43/15 45/46/15 42/30/15
f 40/32/10 41/31/10 42/30/10 39/29/10
f 44/37/9 45/46/9 46/43/9 43/40/9
f 43/40/16 47/39/16 48/38/16 44/37/16
f 39/29/17 49/62/17 50/55/17 40/32/17
f 49/62/18 48/38/18 47/39/18 50/55/18
f 26/52/19 21/47/19 28/50/19 38/53/19
f 34/60/20 33/44/20 30/34/20 29/49/20
