# Blender v2.80 (sub 75) OBJ File: 'dipset.blend'
# www.blender.org
o wall4a_2x4.007_Cube.047
v -1.671817 -0.000000 13.905719
v -1.671817 0.000000 11.905719
v -1.671817 2.000000 11.905720
v -1.671817 1.894445 11.905720
v -1.671817 1.638889 11.905720
v -1.671817 0.361112 11.905720
v -1.671817 0.105556 11.905719
v -1.671817 1.894445 12.011274
v -1.671817 1.794445 12.308252
v -1.671817 1.794444 13.805719
v -1.671817 1.597468 12.111275
v -1.671817 0.105556 12.011273
v -1.671817 0.205556 12.308251
v -1.671817 0.205555 13.805718
v -1.671817 2.000000 13.905720
v -1.671817 2.000000 12.266830
v -1.671817 2.000000 12.011276
v -1.671817 0.000000 12.266829
v -1.671817 0.000000 12.011275
v -1.671817 0.402533 12.111274
v -1.671817 1.894445 12.266830
v -1.671817 1.894444 13.905720
v -1.671817 0.105556 12.266829
v -1.671817 0.105555 13.905719
v -1.671817 0.361111 12.011273
v -1.671817 1.638889 12.011274
v -1.621817 1.884445 12.270973
v -1.631817 1.894445 12.266830
v -1.631817 1.894444 13.905720
v -1.621817 1.884444 13.905720
v -1.631817 0.105556 12.266829
v -1.621817 0.115556 12.270972
v -1.621817 0.115555 13.901577
v -1.631817 0.105555 13.901577
v -1.631817 0.361111 12.011273
v -1.621817 0.365254 12.021274
v -1.621817 1.634747 12.021275
v -1.631817 1.638889 12.011274
v -1.631817 1.794445 12.308252
v -1.621817 1.804445 12.304110
v -1.621817 1.804444 13.815720
v -1.631817 1.794444 13.805719
v -1.621817 0.195556 12.304109
v -1.631817 0.205556 12.308251
v -1.631817 0.205555 13.805718
v -1.621817 0.195555 13.819860
v -1.621817 0.398391 12.101274
v -1.631817 0.402533 12.111274
v -1.631817 1.597468 12.111275
v -1.621817 1.601610 12.101274
vt 0.002634 0.997223
vt 0.002634 0.944592
vt 0.055257 0.944592
vt 0.055258 0.997223
vt 0.182662 0.944592
vt 0.182662 0.997223
vt 0.999716 0.997224
vt 0.999716 0.944593
vt 0.002634 0.052631
vt 0.002634 0.000000
vt 0.055258 0.000000
vt 0.055257 0.052631
vt 0.182663 0.000000
vt 0.182663 0.052631
vt 0.999717 0.000000
vt 0.999717 0.052631
vt 0.270017 0.162880
vt 0.904584 0.162880
vt 0.904584 0.836283
vt 0.270017 0.836283
vt 0.186545 0.752800
vt 0.186545 0.246363
vt 0.002634 0.817169
vt 0.055257 0.817169
vt 0.055257 0.180054
vt 0.002634 0.180054
vt 0.927930 0.133113
vt 0.245267 0.138627
vt 0.237885 0.123069
vt 0.938174 0.124031
vt 0.944981 0.118450
vt 0.234632 0.116793
vt 0.218225 0.078144
vt 0.988347 0.081091
vt 0.163317 0.773245
vt 0.252234 0.860409
vt 0.245473 0.875647
vt 0.148165 0.780663
vt 0.142179 0.783964
vt 0.242585 0.881658
vt 0.227251 0.919600
vt 0.104633 0.800789
vt 0.948799 0.868966
vt 0.987110 0.905661
vt 0.932487 0.854771
vt 0.941556 0.863604
vt 0.207940 0.054820
vt 1.000000 0.066206
vt 0.990538 0.075653
vt 0.215316 0.071745
vt 0.082066 0.811350
vt 0.067396 0.193337
vt 0.085409 0.200520
vt 0.098480 0.803804
vt 0.132735 0.219041
vt 0.092930 0.203230
vt 0.217721 0.942404
vt 0.224554 0.925837
vt 1.000000 0.920383
vt 0.989359 0.911069
vt 0.156443 0.228736
vt 0.139961 0.221917
vn 1.0000 -0.0000 0.0000
vn 0.0000 -1.0000 -0.0000
vn 0.0000 0.7071 0.7071
vn 0.0000 0.0000 -1.0000
vn 0.0000 1.0000 0.0000
vn 0.0000 -0.7071 -0.7071
vn 0.0000 -0.0000 1.0000
vn 0.0000 -0.7071 0.7071
vn 0.7071 0.7071 0.0000
vn 0.7071 -0.7071 -0.0000
vn 0.0517 -0.0012 0.9987
vn 0.7071 -0.5000 -0.5000
vn 0.7071 0.5000 -0.5000
vn 0.7071 0.0000 -0.7071
vn 0.7700 -0.0008 -0.6380
vn 0.7071 0.5000 0.5000
vn 0.7071 -0.5000 0.5000
vn 0.7071 -0.0000 0.7071
vn 0.0000 0.7071 -0.7071
vn 0.0000 -0.0023 1.0000
s off
f 2/1/1 7/2/1 12/3/1 19/4/1
f 19/4/1 12/3/1 23/5/1 18/6/1
f 1/7/1 18/6/1 23/5/1 24/8/1
f 4/9/1 3/10/1 17/11/1 8/12/1
f 8/12/1 17/11/1 16/13/1 21/14/1
f 15/15/1 22/16/1 21/14/1 16/13/1
f 9/17/1 10/18/1 14/19/1 13/20/1 20/21/1 11/22/1
f 7/2/1 6/23/1 25/24/1 12/3/1
f 12/3/1 25/24/1 23/5/1
f 21/14/1 26/25/1 8/12/1
f 5/26/1 4/9/1 8/12/1 26/25/1
f 6/23/1 5/26/1 26/25/1 25/24/1
f 10/27/2 9/28/2 39/29/2 42/30/2
f 41/31/1 40/32/1 27/33/1 30/34/1
f 20/35/3 13/36/3 44/37/3 48/38/3
f 47/39/1 43/40/1 32/41/1 36/42/1
f 46/43/1 41/31/1 30/34/1 33/44/1
f 14/45/4 10/27/4 42/30/4 45/46/4
f 43/40/1 46/43/1 33/44/1 32/41/1
f 21/47/5 22/48/5 29/49/5 28/50/5
f 25/51/4 26/52/4 38/53/4 35/54/4
f 50/55/1 47/39/1 36/42/1 37/56/1
f 23/57/6 25/51/6 35/54/6 31/58/6
f 24/59/2 23/57/2 31/58/2 34/60/2
f 11/61/7 20/35/7 48/38/7 49/62/7
f 40/32/1 50/55/1 37/56/1 27/33/1
f 13/36/5 14/45/5 45/46/5 44/37/5
f 9/28/8 11/61/8 49/62/8 39/29/8
f 28/50/9 29/49/9 30/34/9 27/33/9
f 32/41/10 33/44/10 34/60/10 31/58/10
f 24/59/11 34/60/11 29/49/11 22/48/11
f 31/58/12 35/54/12 36/42/12 32/41/12
f 27/33/13 37/56/13 38/53/13 28/50/13
f 37/56/14 36/42/14 35/54/14 38/53/14
f 41/31/15 46/43/15 45/46/15 42/30/15
f 40/32/10 41/31/10 42/30/10 39/29/10
f 44/37/9 45/46/9 46/43/9 43/40/9
f 43/40/16 47/39/16 48/38/16 44/37/16
f 39/29/17 49/62/17 50/55/17 40/32/17
f 49/62/18 48/38/18 47/39/18 50/55/18
f 26/52/19 21/47/19 28/50/19 38/53/19
f 34/60/20 33/44/20 30/34/20 29/49/20
