# Blender v2.80 (sub 75) OBJ File: 'Modular Asset - Floor Tile - Large.blend'
# www.blender.org
mtllib Modular Asset - Floor Tile - Large.mtl
o Floor_Tile_-_Large_Plane.002
v -4.000000 0.000000 0.000000
v 0.000000 0.000000 0.000000
v -4.000000 0.000000 -4.000000
v 0.000000 0.000000 -4.000000
v -4.000000 0.100000 0.000000
v 0.000000 0.100000 0.000000
v -4.000000 0.100000 -4.000000
v 0.000000 0.100000 -4.000000
vt 0.000061 0.250153
vt 0.250030 0.250153
vt 0.250030 0.500122
vt 0.000061 0.500122
vt 0.250030 0.000061
vt 0.250030 0.250030
vt 0.000061 0.250030
vt 0.000061 0.000061
vt 0.262651 0.250028
vt 0.262651 0.499996
vt 0.250153 0.499996
vt 0.250153 0.250028
vt 0.262651 0.749966
vt 0.262651 0.999939
vt 0.250153 0.999939
vt 0.250153 0.749966
vt 0.262651 0.000061
vt 0.250153 0.000061
vn 0.0000 -1.0000 0.0000
vn 0.0000 1.0000 0.0000
vn 0.0000 0.0000 -1.0000
vn 0.0000 0.0000 1.0000
vn 1.0000 0.0000 0.0000
vn -1.0000 0.0000 0.0000
usemtl None
s off
f 1/1/1 3/2/1 4/3/1 2/4/1
f 5/5/2 6/6/2 8/7/2 7/8/2
f 4/9/3 3/10/3 7/11/3 8/12/3
f 1/13/4 2/14/4 6/15/4 5/16/4
f 2/17/5 4/9/5 8/12/5 6/18/5
f 3/10/6 1/13/6 5/16/6 7/11/6
