# Blender v2.80 (sub 75) OBJ File: 'MA - Wall (Simple) - Side.blend'
# www.blender.org
o Wall_-_Basic_Cube.011
v 0.000000 0.000000 -4.000000
v 0.600000 0.000000 -4.000000
v 0.000000 0.000000 -3.699996
v 0.600000 0.000000 -3.699996
v 0.000000 0.000000 -0.299996
v 0.600000 0.000000 -0.299996
v 0.000000 0.000000 -0.000000
v 0.600000 0.000000 -0.000000
v 0.150000 0.000000 -0.299996
v 0.450000 0.000000 -0.299996
v 0.150000 0.000000 -3.699996
v 0.450000 0.000000 -3.699996
v 0.177895 0.700000 -0.299996
v 0.150000 0.607018 -0.299996
v 0.000000 0.811031 -0.299996
v 0.158171 0.672766 -0.299996
v 0.450000 0.607018 -0.299996
v 0.422105 0.700000 -0.299996
v 0.600000 0.811031 -0.299996
v 0.441830 0.672766 -0.299996
v 0.150000 0.607018 -3.699996
v 0.177895 0.700000 -3.699996
v 0.000000 0.811031 -3.699996
v 0.158171 0.672766 -3.699996
v 0.422105 0.700000 -3.699996
v 0.450000 0.607018 -3.699996
v 0.600000 0.811031 -3.699996
v 0.441830 0.672766 -3.699996
v 0.000000 0.811031 -4.000000
v 0.026691 0.900000 -4.000000
v 0.007818 0.873942 -4.000000
v 0.573309 0.900000 -4.000000
v 0.600000 0.811031 -4.000000
v 0.592182 0.873942 -4.000000
v 0.026691 0.900000 -3.726687
v 0.007818 0.873942 -3.707814
v 0.573309 0.900000 -3.726687
v 0.592183 0.873942 -3.707814
v 0.026691 0.900000 -0.273306
v 0.007817 0.873942 -0.292179
v 0.573309 0.900000 -0.273305
v 0.592183 0.873942 -0.292179
v 0.026691 0.900000 -0.000000
v 0.000000 0.811031 -0.000000
v 0.007818 0.873942 -0.000000
v 0.600000 0.811031 -0.000000
v 0.573309 0.900000 -0.000000
v 0.592182 0.873942 -0.000000
vt 0.875000 0.511121
vt 0.647242 0.738879
vt 0.647242 0.511121
vt 0.625000 0.023246
vt 0.625000 0.367372
vt 0.625000 0.129497
vt 0.591792 0.000000
vt 0.375000 1.000000
vt 0.668166 0.129497
vt 0.600286 0.000000
vt 0.375000 0.250000
vt 0.375000 0.000000
vt 0.600286 0.250000
vt 0.375000 0.500000
vt 0.375000 0.250000
vt 0.591792 0.250000
vt 0.591792 0.250000
vt 0.600286 0.500000
vt 0.375000 0.750000
vt 0.375000 0.500000
vt 0.625000 0.226754
vt 0.763790 0.437788
vt 0.668166 0.293166
vt 0.852757 0.511121
vt 0.625000 0.738879
vt 0.625000 0.511121
vt 0.375000 0.250000
vt 0.825573 0.475286
vt 0.375000 0.750000
vt 0.591792 0.000000
vt 0.600286 0.750000
vt 0.625000 0.023246
vt 0.625000 0.293166
vt 0.600286 0.750000
vt 0.600286 0.250000
vt 0.625000 0.006809
vt 0.625000 0.000000
vt 0.615274 0.250000
vt 0.625000 0.250000
vt 0.615274 0.000000
vt 0.625000 0.000000
vt 0.625000 0.226754
vt 0.625000 0.243191
vt 0.625000 0.250000
vt 0.625000 0.000000
vt 0.625000 0.000000
vt 0.625000 0.250000
vt 0.625000 0.250000
vt 0.375000 0.000000
vt 0.375000 0.000000
vt 0.875000 0.500000
vt 0.625000 0.493486
vt 0.625000 0.250000
vt 0.625000 0.503257
vt 0.625000 0.746743
vt 0.875000 0.750000
vt 0.631514 0.750000
vt 0.625000 0.756514
vt 0.600286 1.000000
vt 0.875000 0.746743
vt 0.852757 0.738879
vt 0.875000 0.503257
vt 0.625000 0.500000
vt 0.868485 0.500000
vt 0.625000 0.256515
vt 0.625000 0.750000
vt 0.625000 0.993485
vt 0.375000 1.000000
vt 0.617762 0.503257
vt 0.617762 0.746743
vt 0.617762 0.246743
vt 0.617762 0.003257
vt 0.625000 0.238879
vt 0.875000 0.738879
vt 0.600286 0.500000
vt 0.375000 0.250000
vt 0.600286 1.000000
vt 0.631514 0.500000
vt 0.625000 0.437788
vt 0.625000 1.000000
vt 0.763790 0.367372
vt 0.868485 0.750000
vt 0.625000 0.011121
vn 0.0000 1.0000 0.0000
vn 0.0000 0.0000 1.0000
vn 0.0000 0.0000 -1.0000
vn 1.0000 0.0000 0.0000
vn -1.0000 0.0000 -0.0000
vn -0.8099 0.5866 -0.0000
vn -0.9924 0.1233 -0.0000
vn 0.9924 0.1233 0.0000
vn 0.8099 0.5866 0.0000
vn 0.0000 0.5866 0.8099
vn 0.0000 0.1233 0.9924
vn 0.0000 0.5866 -0.8099
vn 0.0000 0.1233 -0.9924
s off
f 32/1/1 35/2/1 37/3/1
f 22/4/2 27/5/2 23/6/2
f 14/7/3 5/8/3 15/9/3
f 29/10/3 2/11/3 1/12/3
f 33/13/4 4/14/4 2/11/4
f 10/15/4 26/16/4 17/17/4
f 46/18/2 7/19/2 8/20/2
f 18/21/3 15/22/3 19/23/3
f 41/24/1 43/25/1 47/26/1
f 6/27/3 17/17/3 19/28/3
f 3/29/2 21/30/2 23/31/2
f 18/21/1 22/4/1 13/32/1
f 26/16/2 4/14/2 27/33/2
f 44/34/5 5/8/5 7/19/5
f 19/35/4 8/20/4 6/27/4
f 13/32/3 16/36/3 15/9/3
f 16/36/3 14/37/3 15/9/3
f 17/17/3 20/38/3 19/23/3
f 20/38/3 18/39/3 19/23/3
f 21/30/2 24/40/2 23/6/2
f 24/40/2 22/41/2 23/6/2
f 25/42/2 28/43/2 27/33/2
f 28/43/2 26/44/2 27/33/2
f 22/4/6 16/45/6 13/32/6
f 24/46/7 14/7/7 16/45/7
f 26/16/8 20/47/8 17/17/8
f 28/48/9 18/21/9 20/47/9
f 14/7/5 11/49/5 9/50/5
f 37/3/9 34/51/9 32/1/9
f 38/52/8 33/13/8 34/53/8
f 35/2/10 38/54/10 37/3/10
f 36/55/11 27/5/11 38/54/11
f 35/2/6 31/56/6 36/57/6
f 36/58/7 29/59/7 23/31/7
f 41/24/12 40/60/12 39/61/12
f 42/62/13 15/22/13 40/60/13
f 41/24/9 48/63/9 42/64/9
f 42/65/8 46/18/8 19/35/8
f 39/61/6 45/66/6 43/25/6
f 40/67/7 44/34/7 45/66/7
f 23/31/5 1/68/5 3/29/5
f 48/69/2 43/25/2 45/70/2
f 46/18/2 45/70/2 44/34/2
f 29/10/3 34/71/3 33/13/3
f 31/72/3 32/73/3 34/71/3
f 32/1/1 30/74/1 35/2/1
f 22/4/2 25/42/2 27/5/2
f 14/7/3 9/50/3 5/8/3
f 29/10/3 33/13/3 2/11/3
f 33/13/4 27/75/4 4/14/4
f 10/15/4 12/76/4 26/16/4
f 46/18/2 44/34/2 7/19/2
f 18/21/3 13/32/3 15/22/3
f 41/24/1 39/61/1 43/25/1
f 6/27/3 10/15/3 17/17/3
f 3/29/2 11/49/2 21/30/2
f 18/21/1 25/42/1 22/4/1
f 26/16/2 12/76/2 4/14/2
f 44/34/5 15/77/5 5/8/5
f 19/35/4 46/18/4 8/20/4
f 22/4/6 24/46/6 16/45/6
f 24/46/7 21/30/7 14/7/7
f 26/16/8 28/48/8 20/47/8
f 28/48/9 25/42/9 18/21/9
f 14/7/5 21/30/5 11/49/5
f 37/3/9 38/78/9 34/51/9
f 38/52/8 27/75/8 33/13/8
f 35/2/10 36/55/10 38/54/10
f 36/55/11 23/79/11 27/5/11
f 35/2/6 30/74/6 31/56/6
f 36/58/7 31/80/7 29/59/7
f 41/24/12 42/62/12 40/60/12
f 42/62/13 19/81/13 15/22/13
f 41/24/9 47/26/9 48/63/9
f 42/65/8 48/63/8 46/18/8
f 39/61/6 40/82/6 45/66/6
f 40/67/7 15/77/7 44/34/7
f 23/31/5 29/59/5 1/68/5
f 48/69/2 47/26/2 43/25/2
f 46/18/2 48/69/2 45/70/2
f 29/10/3 31/72/3 34/71/3
f 31/72/3 30/83/3 32/73/3
