# Blender v2.80 (sub 75) OBJ File: 'Modular Asset - Ramp - Narrow.blend'
# www.blender.org
o Ramp_Base_-_Narrow_Cube.022
v 0.000000 0.100000 0.000000
v 0.000000 0.255322 0.000000
v 0.080000 0.100000 -0.400000
v 0.080000 0.155322 -0.400000
v 0.400000 0.100000 0.000000
v 0.400000 0.255322 0.000000
v 0.320000 0.100000 -0.400000
v 0.320000 0.155322 -0.400000
v 0.000000 0.255322 -0.400000
v 0.000000 0.100000 -0.400000
v 0.400000 0.100000 -0.400000
v 0.400000 0.255322 -0.400000
v 0.320000 2.100000 -7.600000
v 3.600000 0.100000 0.000000
v 3.600000 0.255322 0.000000
v 3.680000 0.100000 -0.400000
v 3.680000 0.155320 -0.400000
v 4.000000 0.100000 0.000000
v 4.000000 0.255322 0.000000
v 3.920000 0.100000 -0.400000
v 3.920000 0.155320 -0.400000
v 3.600000 0.255322 -0.400000
v 3.600000 0.100000 -0.400000
v 4.000000 0.100000 -0.400000
v 4.000000 0.255322 -0.400000
v 3.680000 2.100000 -7.600000
v 3.680000 2.155322 -7.600000
v 3.920000 1.887458 -7.450218
v 0.080000 0.100000 -7.600000
v 3.920000 0.100000 -7.600000
v 3.640000 0.355322 -0.040000
v 3.960000 0.355322 -0.040000
v 3.640000 0.355322 -0.360000
v 3.960000 0.355322 -0.360000
v 0.040000 0.355322 -0.040000
v 0.360000 0.355322 -0.040000
v 0.040000 0.355322 -0.360000
v 0.360000 0.355322 -0.360000
v 0.080000 2.100000 -7.600000
v 3.920000 2.100000 -7.600000
v 0.080000 0.249783 -1.264727
v 3.920000 0.249783 -1.264727
v 3.920000 0.249783 -7.450218
v 0.080000 0.249783 -7.450218
v 0.080000 1.887458 -7.450218
v 3.600000 0.000000 0.000000
v 0.400000 0.000000 0.000000
v 0.000000 0.000000 0.000000
v 4.000000 2.100000 -8.000001
v 4.000000 2.171755 -8.000001
v 3.920000 2.155322 -7.600001
v 3.599999 2.100000 -8.000001
v 3.599999 2.171755 -8.000001
v 4.000000 2.171760 -7.600001
v 4.000000 2.100000 -7.600001
v 3.599999 2.100000 -7.600001
v 3.599999 2.171760 -7.600001
v 0.399999 2.100000 -8.000001
v 0.399999 2.171755 -8.000001
v 0.319999 2.155322 -7.600001
v -0.000000 2.100000 -8.000001
v -0.000000 2.171755 -8.000001
v 0.079999 2.155322 -7.600001
v 0.399999 2.171755 -7.600001
v 0.399999 2.100000 -7.600001
v -0.000000 2.100000 -7.600001
v -0.000000 2.171755 -7.600001
v 4.000000 0.100000 -8.000001
v 3.599999 0.100000 -8.000001
v 4.000000 0.100000 -7.600001
v 0.399999 0.100000 -8.000001
v -0.000000 0.100000 -8.000001
v -0.000000 0.100000 -7.600001
v 0.000000 0.000000 -0.400000
v 0.200000 1.887458 -7.450218
v 0.200000 0.249783 -7.450218
v 0.200000 0.249783 -1.264727
v 3.800000 0.249783 -1.264727
v 3.800000 0.249783 -7.450218
v 3.824000 1.887458 -7.450218
v 4.000000 0.000000 0.000000
v 4.000000 0.000000 -0.400000
v 4.000000 0.000000 -8.000001
v 3.599999 0.000000 -8.000001
v 4.000000 0.000000 -7.600001
v 0.399999 0.000000 -8.000001
v -0.000000 0.000000 -8.000001
v -0.000000 0.000000 -7.600001
v 0.399999 0.000000 -7.600001
v 0.400000 0.000000 -0.400000
v 3.600000 0.000000 -7.600001
v 3.600001 0.000000 -0.400000
vt 0.325441 0.037789
vt 0.080219 0.010064
vt 0.325441 0.010064
vt 0.882609 0.072671
vt 0.870891 0.114598
vt 0.867266 0.071607
vt 0.118362 0.884919
vt 0.624246 0.893750
vt 0.118350 0.893750
vt 0.899753 0.022921
vt 0.871344 0.051720
vt 0.886313 0.017108
vt 0.885028 0.055918
vt 0.894620 0.057716
vt 0.893082 0.073446
vt 0.878474 0.117817
vt 0.887769 0.110791
vt 0.710763 0.149040
vt 0.683527 0.148881
vt 0.719840 0.148881
vt 0.896075 0.130842
vt 0.883576 0.130774
vt 0.879303 0.137446
vt 0.877603 0.133127
vt 0.711489 0.669190
vt 0.702410 0.673376
vt 0.702410 0.669190
vt 0.623180 0.902561
vt 0.117283 0.902561
vt 0.621811 0.876108
vt 0.624258 0.884920
vt 0.701683 0.149040
vt 0.883475 0.212124
vt 0.879029 0.257928
vt 0.867266 0.213915
vt 0.621810 0.866669
vt 0.115927 0.857839
vt 0.621822 0.857839
vt 0.890386 0.160771
vt 0.867719 0.192391
vt 0.877586 0.155781
vt 0.882742 0.194245
vt 0.889177 0.144226
vt 0.886496 0.138149
vt 0.899541 0.145780
vt 0.747588 0.149040
vt 0.720352 0.148881
vt 0.756666 0.148881
vt 0.883931 0.154172
vt 0.879000 0.152216
vt 0.748314 0.669190
vt 0.739235 0.673376
vt 0.739235 0.669190
vt 0.116994 0.849027
vt 0.622888 0.849027
vt 0.118362 0.875481
vt 0.115914 0.866669
vt 0.738509 0.149040
vt 0.700705 0.069121
vt 0.728390 0.093788
vt 0.700705 0.093788
vt 0.672410 0.069121
vt 0.700095 0.093788
vt 0.672410 0.093789
vt 0.906878 0.244226
vt 0.896933 0.252646
vt 0.894549 0.210843
vt 0.893018 0.194154
vt 0.898881 0.165096
vt 0.898540 0.106490
vt 0.906955 0.123187
vt 0.823290 0.533630
vt 0.830573 0.991709
vt 0.820977 0.978489
vt 0.831085 0.981998
vt 0.982202 0.537500
vt 0.844438 0.972340
vt 0.994228 0.993308
vt 0.986188 0.984092
vt 0.665942 0.952230
vt 0.676514 0.945862
vt 0.578645 0.616544
vt 0.618668 0.608856
vt 0.618138 0.618748
vt 0.080219 0.583476
vt 0.325441 0.555750
vt 0.325441 0.583476
vt 0.653926 0.441277
vt 0.647300 0.551082
vt 0.647064 0.441292
vt 0.400748 0.613304
vt 0.559569 0.606146
vt 0.559339 0.615957
vt 0.654192 0.564791
vt 0.647330 0.564806
vt 0.647034 0.427568
vt 0.374073 0.796903
vt 0.346159 0.799983
vt 0.378014 0.790179
vt 0.350314 0.837729
vt 0.384383 0.810626
vt 0.396432 0.812354
vt 0.349249 0.808313
vt 0.350780 0.804697
vt 0.351191 0.822123
vt 0.354418 0.825333
vt 0.343205 0.831955
vt 0.570879 0.814578
vt 0.603644 0.833764
vt 0.556270 0.816101
vt 0.602156 0.804872
vt 0.575527 0.795215
vt 0.605484 0.801347
vt 0.578103 0.801987
vt 0.602028 0.820541
vt 0.599154 0.823571
vt 0.603564 0.808041
vt 0.608869 0.803654
vt 0.702358 0.131076
vt 0.733193 0.097545
vt 0.733193 0.131076
vt 0.666318 0.130826
vt 0.697152 0.097294
vt 0.697152 0.130826
vt 0.380815 0.613055
vt 0.340374 0.613148
vt 0.342320 0.802928
vt 0.621822 0.619006
vt 0.071179 0.555822
vt 0.080219 0.037789
vt 0.080219 0.555750
vt 0.334480 0.037899
vt 0.334480 0.555859
vt 0.380878 0.603022
vt 0.812619 0.580758
vt 0.689361 0.943810
vt 0.730242 0.011718
vt 0.849171 0.011364
vt 0.850508 0.460556
vt 0.849890 0.969310
vt 0.972995 0.600770
vt 0.980520 0.976907
vt 0.864486 0.458982
vt 0.983418 0.009787
vt 0.983418 0.458982
vt 0.640528 0.007032
vt 0.646975 0.400121
vt 0.640114 0.400168
vt 0.640116 0.985438
vt 0.647389 0.592254
vt 0.646977 0.985391
vt 0.654251 0.592239
vt 0.647389 0.006985
vt 0.653837 0.400106
vt 0.653896 0.427554
vt 0.579076 0.606747
vt 0.653839 0.985377
vt 0.400902 0.603335
vt 0.359269 0.039772
vt 0.344745 0.010724
vt 0.359269 0.010724
vt 0.609780 0.039772
vt 0.624304 0.010724
vt 0.624304 0.039772
vt 0.344742 0.562634
vt 0.344745 0.039772
vt 0.624307 0.591684
vt 0.609782 0.562634
vt 0.624307 0.562634
vt 0.344742 0.591684
vt 0.359267 0.562634
vt 0.359267 0.591684
vt 0.609780 0.010724
vt 0.609782 0.591684
vt 0.871966 0.119304
vt 0.711489 0.673376
vt 0.115914 0.876108
vt 0.906955 0.030281
vt 0.884531 0.141508
vt 0.748314 0.673376
vt 0.624257 0.875481
vt 0.728390 0.069121
vt 0.700095 0.069121
vt 0.906878 0.152711
vt 0.830573 0.475753
vt 0.994228 0.475753
vt 0.654162 0.551068
vt 0.609368 0.828457
vt 0.702358 0.097545
vt 0.666318 0.097294
vt 0.336581 0.613263
vt 0.071179 0.037861
vt 0.340374 0.603022
vt 0.815607 0.970695
vt 0.640528 0.592300
vt 0.654251 0.006971
vn 0.0000 1.0000 0.0000
vn -1.0000 0.0000 0.0000
vn 0.0000 0.9635 0.2676
vn 1.0000 0.0000 0.0000
vn 0.0000 0.0000 1.0000
vn 0.0000 0.3714 0.9285
vn 0.0000 0.0000 -1.0000
vn 0.0000 -0.9635 -0.2676
vn 0.9285 0.3714 0.0000
vn -0.9285 0.3714 0.0000
vn 0.0000 0.3714 -0.9285
vn -0.0000 -0.9667 -0.2559
vn -0.0000 0.9667 0.2559
vn 0.9999 -0.0147 0.0000
vn 0.0000 -1.0000 -0.0000
s off
f 23/1/1 5/2/1 14/3/1
f 2/4/2 10/5/2 1/6/2
f 8/7/3 63/8/3 4/9/3
f 12/10/4 5/11/4 11/12/4
f 6/13/5 1/6/5 5/11/5
f 2/4/6 36/14/6 35/15/6
f 4/16/7 10/5/7 9/17/7
f 3/18/5 11/19/5 10/20/5
f 4/16/7 12/21/7 8/22/7
f 8/22/7 11/23/7 7/24/7
f 39/25/7 60/26/7 13/27/7
f 4/9/2 39/28/2 3/29/2
f 8/7/4 13/30/4 60/31/4
f 3/18/8 13/27/8 7/32/8
f 15/33/2 23/34/2 14/35/2
f 21/36/3 27/37/3 17/38/3
f 25/39/4 18/40/4 24/41/4
f 19/42/5 14/35/5 18/40/5
f 12/10/9 36/14/9 6/13/9
f 17/43/7 23/44/7 22/45/7
f 16/46/5 24/47/5 23/48/5
f 17/43/7 25/39/7 21/49/7
f 21/49/7 24/41/7 20/50/7
f 26/51/7 51/52/7 40/53/7
f 17/38/2 26/54/2 16/55/2
f 21/36/4 40/56/4 51/57/4
f 16/46/8 40/53/8 20/58/8
f 33/59/1 32/60/1 34/61/1
f 37/62/1 36/63/1 38/64/1
f 15/33/10 33/65/10 22/66/10
f 19/42/6 31/67/6 15/33/6
f 25/39/9 32/68/9 19/42/9
f 22/45/11 34/69/11 25/39/11
f 2/4/10 37/70/10 9/17/10
f 9/17/11 38/71/11 12/21/11
f 41/72/2 39/73/2 45/74/2
f 40/75/4 42/76/4 28/77/4
f 30/78/4 28/77/4 43/79/4
f 45/74/2 29/80/2 44/81/2
f 42/76/4 30/78/4 43/79/4
f 29/80/2 41/72/2 44/81/2
f 72/82/2 88/83/2 73/84/2
f 58/85/1 56/86/1 52/87/1
f 47/88/5 14/89/5 5/90/5
f 69/91/7 86/92/7 71/93/7
f 14/89/5 81/94/5 18/95/5
f 1/96/5 47/88/5 5/90/5
f 50/97/4 55/98/4 49/99/4
f 56/100/2 53/101/2 52/102/2
f 53/101/7 49/99/7 52/102/7
f 51/103/5 55/98/5 54/104/5
f 27/105/5 54/104/5 57/106/5
f 27/105/5 56/100/5 26/107/5
f 59/108/4 65/109/4 58/110/4
f 67/111/2 61/112/2 66/113/2
f 62/114/7 58/110/7 61/112/7
f 60/115/5 65/109/5 64/116/5
f 60/115/5 67/111/5 63/117/5
f 63/117/5 66/113/5 39/118/5
f 53/119/1 54/120/1 50/121/1
f 62/122/1 64/123/1 59/124/1
f 68/125/7 52/102/7 49/99/7
f 68/125/4 55/98/4 70/126/4
f 40/127/5 70/126/5 55/98/5
f 69/91/7 58/110/7 52/102/7
f 66/113/5 29/128/5 39/118/5
f 72/82/2 66/113/2 61/112/2
f 71/93/7 61/112/7 58/110/7
f 13/129/3 11/130/3 65/131/3
f 56/86/3 16/132/3 26/133/3
f 65/131/3 23/1/3 56/86/3
f 70/126/4 83/134/4 68/125/4
f 45/74/12 77/135/12 41/72/12
f 77/135/1 44/81/1 41/72/1
f 76/136/5 45/74/5 44/81/5
f 75/137/2 76/138/2 77/139/2
f 80/140/5 43/79/5 28/77/5
f 42/76/13 80/140/13 78/141/13
f 79/142/1 42/76/1 43/79/1
f 80/143/14 78/144/14 79/145/14
f 29/146/1 10/147/1 3/148/1
f 30/149/1 24/150/1 70/151/1
f 18/95/4 82/152/4 24/150/4
f 73/153/2 74/154/2 10/147/2
f 10/147/2 48/155/2 1/96/2
f 71/93/7 87/156/7 72/82/7
f 24/150/4 85/157/4 70/151/4
f 68/125/7 84/158/7 69/91/7
f 89/159/15 87/160/15 86/161/15
f 91/162/15 83/163/15 85/164/15
f 89/159/15 74/165/15 88/166/15
f 81/167/15 92/168/15 82/169/15
f 48/170/15 90/171/15 47/172/15
f 89/159/15 84/173/15 91/162/15
f 46/174/15 90/171/15 92/168/15
f 89/159/15 92/168/15 90/171/15
f 91/162/15 82/169/15 92/168/15
f 23/1/1 11/130/1 5/2/1
f 2/4/2 9/17/2 10/5/2
f 8/7/3 60/31/3 63/8/3
f 12/10/4 6/13/4 5/11/4
f 6/13/5 2/4/5 1/6/5
f 2/4/6 6/13/6 36/14/6
f 4/16/7 3/175/7 10/5/7
f 3/18/5 7/32/5 11/19/5
f 4/16/7 9/17/7 12/21/7
f 8/22/7 12/21/7 11/23/7
f 39/25/7 63/176/7 60/26/7
f 4/9/2 63/8/2 39/28/2
f 8/7/4 7/177/4 13/30/4
f 3/18/8 39/25/8 13/27/8
f 15/33/2 22/66/2 23/34/2
f 21/36/3 51/57/3 27/37/3
f 25/39/4 19/42/4 18/40/4
f 19/42/5 15/33/5 14/35/5
f 12/10/9 38/178/9 36/14/9
f 17/43/7 16/179/7 23/44/7
f 16/46/7 20/58/7 24/47/7
f 17/43/7 22/45/7 25/39/7
f 21/49/7 25/39/7 24/41/7
f 26/51/7 27/180/7 51/52/7
f 17/38/2 27/37/2 26/54/2
f 21/36/4 20/181/4 40/56/4
f 16/46/8 26/51/8 40/53/8
f 33/59/1 31/182/1 32/60/1
f 37/62/1 35/183/1 36/63/1
f 15/33/10 31/67/10 33/65/10
f 19/42/6 32/68/6 31/67/6
f 25/39/9 34/69/9 32/68/9
f 22/45/11 33/184/11 34/69/11
f 2/4/10 35/15/10 37/70/10
f 9/17/11 37/70/11 38/71/11
f 41/72/2 3/185/2 39/73/2
f 40/75/4 20/186/4 42/76/4
f 30/78/4 40/75/4 28/77/4
f 45/74/2 39/73/2 29/80/2
f 42/76/4 20/186/4 30/78/4
f 29/80/2 3/185/2 41/72/2
f 72/82/2 87/156/2 88/83/2
f 58/85/1 65/131/1 56/86/1
f 47/88/5 46/187/5 14/89/5
f 69/91/7 84/158/7 86/92/7
f 14/89/5 46/187/5 81/94/5
f 1/96/5 48/155/5 47/88/5
f 50/97/4 54/104/4 55/98/4
f 56/100/2 57/106/2 53/101/2
f 53/101/7 50/97/7 49/99/7
f 51/103/5 40/127/5 55/98/5
f 27/105/5 51/103/5 54/104/5
f 27/105/5 57/106/5 56/100/5
f 59/108/4 64/116/4 65/109/4
f 67/111/2 62/114/2 61/112/2
f 62/114/7 59/108/7 58/110/7
f 60/115/5 13/188/5 65/109/5
f 60/115/5 64/116/5 67/111/5
f 63/117/5 67/111/5 66/113/5
f 53/119/1 57/189/1 54/120/1
f 62/122/1 67/190/1 64/123/1
f 68/125/7 69/91/7 52/102/7
f 68/125/4 49/99/4 55/98/4
f 40/127/5 30/191/5 70/126/5
f 69/91/7 71/93/7 58/110/7
f 66/113/5 73/84/5 29/128/5
f 72/82/2 73/84/2 66/113/2
f 71/93/7 72/82/7 61/112/7
f 13/129/3 7/192/3 11/130/3
f 56/86/3 23/1/3 16/132/3
f 65/131/3 11/130/3 23/1/3
f 70/126/4 85/193/4 83/134/4
f 45/74/12 75/194/12 77/135/12
f 77/135/1 76/136/1 44/81/1
f 76/136/5 75/194/5 45/74/5
f 80/140/5 79/142/5 43/79/5
f 42/76/13 28/77/13 80/140/13
f 79/142/1 78/141/1 42/76/1
f 29/146/1 73/153/1 10/147/1
f 30/149/1 20/195/1 24/150/1
f 18/95/4 81/94/4 82/152/4
f 73/153/2 88/196/2 74/154/2
f 10/147/2 74/154/2 48/155/2
f 71/93/7 86/92/7 87/156/7
f 24/150/4 82/152/4 85/157/4
f 68/125/7 83/134/7 84/158/7
f 89/159/15 88/166/15 87/160/15
f 91/162/15 84/173/15 83/163/15
f 89/159/15 90/171/15 74/165/15
f 81/167/15 46/174/15 92/168/15
f 48/170/15 74/165/15 90/171/15
f 89/159/15 86/161/15 84/173/15
f 46/174/15 47/172/15 90/171/15
f 89/159/15 91/162/15 92/168/15
f 91/162/15 85/164/15 82/169/15
