# Blender v2.80 (sub 75) OBJ File: 'Modular Asset - Ramp - Large.blend'
# www.blender.org
mtllib Modular Asset - Ramp - Large.mtl
o Ramp_-_Wide_Cube.043
v 0.000000 0.100000 0.000000
v 0.000000 1.000000 0.000000
v -0.400000 0.100000 -0.080000
v -0.400000 0.900000 -0.080000
v -0.000000 0.100000 -0.400000
v -0.000000 1.000000 -0.400000
v -0.400000 0.100000 -0.320000
v -0.400000 0.900000 -0.320000
v -0.400000 1.000000 0.000000
v -0.400000 0.100000 0.000000
v -0.400000 0.100000 -0.400000
v -0.400000 1.000000 -0.400000
v -7.600000 2.100000 -0.320000
v -0.000000 0.100000 -7.600000
v -0.000000 1.000000 -7.600000
v -0.400000 0.100000 -7.680000
v -0.400000 0.900000 -7.680000
v -0.000000 0.100000 -8.000000
v -0.000000 1.000000 -8.000000
v -0.400000 0.100000 -7.920000
v -0.400000 0.900000 -7.920000
v -0.400000 1.000000 -7.600000
v -0.400000 0.100000 -7.600000
v -0.400000 0.100000 -8.000000
v -0.400000 1.000000 -8.000000
v -7.600001 2.100000 -7.680000
v -7.600001 2.900000 -7.680000
v -7.450218 1.887458 -7.920000
v -7.600000 0.100000 -0.080000
v -7.600001 0.100000 -7.920000
v -0.040000 1.100000 -7.640000
v -0.040000 1.100000 -7.960000
v -0.360000 1.100000 -7.640000
v -0.360000 1.100000 -7.960000
v -0.040000 1.100000 -0.040000
v -0.040000 1.100000 -0.360000
v -0.360000 1.100000 -0.040000
v -0.360000 1.100000 -0.360000
v -7.600000 2.100000 -0.080000
v -7.600001 2.100000 -7.920000
v -1.264727 0.249782 -0.080000
v -1.264727 0.249782 -7.920000
v -7.450218 0.249783 -7.920000
v -7.450218 0.249783 -0.080000
v -7.450218 1.887458 -0.080000
v -1.264727 0.249782 -7.680000
v -7.450218 0.249783 -7.679999
v -1.264727 0.249782 -0.320000
v -7.450218 0.249783 -0.320000
v -7.450218 1.887458 -0.320000
v -7.450218 1.887458 -7.728000
v -8.000001 2.100000 -7.999999
v -8.000001 3.000000 -7.999999
v -7.600001 2.900000 -7.919999
v -8.000001 2.100000 -7.599999
v -8.000001 3.000000 -7.599999
v -7.600001 3.000000 -7.999999
v -7.600001 2.100000 -7.999999
v -7.600001 2.100000 -7.599999
v -7.600001 3.000000 -7.599999
v -8.000001 2.100000 -0.399999
v -8.000001 3.000000 -0.399999
v -7.600001 2.900000 -0.319999
v -8.000001 2.100000 0.000001
v -8.000001 3.000000 0.000001
v -7.600001 2.900000 -0.079999
v -7.600001 3.000000 -0.399999
v -7.600001 2.100000 -0.399999
v -7.600001 2.100000 0.000001
v -7.600001 3.000000 0.000001
v -7.960001 3.100000 -0.359999
v -7.960001 3.100000 -0.039999
v -7.640001 3.100000 -0.359999
v -7.640001 3.100000 -0.039999
v -7.960001 3.100000 -7.959999
v -7.960001 3.100000 -7.639999
v -7.640001 3.100000 -7.959999
v -7.640001 3.100000 -7.639999
v -8.000001 0.100000 -7.999999
v -8.000001 0.100000 -7.599999
v -7.600001 0.100000 -7.999999
v -8.000001 0.100000 -0.399999
v -7.600001 0.100000 0.000001
v -7.600001 0.100000 -7.679999
v -7.600000 0.100000 -0.320000
v -7.600001 0.100000 -7.599999
v -7.600001 0.100000 -0.399999
v 0.000000 0.000000 0.000000
v -8.000000 0.000000 0.000000
v -8.000000 0.100000 0.000000
v -0.000000 0.000000 -8.000000
v -8.000000 0.000000 -8.000000
vt 0.433759 0.328105
vt 0.401630 0.342384
vt 0.401630 0.328105
vt 0.426565 0.007798
vt 0.421923 0.273728
vt 0.421923 0.007792
vt 0.433759 0.349523
vt 0.401631 0.363802
vt 0.401631 0.349523
vt 0.433759 0.320965
vt 0.401630 0.320965
vt 0.394491 0.342384
vt 0.155486 0.278912
vt 0.163441 0.274544
vt 0.167313 0.278626
vt 0.430189 0.343812
vt 0.433759 0.342384
vt 0.399846 0.342415
vt 0.430189 0.348095
vt 0.401631 0.348095
vt 0.278222 0.228326
vt 0.282506 0.256885
vt 0.278222 0.256885
vt 0.394491 0.266108
vt 0.394491 0.000172
vt 0.453996 0.266115
vt 0.426565 0.273735
vt 0.473115 0.000178
vt 0.468649 0.256051
vt 0.468649 0.000172
vt 0.432475 0.274079
vt 0.400112 0.292234
vt 0.398712 0.277228
vt 0.366715 0.235952
vt 0.362073 0.501882
vt 0.362073 0.235946
vt 0.434575 0.296587
vt 0.407388 0.310719
vt 0.400813 0.299737
vt 0.434575 0.313839
vt 0.403192 0.316732
vt 0.394491 0.304087
vt 0.155486 0.261304
vt 0.158772 0.273923
vt 0.430264 0.290935
vt 0.433875 0.289085
vt 0.396033 0.302945
vt 0.430684 0.295437
vt 0.400673 0.298236
vt 0.282850 0.228326
vt 0.287134 0.256885
vt 0.282850 0.256885
vt 0.334642 0.494262
vt 0.334641 0.228326
vt 0.394147 0.494268
vt 0.366715 0.501888
vt 0.463839 0.256051
vt 0.468305 0.000178
vt 0.468305 0.256057
vt 0.188368 0.266007
vt 0.183114 0.273923
vt 0.183699 0.265386
vt 0.164026 0.266007
vt 0.159357 0.265386
vt 0.191655 0.261019
vt 0.187783 0.274544
vt 0.179828 0.278912
vt 0.191655 0.278626
vt 0.179828 0.261304
vt 0.167313 0.261019
vt 0.379624 0.513007
vt 0.636280 0.521034
vt 0.334641 0.516867
vt 0.324292 0.763686
vt 0.316148 0.512741
vt 0.323143 0.512061
vt 0.319713 0.438670
vt 0.324192 0.439047
vt 0.636976 0.514031
vt 0.708923 0.517820
vt 0.326925 0.253658
vt 0.322936 0.228326
vt 0.890225 0.512994
vt 0.708591 0.513427
vt 0.708620 0.509718
vt 0.327977 0.439104
vt 0.296751 0.228326
vt 0.311031 0.356844
vt 0.296751 0.356844
vt 0.334297 0.512840
vt 0.327750 0.763686
vt 0.327227 0.512099
vt 0.329701 0.253690
vt 0.332464 0.438836
vt 0.890225 0.510281
vt 0.637036 0.509236
vt 0.391441 0.226848
vt 0.386678 0.225120
vt 0.390297 0.223292
vt 0.392038 0.227577
vt 0.392310 0.222961
vt 0.393959 0.223894
vt 0.391509 0.226773
vt 0.167657 0.278912
vt 0.175612 0.274544
vt 0.179484 0.278626
vt 0.391007 0.227982
vt 0.391056 0.227902
vt 0.392050 0.227745
vt 0.394147 0.223999
vt 0.391715 0.001307
vt 0.393971 0.004024
vt 0.392419 0.004876
vt 0.391305 0.000247
vt 0.390543 0.004544
vt 0.387185 0.002795
vt 0.391652 0.001236
vt 0.167657 0.261304
vt 0.170943 0.273923
vt 0.392231 0.000405
vt 0.392218 0.000562
vt 0.391260 0.000172
vt 0.386867 0.002546
vt 0.151855 0.266007
vt 0.146601 0.273923
vt 0.147186 0.265386
vt 0.176197 0.266007
vt 0.171528 0.265386
vt 0.155141 0.278626
vt 0.155141 0.261019
vt 0.143315 0.278912
vt 0.151270 0.274544
vt 0.143315 0.261304
vt 0.179484 0.261019
vt 0.379920 0.194914
vt 0.371676 0.197360
vt 0.386335 0.225382
vt 0.128691 0.500655
vt 0.000172 0.429255
vt 0.128691 0.429255
vt 0.372337 0.028258
vt 0.380523 0.030928
vt 0.383065 0.033981
vt 0.143315 0.260656
vt 0.147860 0.000172
vt 0.147860 0.260620
vt 0.277878 0.000227
vt 0.273333 0.260620
vt 0.277878 0.260675
vt 0.273333 0.000172
vt 0.458745 0.322753
vt 0.454340 0.250060
vt 0.458702 0.250057
vt 0.708949 0.505328
vt 0.914986 0.506086
vt 0.379629 0.509468
vt 0.636344 0.502232
vt 0.463495 0.322753
vt 0.459089 0.250060
vt 0.463451 0.250057
vt 0.454384 0.000175
vt 0.458745 0.000172
vt 0.459133 0.000175
vt 0.463495 0.000172
vt 0.280848 0.032180
vt 0.367768 0.191871
vt 0.369137 0.033630
vt 0.280877 0.030414
vt 0.369166 0.031865
vt 0.278222 0.192891
vt 0.367752 0.193661
vt 0.372852 0.028549
vt 0.382682 0.191680
vt 0.311839 0.999816
vt 0.315340 0.772665
vt 0.315804 0.999828
vt 0.311375 0.772654
vt 0.315802 0.614074
vt 0.311376 0.386910
vt 0.315340 0.386922
vt 0.315804 0.228337
vt 0.000172 0.286113
vt 0.285769 0.428911
vt 0.000172 0.428911
vt 0.142970 0.000172
vt 0.000172 0.285769
vt 0.000172 0.000172
vt 0.433759 0.363802
vt 0.394491 0.328105
vt 0.401630 0.343812
vt 0.398061 0.342415
vt 0.282506 0.228326
vt 0.453996 0.000178
vt 0.473115 0.256058
vt 0.433711 0.320621
vt 0.400252 0.293735
vt 0.397614 0.301857
vt 0.287134 0.228326
vt 0.394147 0.228332
vt 0.463839 0.000172
vt 0.320568 0.807671
vt 0.914986 0.517208
vt 0.311031 0.228326
vt 0.331750 0.807621
vt 0.334297 0.228462
vt 0.394147 0.003928
vt 0.371122 0.197664
vt 0.000172 0.500655
vt 0.143315 0.000208
vt 0.454384 0.322756
vt 0.334655 0.505468
vt 0.459133 0.322756
vt 0.278237 0.191101
vt 0.311837 0.614063
vt 0.311840 0.228326
vt 0.285769 0.286113
vt 0.142970 0.285769
vn 0.0000 0.0000 1.0000
vn 0.2676 0.9635 0.0000
vn 0.0000 0.0000 -1.0000
vn 1.0000 0.0000 -0.0000
vn 0.0000 -1.0000 0.0000
vn 0.9285 0.3714 0.0000
vn -1.0000 0.0000 0.0000
vn 0.0000 1.0000 0.0000
vn -0.2676 -0.9635 0.0000
vn 0.0000 0.3714 -0.9285
vn 0.0000 0.3714 0.9285
vn -0.9285 0.3714 0.0000
vn 0.0796 0.2727 -0.9588
vn 0.2559 0.9667 0.0000
vn -0.3052 -0.0000 -0.9523
vn 0.0293 -0.0293 -0.9991
usemtl None
s off
f 2/1/1 10/2/1 1/3/1
f 8/4/2 66/5/2 4/6/2
f 12/7/3 5/8/3 11/9/3
f 6/10/4 1/3/4 5/11/4
f 11/12/5 1/3/5 10/2/5
f 6/13/6 35/14/6 2/15/6
f 4/16/7 10/2/7 9/17/7
f 3/18/8 11/12/8 10/2/8
f 4/16/7 12/7/7 8/19/7
f 8/19/7 11/9/7 7/20/7
f 66/21/7 13/22/7 39/23/7
f 4/6/1 39/24/1 3/25/1
f 8/4/3 13/26/3 63/27/3
f 3/28/9 13/29/9 7/30/9
f 15/31/1 23/32/1 14/33/1
f 21/34/2 27/35/2 17/36/2
f 25/37/3 18/38/3 24/39/3
f 19/40/4 14/41/4 18/38/4
f 24/39/5 14/41/5 23/42/5
f 12/43/10 36/44/10 6/13/10
f 17/45/7 23/32/7 22/46/7
f 16/47/8 24/39/8 23/42/8
f 17/45/7 25/37/7 21/48/7
f 21/48/7 24/39/7 20/49/7
f 27/50/7 40/51/7 26/52/7
f 17/36/1 26/53/1 16/54/1
f 21/34/3 40/55/3 54/56/3
f 16/57/9 40/58/9 20/59/9
f 33/60/8 32/61/8 34/62/8
f 37/63/8 36/44/8 38/64/8
f 22/65/11 31/66/11 33/60/11
f 19/67/6 31/66/6 15/68/6
f 25/69/10 32/61/10 19/67/10
f 22/65/12 34/62/12 25/69/12
f 2/15/11 37/63/11 9/70/11
f 9/70/12 38/64/12 12/43/12
f 41/71/3 39/72/3 3/73/3
f 42/74/1 40/75/1 28/76/1
f 28/76/1 30/77/1 43/78/1
f 45/79/3 29/80/3 39/72/3
f 42/81/1 30/77/1 20/82/1
f 41/83/3 29/80/3 44/84/3
f 45/79/7 49/85/7 44/84/7
f 42/81/5 47/86/5 43/78/5
f 61/87/8 59/88/8 55/89/8
f 26/90/13 46/91/13 51/92/13
f 46/93/3 84/94/3 47/86/3
f 42/74/14 51/92/14 46/91/14
f 44/84/5 48/95/5 41/83/5
f 43/78/7 51/92/7 28/76/7
f 41/71/14 50/96/14 45/79/14
f 53/97/3 58/98/3 52/99/3
f 60/100/1 55/101/1 59/102/1
f 56/103/7 52/99/7 55/101/7
f 56/104/12 75/105/12 53/106/12
f 54/107/4 58/98/4 57/108/4
f 27/109/4 57/108/4 60/100/4
f 27/109/4 59/102/4 26/110/4
f 62/111/3 68/112/3 61/113/3
f 70/114/1 64/115/1 69/116/1
f 65/117/7 61/113/7 64/115/7
f 60/118/11 76/119/11 56/104/11
f 63/120/4 68/112/4 67/121/4
f 63/120/4 70/114/4 66/122/4
f 66/122/4 69/116/4 39/123/4
f 73/124/8 72/125/8 74/126/8
f 77/127/8 76/119/8 78/128/8
f 62/129/10 73/124/10 67/130/10
f 65/131/12 71/132/12 62/129/12
f 70/133/11 72/125/11 65/131/11
f 67/130/6 74/126/6 70/133/6
f 53/106/10 77/127/10 57/134/10
f 57/134/6 78/128/6 60/118/6
f 79/135/7 55/101/7 52/99/7
f 79/135/3 58/98/3 81/136/3
f 40/137/4 81/136/4 58/98/4
f 80/138/7 61/139/7 55/140/7
f 29/141/7 69/116/7 39/123/7
f 90/142/1 69/116/1 64/115/1
f 82/143/7 64/115/7 61/113/7
f 13/144/2 11/145/2 68/146/2
f 16/147/9 59/148/9 26/149/9
f 59/148/2 11/145/2 23/150/2
f 51/92/15 84/94/15 26/90/15
f 40/151/4 84/152/4 30/153/4
f 48/95/1 85/154/1 7/155/1
f 48/156/1 13/157/1 50/96/1
f 50/96/1 85/154/1 49/85/1
f 13/158/4 29/159/4 85/160/4
f 30/153/8 16/161/8 20/162/8
f 85/160/8 3/163/8 7/164/8
f 68/165/7 86/166/7 87/167/7
f 13/168/7 87/167/7 85/169/7
f 26/170/4 86/166/4 84/171/4
f 90/142/5 87/167/5 83/172/5
f 81/136/5 80/173/5 79/135/5
f 80/173/5 87/167/5 82/143/5
f 1/174/1 89/175/1 88/176/1
f 90/177/7 92/178/7 89/175/7
f 92/178/3 18/179/3 91/180/3
f 18/179/4 88/181/4 91/180/4
f 92/182/5 88/183/5 89/184/5
f 90/185/8 18/186/8 79/187/8
f 2/1/1 9/17/1 10/2/1
f 8/4/2 63/27/2 66/5/2
f 12/7/3 6/188/3 5/8/3
f 6/10/4 2/1/4 1/3/4
f 11/12/5 5/189/5 1/3/5
f 6/13/6 36/44/6 35/14/6
f 4/16/7 3/190/7 10/2/7
f 3/18/5 7/191/5 11/12/5
f 4/16/7 9/17/7 12/7/7
f 8/19/7 12/7/7 11/9/7
f 66/21/7 63/192/7 13/22/7
f 4/6/1 66/5/1 39/24/1
f 8/4/3 7/193/3 13/26/3
f 3/28/9 39/194/9 13/29/9
f 15/31/1 22/46/1 23/32/1
f 21/34/2 54/56/2 27/35/2
f 25/37/3 19/40/3 18/38/3
f 19/40/4 15/195/4 14/41/4
f 24/39/5 18/38/5 14/41/5
f 12/43/10 38/64/10 36/44/10
f 17/45/7 16/196/7 23/32/7
f 16/47/5 20/197/5 24/39/5
f 17/45/7 22/46/7 25/37/7
f 21/48/7 25/37/7 24/39/7
f 27/50/7 54/198/7 40/51/7
f 17/36/1 27/35/1 26/53/1
f 21/34/3 20/199/3 40/55/3
f 16/57/9 26/200/9 40/58/9
f 33/60/8 31/66/8 32/61/8
f 37/63/8 35/14/8 36/44/8
f 22/65/11 15/68/11 31/66/11
f 19/67/6 32/61/6 31/66/6
f 25/69/10 34/62/10 32/61/10
f 22/65/12 33/60/12 34/62/12
f 2/15/11 35/14/11 37/63/11
f 9/70/12 37/63/12 38/64/12
f 41/71/3 45/79/3 39/72/3
f 42/74/1 20/201/1 40/75/1
f 28/76/1 40/75/1 30/77/1
f 45/79/3 44/84/3 29/80/3
f 42/81/1 43/78/1 30/77/1
f 41/83/3 3/202/3 29/80/3
f 45/79/7 50/96/7 49/85/7
f 42/81/5 46/93/5 47/86/5
f 61/87/8 68/203/8 59/88/8
f 26/90/3 16/204/3 46/91/3
f 46/93/3 16/205/3 84/94/3
f 42/74/14 28/76/14 51/92/14
f 44/84/5 49/85/5 48/95/5
f 43/78/7 47/86/7 51/92/7
f 41/71/14 48/156/14 50/96/14
f 53/97/3 57/108/3 58/98/3
f 60/100/1 56/103/1 55/101/1
f 56/103/7 53/97/7 52/99/7
f 56/104/12 76/119/12 75/105/12
f 54/107/4 40/137/4 58/98/4
f 27/109/4 54/107/4 57/108/4
f 27/109/4 60/100/4 59/102/4
f 62/111/3 67/121/3 68/112/3
f 70/114/1 65/117/1 64/115/1
f 65/117/7 62/111/7 61/113/7
f 60/118/11 78/128/11 76/119/11
f 63/120/4 13/206/4 68/112/4
f 63/120/4 67/121/4 70/114/4
f 66/122/4 70/114/4 69/116/4
f 73/124/8 71/132/8 72/125/8
f 77/127/8 75/105/8 76/119/8
f 62/129/10 71/132/10 73/124/10
f 65/131/12 72/125/12 71/132/12
f 70/133/11 74/126/11 72/125/11
f 67/130/6 73/124/6 74/126/6
f 53/106/10 75/105/10 77/127/10
f 57/134/6 77/127/6 78/128/6
f 79/135/7 80/173/7 55/101/7
f 79/135/3 52/99/3 58/98/3
f 40/137/4 30/207/4 81/136/4
f 80/138/7 82/208/7 61/139/7
f 29/141/7 83/172/7 69/116/7
f 90/142/1 83/172/1 69/116/1
f 82/143/7 90/142/7 64/115/7
f 13/144/2 7/209/2 11/145/2
f 16/147/9 23/150/9 59/148/9
f 59/148/2 68/146/2 11/145/2
f 51/92/16 47/86/16 84/94/16
f 40/151/4 26/210/4 84/152/4
f 48/95/1 49/85/1 85/154/1
f 48/156/1 7/211/1 13/157/1
f 50/96/1 13/157/1 85/154/1
f 13/158/4 39/212/4 29/159/4
f 30/153/8 84/152/8 16/161/8
f 85/160/8 29/159/8 3/163/8
f 68/165/7 59/213/7 86/166/7
f 13/168/7 68/165/7 87/167/7
f 26/170/4 59/213/4 86/166/4
f 90/142/5 82/143/5 87/167/5
f 81/136/5 86/166/5 80/173/5
f 80/173/5 86/166/5 87/167/5
f 1/174/1 90/177/1 89/175/1
f 90/177/7 79/214/7 92/178/7
f 92/178/3 79/214/3 18/179/3
f 18/179/4 1/215/4 88/181/4
f 92/182/5 91/216/5 88/183/5
f 90/185/8 1/217/8 18/186/8
