# Blender v2.80 (sub 75) OBJ File: 'Modular Asset - Ramp - Small.blend'
# www.blender.org
mtllib Modular Asset - Ramp - Small.mtl
o Ramp_-_Standard.001_Cube.001
v 0.000000 0.100000 0.000000
v 0.000000 1.000000 0.000000
v -0.400000 0.100000 -0.080000
v -0.400000 0.900000 -0.080000
v -0.000000 0.100000 -0.400000
v -0.000000 1.000000 -0.400000
v -0.400000 0.100000 -0.320000
v -0.400000 0.900000 -0.320000
v -0.400000 1.000000 0.000000
v -0.400000 0.100000 0.000000
v -0.400000 0.100000 -0.400000
v -0.400000 1.000000 -0.400000
v -7.600000 2.100000 -0.320000
v -0.000000 0.100000 -3.600000
v -0.000000 1.000000 -3.600000
v -0.400000 0.100000 -3.680000
v -0.400000 0.900000 -3.680000
v -0.000000 0.100000 -4.000000
v -0.000000 1.000000 -4.000000
v -0.400000 0.100000 -3.920000
v -0.400000 0.900000 -3.920000
v -0.400000 1.000000 -3.600000
v -0.400000 0.100000 -3.600000
v -0.400000 0.100000 -4.000000
v -0.400000 1.000000 -4.000000
v -7.600000 2.100000 -3.680000
v -7.600000 2.900000 -3.680000
v -7.450218 1.887458 -3.920000
v -7.600000 0.100000 -0.080000
v -7.600000 0.100000 -3.920000
v -0.040000 1.100000 -3.640000
v -0.040000 1.100000 -3.960000
v -0.360000 1.100000 -3.640000
v -0.360000 1.100000 -3.960000
v -0.040000 1.100000 -0.040000
v -0.040000 1.100000 -0.360000
v -0.360000 1.100000 -0.040000
v -0.360000 1.100000 -0.360000
v -7.600000 2.100000 -0.080000
v -7.600000 2.100000 -3.920000
v -1.264727 0.249782 -0.080000
v -1.264727 0.249782 -3.920000
v -7.450218 0.249783 -3.920000
v -7.450218 0.249783 -0.080000
v -7.450218 1.887458 -0.080000
v -1.264727 0.249782 -3.680000
v -7.450218 0.249783 -3.680000
v -1.264727 0.249782 -0.320000
v -7.450218 0.249783 -0.320000
v -7.450218 1.887458 -0.320000
v -7.450218 1.887458 -3.728000
v -8.000001 2.100000 -3.999999
v -8.000001 3.000000 -3.999999
v -7.600001 2.900000 -3.919999
v -8.000001 2.100000 -3.599999
v -8.000001 3.000000 -3.599999
v -7.600001 3.000000 -3.999999
v -7.600001 2.100000 -3.999999
v -7.600001 2.100000 -3.599999
v -7.600001 3.000000 -3.599999
v -8.000001 2.100000 -0.399999
v -8.000001 3.000000 -0.399999
v -7.600001 2.900000 -0.319999
v -8.000001 2.100000 0.000001
v -8.000001 3.000000 0.000001
v -7.600001 2.900000 -0.079999
v -7.600001 3.000000 -0.399999
v -7.600001 2.100000 -0.399999
v -7.600001 2.100000 0.000001
v -7.600001 3.000000 0.000001
v -7.960001 3.100000 -0.359999
v -7.960001 3.100000 -0.039999
v -7.640001 3.100000 -0.359999
v -7.640001 3.100000 -0.039999
v -7.960001 3.100000 -3.959999
v -7.960001 3.100000 -3.639999
v -7.640001 3.100000 -3.959999
v -7.640001 3.100000 -3.639999
v -8.000001 0.100000 -3.999999
v -8.000001 0.100000 -3.599999
v -7.600001 0.100000 -3.999999
v -8.000001 0.100000 -0.399999
v -7.600001 0.100000 0.000001
v -7.600000 0.100000 -3.680000
v -7.600000 0.100000 -0.320000
v -7.600001 0.100000 -3.599999
v -7.600001 0.100000 -0.399999
v 0.000000 0.000000 0.000000
v -8.000000 0.000000 0.000000
v -8.000000 0.100000 0.000000
v -0.000000 0.000000 -4.000000
v -8.000000 0.000000 -4.000000
vt 0.126283 0.137249
vt 0.140245 0.168664
vt 0.127716 0.164328
vt 0.355833 0.007435
vt 0.351392 0.261868
vt 0.351392 0.007428
vt 0.147226 0.137249
vt 0.161188 0.168664
vt 0.147226 0.168664
vt 0.118014 0.138039
vt 0.122290 0.168226
vt 0.136077 0.176929
vt 0.170563 0.154369
vt 0.178174 0.150190
vt 0.181879 0.154096
vt 0.141642 0.140740
vt 0.140245 0.137249
vt 0.139276 0.170766
vt 0.145830 0.140740
vt 0.145830 0.168664
vt 0.182155 0.137249
vt 0.186253 0.164574
vt 0.182155 0.164574
vt 0.325146 0.254577
vt 0.325146 0.000138
vt 0.382079 0.254583
vt 0.355833 0.261874
vt 0.170287 0.137255
vt 0.166014 0.382066
vt 0.166014 0.137249
vt 0.154357 0.177205
vt 0.123393 0.194575
vt 0.122053 0.180218
vt 0.030825 0.144546
vt 0.026384 0.398978
vt 0.026384 0.144540
vt 0.156366 0.198740
vt 0.130354 0.212261
vt 0.124063 0.201753
vt 0.156366 0.215246
vt 0.126339 0.218014
vt 0.118014 0.205916
vt 0.170563 0.137522
vt 0.173707 0.149596
vt 0.152241 0.193332
vt 0.155696 0.191562
vt 0.119490 0.204823
vt 0.152643 0.197639
vt 0.123929 0.200318
vt 0.182155 0.164850
vt 0.186253 0.192175
vt 0.182155 0.192175
vt 0.000138 0.391688
vt 0.000138 0.137249
vt 0.057071 0.391694
vt 0.030825 0.398985
vt 0.165738 0.137255
vt 0.161464 0.382066
vt 0.161464 0.137249
vt 0.173707 0.201783
vt 0.178734 0.194208
vt 0.178174 0.202377
vt 0.178734 0.142022
vt 0.174267 0.141428
vt 0.170563 0.189709
vt 0.170563 0.206555
vt 0.181878 0.189436
vt 0.174267 0.193614
vt 0.181878 0.206282
vt 0.181879 0.137249
vt 0.043176 0.409569
vt 0.288736 0.417249
vt 0.000138 0.413262
vt 0.563460 0.911476
vt 0.555669 0.671380
vt 0.562362 0.670729
vt 0.559079 0.600511
vt 0.563364 0.600872
vt 0.289402 0.410549
vt 0.358238 0.414174
vt 0.565980 0.423498
vt 0.562163 0.399261
vt 0.531702 0.409558
vt 0.357920 0.409971
vt 0.357948 0.406423
vt 0.566986 0.600926
vt 0.242619 0.273664
vt 0.187969 0.287326
vt 0.187969 0.273664
vt 0.573033 0.671475
vt 0.566770 0.911476
vt 0.566268 0.670766
vt 0.568635 0.423529
vt 0.571279 0.600670
vt 0.531702 0.406962
vt 0.289459 0.405962
vt 0.110156 0.135909
vt 0.105691 0.134481
vt 0.108972 0.132661
vt 0.110734 0.136562
vt 0.110822 0.132284
vt 0.112380 0.133089
vt 0.110216 0.135837
vt 0.170563 0.189160
vt 0.178174 0.184981
vt 0.181879 0.188887
vt 0.109795 0.136973
vt 0.109837 0.136898
vt 0.110751 0.136717
vt 0.112557 0.133179
vt 0.106921 0.001218
vt 0.109346 0.003724
vt 0.107883 0.004680
vt 0.106439 0.000204
vt 0.106003 0.004491
vt 0.102551 0.003007
vt 0.106854 0.001153
vt 0.170563 0.172313
vt 0.173707 0.184387
vt 0.107362 0.000292
vt 0.107361 0.000447
vt 0.106388 0.000138
vt 0.102417 0.002808
vt 0.173707 0.166992
vt 0.178734 0.159417
vt 0.178174 0.167586
vt 0.178734 0.176813
vt 0.174267 0.176219
vt 0.170563 0.154918
vt 0.170563 0.171764
vt 0.181879 0.154645
vt 0.174267 0.158823
vt 0.181879 0.171491
vt 0.181879 0.172040
vt 0.098370 0.106791
vt 0.090835 0.109345
vt 0.105383 0.134735
vt 0.100810 0.103702
vt 0.187693 0.034196
vt 0.187693 0.103702
vt 0.156642 0.177205
vt 0.158008 0.245518
vt 0.156642 0.245518
vt 0.098067 0.031370
vt 0.100810 0.034196
vt 0.057347 0.379801
vt 0.061580 0.137249
vt 0.061580 0.379768
vt 0.117738 0.137300
vt 0.113506 0.379768
vt 0.117738 0.379819
vt 0.113506 0.137249
vt 0.391060 0.308773
vt 0.386845 0.239223
vt 0.391019 0.239220
vt 0.358263 0.402222
vt 0.555393 0.402948
vt 0.043180 0.406183
vt 0.288797 0.399261
vt 0.386569 0.308773
vt 0.382355 0.239223
vt 0.386528 0.239220
vt 0.386887 0.000140
vt 0.391060 0.000138
vt 0.382396 0.000140
vt 0.386569 0.000138
vt 0.000138 0.034907
vt 0.087026 0.104408
vt 0.087021 0.034901
vt 0.000138 0.033169
vt 0.087021 0.033164
vt 0.000143 0.106151
vt 0.087026 0.106145
vt 0.090301 0.029597
vt 0.573595 0.999848
vt 0.577194 0.777268
vt 0.577480 0.999862
vt 0.573309 0.777253
vt 0.577479 0.699567
vt 0.573310 0.476961
vt 0.577195 0.476975
vt 0.577480 0.399275
vt 0.256558 0.273388
vt 0.324870 0.000138
vt 0.324870 0.273388
vt 0.187969 0.273388
vt 0.256281 0.000138
vt 0.256281 0.273388
vt 0.161188 0.137249
vt 0.141642 0.168664
vt 0.138233 0.172833
vt 0.186253 0.137249
vt 0.382079 0.000144
vt 0.170287 0.382072
vt 0.155539 0.221735
vt 0.123526 0.196011
vt 0.121003 0.203782
vt 0.186253 0.164850
vt 0.057071 0.137255
vt 0.165738 0.382072
vt 0.559898 0.953560
vt 0.555393 0.413589
vt 0.242619 0.287326
vt 0.570597 0.953511
vt 0.573033 0.399391
vt 0.109512 0.003617
vt 0.090333 0.109646
vt 0.158008 0.177205
vt 0.057347 0.137283
vt 0.386887 0.308776
vt 0.000151 0.402356
vt 0.382396 0.308776
vt 0.000143 0.104413
vt 0.573594 0.699553
vt 0.573595 0.399261
vt 0.256558 0.000138
vt 0.187969 0.000138
vn 0.0000 0.0000 1.0000
vn 0.2676 0.9635 0.0000
vn 0.0000 0.0000 -1.0000
vn 1.0000 0.0000 -0.0000
vn 0.0000 -1.0000 0.0000
vn 0.9285 0.3714 0.0000
vn -1.0000 0.0000 0.0000
vn 0.0000 1.0000 0.0000
vn -0.2676 -0.9635 0.0000
vn 0.0000 0.3714 -0.9285
vn 0.0000 0.3714 0.9285
vn -0.9285 0.3714 0.0000
vn 0.0796 0.2727 -0.9588
vn 0.2559 0.9667 0.0000
vn -0.3052 0.0000 -0.9523
vn 0.0293 -0.0293 -0.9991
usemtl None
s off
f 2/1/1 10/2/1 1/3/1
f 8/4/2 66/5/2 4/6/2
f 12/7/3 5/8/3 11/9/3
f 6/10/4 1/3/4 5/11/4
f 11/12/5 1/3/5 10/2/5
f 6/13/6 35/14/6 2/15/6
f 4/16/7 10/2/7 9/17/7
f 3/18/8 11/12/8 10/2/8
f 4/16/7 12/7/7 8/19/7
f 8/19/7 11/9/7 7/20/7
f 66/21/7 13/22/7 39/23/7
f 4/6/1 39/24/1 3/25/1
f 8/4/3 13/26/3 63/27/3
f 3/28/9 13/29/9 7/30/9
f 15/31/1 23/32/1 14/33/1
f 21/34/2 27/35/2 17/36/2
f 25/37/3 18/38/3 24/39/3
f 19/40/4 14/41/4 18/38/4
f 24/39/5 14/41/5 23/42/5
f 12/43/10 36/44/10 6/13/10
f 17/45/7 23/32/7 22/46/7
f 16/47/1 24/39/1 23/42/1
f 17/45/7 25/37/7 21/48/7
f 21/48/7 24/39/7 20/49/7
f 27/50/7 40/51/7 26/52/7
f 17/36/1 26/53/1 16/54/1
f 21/34/3 40/55/3 54/56/3
f 16/57/9 40/58/9 20/59/9
f 33/60/8 32/61/8 34/62/8
f 37/63/8 36/44/8 38/64/8
f 15/65/11 33/60/11 22/66/11
f 19/67/6 31/68/6 15/65/6
f 25/69/10 32/61/10 19/67/10
f 22/66/12 34/62/12 25/69/12
f 2/15/11 37/63/11 9/70/11
f 9/70/12 38/64/12 12/43/12
f 41/71/3 39/72/3 3/73/3
f 42/74/1 40/75/1 28/76/1
f 28/76/1 30/77/1 43/78/1
f 45/79/3 29/80/3 39/72/3
f 42/81/1 30/77/1 20/82/1
f 41/83/3 29/80/3 44/84/3
f 45/79/7 49/85/7 44/84/7
f 42/81/5 47/86/5 43/78/5
f 61/87/8 59/88/8 55/89/8
f 26/90/13 46/91/13 51/92/13
f 46/93/3 84/94/3 47/86/3
f 42/74/14 51/92/14 46/91/14
f 44/84/5 48/95/5 41/83/5
f 43/78/7 51/92/7 28/76/7
f 41/71/14 50/96/14 45/79/14
f 53/97/3 58/98/3 52/99/3
f 60/100/1 55/101/1 59/102/1
f 56/103/7 52/99/7 55/101/7
f 56/104/12 75/105/12 53/106/12
f 54/107/4 58/98/4 57/108/4
f 27/109/4 57/108/4 60/100/4
f 27/109/4 59/102/4 26/110/4
f 62/111/3 68/112/3 61/113/3
f 70/114/1 64/115/1 69/116/1
f 65/117/7 61/113/7 64/115/7
f 60/118/11 76/119/11 56/104/11
f 63/120/4 68/112/4 67/121/4
f 63/120/4 70/114/4 66/122/4
f 66/122/4 69/116/4 39/123/4
f 73/124/8 72/125/8 74/126/8
f 77/127/8 76/119/8 78/128/8
f 62/129/10 73/124/10 67/130/10
f 65/131/12 71/132/12 62/129/12
f 70/133/11 72/125/11 65/131/11
f 67/130/6 74/126/6 70/133/6
f 53/106/10 77/127/10 57/134/10
f 57/134/6 78/128/6 60/118/6
f 79/135/7 55/101/7 52/99/7
f 79/135/3 58/98/3 81/136/3
f 40/137/4 81/136/4 58/98/4
f 80/138/7 61/139/7 55/140/7
f 29/141/7 69/142/7 39/143/7
f 90/144/1 69/116/1 64/115/1
f 82/145/7 64/115/7 61/113/7
f 13/146/2 11/147/2 68/148/2
f 16/149/9 59/150/9 26/151/9
f 68/148/2 23/152/2 59/150/2
f 51/92/15 84/94/15 26/90/15
f 40/153/4 84/154/4 30/155/4
f 48/95/1 85/156/1 7/157/1
f 48/158/1 13/159/1 50/96/1
f 50/96/1 85/156/1 49/85/1
f 13/160/4 29/161/4 85/162/4
f 30/155/8 16/163/8 20/164/8
f 85/162/8 3/165/8 7/166/8
f 68/167/7 86/168/7 87/169/7
f 13/170/7 87/169/7 85/171/7
f 26/172/4 86/168/4 84/173/4
f 90/144/5 87/169/5 83/174/5
f 81/136/5 80/138/5 79/135/5
f 80/138/5 87/169/5 82/145/5
f 1/175/1 89/176/1 88/177/1
f 90/178/7 92/179/7 89/176/7
f 92/179/3 18/180/3 91/181/3
f 18/180/4 88/182/4 91/181/4
f 92/183/5 88/184/5 89/185/5
f 90/186/8 18/187/8 79/188/8
f 2/1/1 9/17/1 10/2/1
f 8/4/2 63/27/2 66/5/2
f 12/7/3 6/189/3 5/8/3
f 6/10/4 2/1/4 1/3/4
f 11/12/5 5/11/5 1/3/5
f 6/13/6 36/44/6 35/14/6
f 4/16/7 3/190/7 10/2/7
f 3/18/5 7/191/5 11/12/5
f 4/16/7 9/17/7 12/7/7
f 8/19/7 12/7/7 11/9/7
f 66/21/7 63/192/7 13/22/7
f 4/6/1 66/5/1 39/24/1
f 8/4/3 7/193/3 13/26/3
f 3/28/9 39/194/9 13/29/9
f 15/31/1 22/46/1 23/32/1
f 21/34/2 54/56/2 27/35/2
f 25/37/3 19/40/3 18/38/3
f 19/40/4 15/195/4 14/41/4
f 24/39/5 18/38/5 14/41/5
f 12/43/10 38/64/10 36/44/10
f 17/45/7 16/196/7 23/32/7
f 16/47/8 20/197/8 24/39/8
f 17/45/7 22/46/7 25/37/7
f 21/48/7 25/37/7 24/39/7
f 27/50/7 54/198/7 40/51/7
f 17/36/1 27/35/1 26/53/1
f 21/34/3 20/199/3 40/55/3
f 16/57/9 26/200/9 40/58/9
f 33/60/8 31/68/8 32/61/8
f 37/63/8 35/14/8 36/44/8
f 15/65/11 31/68/11 33/60/11
f 19/67/6 32/61/6 31/68/6
f 25/69/10 34/62/10 32/61/10
f 22/66/12 33/60/12 34/62/12
f 2/15/11 35/14/11 37/63/11
f 9/70/12 37/63/12 38/64/12
f 41/71/3 45/79/3 39/72/3
f 42/74/1 20/201/1 40/75/1
f 28/76/1 40/75/1 30/77/1
f 45/79/3 44/84/3 29/80/3
f 42/81/1 43/78/1 30/77/1
f 41/83/3 3/202/3 29/80/3
f 45/79/7 50/96/7 49/85/7
f 42/81/5 46/93/5 47/86/5
f 61/87/8 68/203/8 59/88/8
f 26/90/3 16/204/3 46/91/3
f 46/93/3 16/205/3 84/94/3
f 42/74/14 28/76/14 51/92/14
f 44/84/5 49/85/5 48/95/5
f 43/78/7 47/86/7 51/92/7
f 41/71/14 48/158/14 50/96/14
f 53/97/3 57/108/3 58/98/3
f 60/100/1 56/103/1 55/101/1
f 56/103/7 53/97/7 52/99/7
f 56/104/12 76/119/12 75/105/12
f 54/107/4 40/137/4 58/98/4
f 27/109/4 54/107/4 57/108/4
f 27/109/4 60/100/4 59/102/4
f 62/111/3 67/121/3 68/112/3
f 70/114/1 65/117/1 64/115/1
f 65/117/7 62/111/7 61/113/7
f 60/118/11 78/128/11 76/119/11
f 63/120/4 13/206/4 68/112/4
f 63/120/4 67/121/4 70/114/4
f 66/122/4 70/114/4 69/116/4
f 73/124/8 71/132/8 72/125/8
f 77/127/8 75/105/8 76/119/8
f 62/129/10 71/132/10 73/124/10
f 65/131/12 72/125/12 71/132/12
f 70/133/11 74/126/11 72/125/11
f 67/130/6 73/124/6 74/126/6
f 53/106/10 75/105/10 77/127/10
f 57/134/6 77/127/6 78/128/6
f 79/135/7 80/138/7 55/101/7
f 79/135/3 52/99/3 58/98/3
f 40/137/4 30/207/4 81/136/4
f 80/138/7 82/145/7 61/139/7
f 29/141/7 83/208/7 69/142/7
f 90/144/1 83/174/1 69/116/1
f 82/145/7 90/144/7 64/115/7
f 13/146/2 7/209/2 11/147/2
f 16/149/9 23/152/9 59/150/9
f 68/148/2 11/147/2 23/152/2
f 51/92/16 47/86/16 84/94/16
f 40/153/4 26/210/4 84/154/4
f 48/95/1 49/85/1 85/156/1
f 48/158/1 7/211/1 13/159/1
f 50/96/1 13/159/1 85/156/1
f 13/160/4 39/212/4 29/161/4
f 30/155/8 84/154/8 16/163/8
f 85/162/8 29/161/8 3/165/8
f 68/167/7 59/213/7 86/168/7
f 13/170/7 68/167/7 87/169/7
f 26/172/4 59/213/4 86/168/4
f 90/144/5 82/145/5 87/169/5
f 81/136/5 86/168/5 80/138/5
f 80/138/5 86/168/5 87/169/5
f 1/175/1 90/178/1 89/176/1
f 90/178/7 79/214/7 92/179/7
f 92/179/3 79/214/3 18/180/3
f 18/180/4 1/215/4 88/182/4
f 92/183/5 91/216/5 88/184/5
f 90/186/8 1/217/8 18/187/8
