# Blender v2.80 (sub 75) OBJ File: 'Modular Asset - Stair Landing - Straight.blend'
# www.blender.org
o Landing_Straight_Cube.010
v 0.000000 0.000000 0.000000
v -0.000001 0.000000 -1.915998
v -0.000001 0.000000 -2.000000
v -0.000001 0.100000 -0.084002
v -0.000002 -0.000000 -0.084002
v -0.000001 0.100000 -1.915998
v -0.000001 0.100000 -2.000000
v 0.000000 0.100000 0.000000
v -1.999748 0.100000 0.000001
v -1.999748 0.000000 0.000001
v -1.999748 0.100000 -0.084001
v -1.999759 0.599999 -0.084001
v -1.999745 0.600001 0.000001
v -1.999749 0.100000 -1.915998
v -2.002757 0.000000 -1.915998
v -1.999749 0.600001 -1.915998
v -1.999749 0.000000 -2.000000
v -1.999749 0.100000 -2.000000
v -1.999749 0.599998 -2.000000
v -1.999749 -0.000000 -0.084001
v -0.000001 0.599998 -1.915998
v -0.000001 0.599998 -2.000000
v -0.000001 0.600000 -0.084002
v 0.000000 0.599999 0.000000
vt 0.922081 0.117991
vt 0.890655 0.087515
vt 0.922081 0.087515
vt 0.827804 0.117991
vt 0.859229 0.087515
vt 0.859229 0.117991
vt 0.017348 0.988647
vt 0.044897 0.550005
vt 0.045011 0.988591
vt 0.501330 0.394013
vt 0.014663 0.355206
vt 0.501330 0.355205
vt 0.014662 0.536390
vt 0.014659 0.394013
vt 0.591386 0.119371
vt 0.404191 0.087017
vt 0.591387 0.087017
vt 0.890655 0.087515
vt 0.859230 0.117991
vt 0.859229 0.087515
vt 0.530865 0.988589
vt 0.530752 0.550004
vt 0.984766 0.133945
vt 0.505458 0.169406
vt 0.505457 0.133944
vt 0.984766 0.201814
vt 0.984767 0.169407
vt 0.015164 0.169209
vt 0.494472 0.201616
vt 0.015164 0.201616
vt 0.015161 0.133747
vt 0.494472 0.169208
vt 0.599462 0.086961
vt 0.786657 0.119315
vt 0.599462 0.119316
vt 0.558525 0.988668
vt 0.989277 0.550082
vt 0.989277 0.988668
vt 0.209788 0.119321
vt 0.396982 0.086967
vt 0.396982 0.119321
vt 0.987999 0.536390
vt 0.501331 0.394013
vt 0.987999 0.394013
vt 0.987999 0.355205
vt 0.501331 0.212828
vt 0.987999 0.212828
vt 0.501331 0.355206
vt 0.203687 0.119321
vt 0.016492 0.086967
vt 0.203687 0.086967
vt 0.014662 0.212828
vt 0.501331 0.212828
vt 0.827804 0.117991
vt 0.796377 0.087515
vt 0.827804 0.087515
vt 0.558412 0.550082
vt 0.890655 0.117991
vt 0.827804 0.087515
vt 0.017234 0.550061
vt 0.501330 0.536390
vt 0.404191 0.119371
vt 0.890655 0.117991
vt 0.505457 0.201813
vt 0.495191 0.133747
vt 0.786657 0.086961
vt 0.209788 0.086967
vt 0.501331 0.536390
vt 0.016492 0.119321
vt 0.796376 0.117991
vn 1.0000 0.0000 -0.0000
vn 0.0000 1.0000 0.0000
vn -0.0000 -0.0000 -1.0000
vn -1.0000 0.0000 0.0002
vn -1.0000 0.0000 0.0000
vn 0.0000 -1.0000 0.0000
vn 0.0000 0.0000 1.0000
vn -0.9994 0.0000 -0.0358
vn -0.9995 0.0301 0.0000
vn -1.0000 0.0000 0.0016
s off
f 5/1/1 8/2/1 1/3/1
f 2/4/1 7/5/1 6/6/1
f 5/7/1 6/8/1 4/9/1
f 23/10/2 13/11/2 24/12/2
f 23/10/3 11/13/3 12/14/3
f 12/15/4 9/16/4 13/17/4
f 20/18/5 9/19/5 11/20/5
f 11/21/2 6/8/2 14/22/2
f 5/23/6 10/24/6 20/25/6
f 8/26/7 10/24/7 1/27/7
f 3/28/3 18/29/3 7/30/3
f 2/31/6 17/32/6 3/28/6
f 14/33/5 19/34/5 18/35/5
f 20/36/6 2/37/6 5/38/6
f 22/39/1 6/40/1 7/41/1
f 7/42/3 19/43/3 22/44/3
f 21/45/7 14/46/7 6/47/7
f 16/48/2 22/44/2 19/43/2
f 4/49/1 24/50/1 8/51/1
f 24/12/7 9/52/7 8/53/7
f 15/54/8 18/55/8 17/56/8
f 15/57/9 11/21/9 14/22/9
f 5/1/1 4/58/1 8/2/1
f 2/4/1 3/59/1 7/5/1
f 5/7/1 2/60/1 6/8/1
f 23/10/2 12/14/2 13/11/2
f 23/10/3 4/61/3 11/13/3
f 12/15/5 11/62/5 9/16/5
f 20/18/5 10/63/5 9/19/5
f 11/21/2 4/9/2 6/8/2
f 5/23/6 1/27/6 10/24/6
f 8/26/7 9/64/7 10/24/7
f 3/28/3 17/32/3 18/29/3
f 2/31/6 15/65/6 17/32/6
f 14/33/5 16/66/5 19/34/5
f 20/36/6 15/57/6 2/37/6
f 22/39/1 21/67/1 6/40/1
f 7/42/3 18/68/3 19/43/3
f 21/45/7 16/48/7 14/46/7
f 16/48/2 21/45/2 22/44/2
f 4/49/1 23/69/1 24/50/1
f 24/12/7 13/11/7 9/52/7
f 15/54/9 14/70/9 18/55/9
f 15/57/10 20/36/10 11/21/10
