# Blender v2.80 (sub 75) OBJ File: 'Modular Asset - Stair Landing - Left.blend'
# www.blender.org
o Landing_Corner_-_Left_Cube.004
v 0.000000 0.600000 -0.084002
v 0.000000 0.000000 -0.000000
v 0.000000 0.600000 -0.000000
v -0.000001 0.000000 -2.000001
v -0.000001 0.100000 -0.084002
v -0.000001 -0.000000 -0.084002
v -0.000001 0.100000 -2.000001
v 0.000000 0.100000 -0.000000
v -1.000000 0.000000 -0.084002
v -1.000000 0.599997 -0.084002
v -1.000000 0.000000 -0.000000
v -1.000000 0.599997 -0.000000
v -1.000001 0.000000 -2.000001
v -1.000001 0.600000 -2.000001
v -1.000001 0.100000 -2.000001
v -1.000000 0.100000 -0.000000
v -1.000000 0.100000 -0.084002
v -0.915074 0.100000 -0.000000
v -0.915074 0.000000 -0.000000
v -0.915074 0.100000 -0.084002
v -0.915074 0.600000 -0.084002
v -0.915073 0.600000 -0.000000
v -0.915075 0.100000 -2.000001
v -0.915075 0.000000 -2.000001
v -0.915075 0.600000 -2.000001
v -0.915075 -0.000000 -0.084002
vt 0.764375 0.685605
vt 0.783228 0.665991
vt 0.783228 0.685605
vt 0.012289 0.521948
vt 0.705939 0.503117
vt 0.705939 0.521948
vt 0.989764 0.630418
vt 0.976261 0.537445
vt 0.989764 0.537444
vt 0.804085 0.685602
vt 0.785245 0.666108
vt 0.804085 0.666108
vt 0.056128 0.942285
vt 0.720793 0.963003
vt 0.720793 0.942285
vt 0.724198 0.989950
vt 0.030548 0.971119
vt 0.030548 0.989950
vt 0.800561 0.537446
vt 0.814064 0.630418
vt 0.800561 0.630419
vt 0.764307 0.665185
vt 0.783138 0.645448
vt 0.764307 0.645448
vt 0.009621 0.970891
vt 0.009621 0.990012
vt 0.035335 0.962927
vt 0.056015 0.942253
vt 0.035335 0.942253
vt 0.803972 0.645448
vt 0.785140 0.665185
vt 0.785140 0.645448
vt 0.491397 0.537455
vt 0.183439 0.630419
vt 0.183439 0.537445
vt 0.503835 0.630422
vt 0.491397 0.630422
vt 0.827325 0.537445
vt 0.814064 0.537445
vt 0.727778 0.645778
vt 0.063113 0.932404
vt 0.063113 0.645778
vt 0.827325 0.630419
vt 0.006848 0.537444
vt 0.006848 0.630419
vt 0.009496 0.671453
vt 0.030384 0.970985
vt 0.030384 0.671453
vt 0.012289 0.473852
vt 0.705939 0.492683
vt 0.012289 0.492683
vt 0.055902 0.644735
vt 0.035296 0.942212
vt 0.055902 0.942212
vt 0.756288 0.986154
vt 0.736551 0.821489
vt 0.736551 0.986154
vt 0.736895 0.644426
vt 0.755727 0.816337
vt 0.755727 0.644426
vt 0.725901 0.926082
vt 0.063501 0.646703
vt 0.725901 0.646703
vt 0.503835 0.537455
vt 0.764375 0.665991
vt 0.012289 0.503117
vt 0.976261 0.630418
vt 0.785245 0.685602
vt 0.056128 0.963003
vt 0.724198 0.971119
vt 0.783138 0.665185
vt 0.030550 0.970891
vt 0.056015 0.962927
vt 0.803972 0.665185
vt 0.727778 0.932404
vt 0.009496 0.970985
vt 0.705939 0.473852
vt 0.035296 0.644735
vt 0.756288 0.821489
vt 0.736895 0.816337
vt 0.063501 0.926082
vn 1.0000 0.0000 -0.0000
vn -1.0000 0.0000 0.0000
vn 0.0000 -1.0000 -0.0000
vn -0.0000 1.0000 0.0000
vn -0.0000 0.0000 1.0000
vn 0.0000 0.0000 -1.0000
s off
f 6/1/1 8/2/1 2/3/1
f 4/4/1 5/5/1 6/6/1
f 1/7/1 8/8/1 5/9/1
f 16/10/2 9/11/2 11/12/2
f 26/13/3 13/14/3 24/15/3
f 25/16/4 10/17/4 21/18/4
f 17/19/2 12/20/2 10/21/2
f 18/22/5 11/23/5 19/24/5
f 21/18/4 12/25/4 22/26/4
f 26/27/3 11/28/3 9/29/3
f 13/30/6 23/31/6 24/32/6
f 23/33/1 21/34/1 20/35/1
f 23/33/6 14/36/6 25/37/6
f 18/38/5 12/20/5 16/39/5
f 20/40/4 7/41/4 23/42/4
f 8/8/5 22/43/5 18/38/5
f 5/44/6 21/34/6 1/45/6
f 1/46/4 22/47/4 3/48/4
f 13/49/2 17/50/2 15/51/2
f 6/52/3 19/53/3 26/54/3
f 8/55/5 19/56/5 2/57/5
f 4/58/6 23/59/6 7/60/6
f 26/61/3 4/62/3 6/63/3
f 10/21/2 15/64/2 17/19/2
f 6/1/1 5/65/1 8/2/1
f 4/4/1 7/66/1 5/5/1
f 1/7/1 3/67/1 8/8/1
f 16/10/2 17/68/2 9/11/2
f 26/13/3 9/69/3 13/14/3
f 25/16/4 14/70/4 10/17/4
f 17/19/2 16/39/2 12/20/2
f 18/22/5 16/71/5 11/23/5
f 21/18/4 10/72/4 12/25/4
f 26/27/3 19/73/3 11/28/3
f 13/30/6 15/74/6 23/31/6
f 23/33/1 25/37/1 21/34/1
f 23/33/6 15/64/6 14/36/6
f 18/38/5 22/43/5 12/20/5
f 20/40/4 5/75/4 7/41/4
f 8/8/5 3/67/5 22/43/5
f 5/44/6 20/35/6 21/34/6
f 1/46/4 21/76/4 22/47/4
f 13/49/2 9/77/2 17/50/2
f 6/52/3 2/78/3 19/53/3
f 8/55/5 18/79/5 19/56/5
f 4/58/6 24/80/6 23/59/6
f 26/61/3 24/81/3 4/62/3
f 10/21/2 14/36/2 15/64/2
