# Blender v2.80 (sub 75) OBJ File: 'Modular Asset - Stair Landing - Left.blend'
# www.blender.org
mtllib Modular Asset - Stair Landing - Left.mtl
o Landing_Corner_-_Left_Cube.004
v 0.000000 0.600000 -0.084002
v 0.000000 0.000000 -0.000000
v 0.000000 0.600000 -0.000000
v -0.000001 0.000000 -1.915999
v -0.000001 0.000000 -2.000001
v -0.000001 0.100000 -0.084002
v -0.000001 -0.000000 -0.084002
v -0.000001 0.100000 -1.915999
v -0.000001 0.100000 -2.000001
v 0.000000 0.100000 -0.000000
v -1.000000 0.000000 -0.084002
v -1.000000 0.599997 -0.084002
v -1.000000 0.000000 -0.000000
v -1.000000 0.599997 -0.000000
v -1.000001 0.000000 -1.915999
v -1.000001 0.600000 -1.915999
v -1.000001 0.000000 -2.000001
v -1.000001 0.600000 -2.000001
v -1.000001 0.100000 -1.915999
v -1.000001 0.100000 -2.000001
v -1.000000 0.100000 -0.000000
v -1.000000 0.100000 -0.084002
v -0.915074 0.100000 -0.000000
v -0.915074 0.000000 -0.000000
v -0.915074 0.100000 -0.084002
v -0.915074 0.600000 -0.084002
v -0.915073 0.600000 -0.000000
v -0.915075 0.100000 -1.915999
v -0.916579 0.000000 -1.915999
v -0.915075 0.600000 -1.915999
v -0.915075 0.000000 -2.000001
v -0.915075 0.100000 -2.000001
v -0.915075 0.600000 -2.000001
v -0.915075 -0.000000 -0.084002
vt 0.018870 0.040964
vt 0.015734 0.020838
vt 0.018870 0.020838
vt 0.158659 0.000054
vt 0.155598 0.019701
vt 0.155598 0.000054
vt 0.070760 0.390596
vt 0.063946 0.000054
vt 0.070760 0.000124
vt 0.137032 0.000054
vt 0.137032 0.019701
vt 0.000054 0.040964
vt 0.015734 0.040964
vt 0.015734 0.999946
vt 0.018870 0.979821
vt 0.018870 0.999946
vt 0.015734 0.540912
vt 0.018870 0.520787
vt 0.018870 0.540913
vt 0.040468 0.000156
vt 0.046163 0.370641
vt 0.046919 0.000191
vt 0.000055 0.520787
vt 0.015734 0.520787
vt 0.015734 0.979821
vt 0.000055 0.999946
vt 0.000055 0.979821
vt 0.015734 0.001819
vt 0.018870 0.000054
vt 0.018870 0.001819
vt 0.134522 0.165057
vt 0.136924 0.192443
vt 0.134522 0.192443
vt 0.042919 0.370678
vt 0.046919 0.401200
vt 0.074010 0.000054
vt 0.070868 0.005737
vt 0.070868 0.000054
vt 0.136924 0.165057
vt 0.132674 0.027440
vt 0.135075 0.027440
vt 0.137032 0.024563
vt 0.156679 0.022871
vt 0.156679 0.024594
vt 0.015734 0.519022
vt 0.000055 0.519022
vt 0.132673 0.000054
vt 0.018870 0.519022
vt 0.000054 0.000054
vt 0.015734 0.000054
vt 0.047027 0.390526
vt 0.063946 0.390526
vt 0.000054 0.001819
vt 0.000054 0.059983
vt 0.108643 0.165058
vt 0.108643 0.192444
vt 0.017941 0.800152
vt 0.014805 0.800152
vt 0.023530 0.370218
vt 0.044234 0.401246
vt 0.155598 0.022763
vt 0.137032 0.043160
vt 0.156679 0.043160
vt 0.000055 0.498897
vt 0.015734 0.498897
vt 0.108535 0.000054
vt 0.074067 0.005737
vt 0.073328 0.189031
vt 0.076527 0.189031
vt 0.024416 0.000054
vt 0.015734 0.059983
vt 0.158659 0.019701
vt 0.000054 0.020838
vt 0.000055 0.540912
vt 0.137032 0.022871
vt 0.135075 0.000054
vt 0.047027 0.000054
vt 0.018978 0.396945
vt 0.137032 0.022763
vt 0.108535 0.005737
vn 1.0000 0.0000 -0.0000
vn -1.0000 0.0000 0.0000
vn 0.0000 1.0000 0.0000
vn 0.0000 -1.0000 0.0000
vn -0.0000 0.0000 1.0000
vn 0.0000 0.0000 -1.0000
usemtl None
s off
f 7/1/1 10/2/1 2/3/1
f 4/4/1 9/5/1 8/6/1
f 7/7/2 8/8/2 4/9/2
f 28/10/3 9/5/3 32/11/3
f 1/12/1 10/2/1 6/13/1
f 21/14/2 11/15/2 13/16/2
f 19/17/2 17/18/2 15/19/2
f 29/20/4 11/21/4 15/22/4
f 19/17/2 18/23/2 20/24/2
f 22/25/2 14/26/2 12/27/2
f 23/28/5 13/29/5 24/30/5
f 26/31/3 14/32/3 27/33/3
f 34/34/4 13/35/4 11/21/4
f 29/36/5 19/37/5 15/38/5
f 12/39/3 30/40/3 16/41/3
f 29/42/4 17/43/4 31/44/4
f 32/45/6 18/23/6 33/46/6
f 33/47/3 16/41/3 30/40/3
f 31/48/6 20/24/6 32/45/6
f 12/27/2 19/17/2 22/25/2
f 23/28/5 14/49/5 21/50/5
f 25/51/4 8/8/4 6/52/4
f 10/2/5 27/53/5 23/28/5
f 6/13/6 26/54/6 1/12/6
f 1/55/3 27/33/3 3/56/3
f 22/25/1 15/57/1 19/58/1
f 7/59/4 24/60/4 34/34/4
f 10/2/5 24/30/5 2/3/5
f 5/61/6 32/11/6 9/5/6
f 4/62/4 31/44/4 5/63/4
f 32/45/1 30/64/1 28/65/1
f 4/66/5 28/67/5 29/36/5
f 22/68/4 28/67/4 25/69/4
f 4/70/3 34/34/3 7/59/3
f 28/65/1 26/54/1 25/71/1
f 7/1/1 6/13/1 10/2/1
f 4/4/1 5/72/1 9/5/1
f 7/7/2 6/52/2 8/8/2
f 28/10/3 8/6/3 9/5/3
f 1/12/1 3/73/1 10/2/1
f 21/14/2 22/25/2 11/15/2
f 19/17/2 20/24/2 17/18/2
f 29/20/4 34/34/4 11/21/4
f 19/17/2 16/74/2 18/23/2
f 22/25/2 21/14/2 14/26/2
f 23/28/5 21/50/5 13/29/5
f 26/31/3 12/39/3 14/32/3
f 34/34/4 24/60/4 13/35/4
f 29/36/5 28/67/5 19/37/5
f 12/39/3 26/31/3 30/40/3
f 29/42/4 15/75/4 17/43/4
f 32/45/6 20/24/6 18/23/6
f 33/47/3 18/76/3 16/41/3
f 31/48/6 17/18/6 20/24/6
f 12/27/2 16/74/2 19/17/2
f 23/28/5 27/53/5 14/49/5
f 25/51/4 28/77/4 8/8/4
f 10/2/5 3/73/5 27/53/5
f 6/13/6 25/71/6 26/54/6
f 1/55/3 26/31/3 27/33/3
f 22/25/1 11/15/1 15/57/1
f 7/59/4 2/78/4 24/60/4
f 10/2/5 23/28/5 24/30/5
f 5/61/6 31/79/6 32/11/6
f 4/62/4 29/42/4 31/44/4
f 32/45/1 33/46/1 30/64/1
f 4/66/5 8/80/5 28/67/5
f 22/68/4 19/37/4 28/67/4
f 4/70/3 29/20/3 34/34/3
f 28/65/1 30/64/1 26/54/1
