# Blender v2.80 (sub 75) OBJ File: 'Modular Asset - Stair Landing - Straight.blend'
# www.blender.org
mtllib Modular Asset - Stair Landing - Straight.mtl
o Landing_Straight_Cube.010
v 0.000000 0.000000 0.000000
v -0.000001 0.000000 -1.915998
v -0.000001 0.000000 -2.000000
v -0.000001 0.100000 -0.084002
v -0.000002 -0.000000 -0.084002
v -0.000001 0.100000 -1.915998
v -0.000001 0.100000 -2.000000
v 0.000000 0.100000 0.000000
v -1.999748 0.100000 0.000001
v -1.999748 0.000000 0.000001
v -1.999748 0.100000 -0.084001
v -1.999759 0.599999 -0.084001
v -1.999745 0.600001 0.000001
v -1.999749 0.100000 -1.915998
v -2.002757 0.000000 -1.915998
v -1.999749 0.600001 -1.915998
v -1.999749 0.000000 -2.000000
v -1.999749 0.100000 -2.000000
v -1.999749 0.599998 -2.000000
v -1.999749 -0.000000 -0.084001
v -0.000001 0.599998 -1.915998
v -0.000001 0.599998 -2.000000
v -0.000001 0.600000 -0.084002
v 0.000000 0.599999 0.000000
vt 0.250125 0.133024
vt 0.243295 0.089190
vt 0.250125 0.089190
vt 0.236272 0.133025
vt 0.243102 0.089191
vt 0.243102 0.133025
vt 0.068161 0.827794
vt 0.053719 0.000097
vt 0.068161 0.000245
vt 0.159135 0.211395
vt 0.113874 0.167561
vt 0.159135 0.167561
vt 0.148218 0.090878
vt 0.192052 0.045618
vt 0.192052 0.090878
vt 0.226395 0.090878
vt 0.192245 0.045618
vt 0.226395 0.045618
vt 0.202969 0.167368
vt 0.246802 0.133218
vt 0.202968 0.133217
vt 0.243295 0.043930
vt 0.250125 0.000096
vt 0.243295 0.000096
vt 0.014540 0.827645
vt 0.053719 0.827645
vt 0.192245 0.000097
vt 0.236079 0.045356
vt 0.192245 0.045357
vt 0.113682 0.043931
vt 0.068421 0.000097
vt 0.068421 0.043931
vt 0.250125 0.043930
vt 0.236272 0.089191
vt 0.243102 0.043931
vt 0.148218 0.045425
vt 0.192052 0.000164
vt 0.192052 0.045424
vt 0.113875 0.133025
vt 0.148025 0.089191
vt 0.148025 0.133025
vt 0.211610 0.212889
vt 0.204780 0.167629
vt 0.211610 0.167561
vt 0.113682 0.999904
vt 0.113875 0.000096
vt 0.148025 0.043931
vt 0.113875 0.043931
vt 0.113874 0.089191
vt 0.148218 0.091071
vt 0.193478 0.125221
vt 0.148218 0.125221
vt 0.159327 0.211395
vt 0.204587 0.167561
vt 0.204587 0.211395
vt 0.113874 0.167368
vt 0.157708 0.133218
vt 0.157708 0.167368
vt 0.236271 0.000096
vt 0.236272 0.043931
vt 0.000096 0.000201
vt 0.014540 0.000096
vt 0.243295 0.133024
vt 0.113874 0.211395
vt 0.148218 0.045617
vt 0.192245 0.090878
vt 0.246802 0.167368
vt 0.236079 0.000096
vt 0.113682 0.000096
vt 0.148218 0.000096
vt 0.204780 0.212889
vt 0.068354 0.999904
vt 0.148025 0.000097
vt 0.193478 0.091071
vt 0.159327 0.167561
vt 0.113875 0.133217
vt 0.243102 0.000096
vt 0.000097 0.827750
vn 1.0000 0.0000 -0.0000
vn -1.0000 -0.0000 -0.0000
vn 0.0000 1.0000 0.0000
vn -0.0000 -0.0000 -1.0000
vn 1.0000 -0.0000 -0.0002
vn 0.0000 -1.0000 -0.0000
vn 0.0000 0.0000 1.0000
vn -0.9994 0.0000 -0.0358
vn 0.9995 -0.0301 -0.0000
vn -0.9995 0.0301 0.0000
vn 1.0000 -0.0000 -0.0016
usemtl None
s off
f 5/1/1 8/2/1 1/3/1
f 2/4/1 7/5/1 6/6/1
f 5/7/2 6/8/2 2/9/2
f 14/10/3 7/11/3 18/12/3
f 23/13/3 13/14/3 24/15/3
f 23/16/4 11/17/4 12/18/4
f 9/19/5 12/20/5 13/21/5
f 9/22/1 20/23/1 11/24/1
f 11/25/6 6/8/6 4/26/6
f 9/27/6 4/28/6 8/29/6
f 5/30/6 10/31/6 20/32/6
f 8/2/7 10/33/7 1/3/7
f 3/34/4 18/35/4 7/5/4
f 2/36/6 17/37/6 3/38/6
f 14/39/1 19/40/1 16/41/1
f 2/42/7 14/43/7 15/44/7
f 2/45/3 20/32/3 5/30/3
f 6/46/2 22/47/2 7/48/2
f 7/48/7 19/40/7 18/49/7
f 21/50/7 14/51/7 6/52/7
f 22/53/6 16/54/6 19/55/6
f 4/56/1 24/57/1 8/58/1
f 24/57/7 9/19/7 8/58/7
f 15/59/8 18/35/8 17/60/8
f 11/25/9 15/61/9 14/62/9
f 5/1/1 4/63/1 8/2/1
f 2/4/1 3/34/1 7/5/1
f 5/7/2 4/26/2 6/8/2
f 14/10/3 6/64/3 7/11/3
f 23/13/3 12/65/3 13/14/3
f 23/16/4 4/66/4 11/17/4
f 9/19/1 11/67/1 12/20/1
f 9/22/1 10/33/1 20/23/1
f 11/25/6 14/62/6 6/8/6
f 9/27/6 11/68/6 4/28/6
f 5/30/6 1/69/6 10/31/6
f 8/2/7 9/22/7 10/33/7
f 3/34/4 17/60/4 18/35/4
f 2/36/6 15/70/6 17/37/6
f 14/39/1 18/49/1 19/40/1
f 2/42/7 6/71/7 14/43/7
f 2/45/3 15/72/3 20/32/3
f 6/46/2 21/73/2 22/47/2
f 7/48/7 22/47/7 19/40/7
f 21/50/7 16/74/7 14/51/7
f 22/53/6 21/75/6 16/54/6
f 4/56/1 23/76/1 24/57/1
f 24/57/7 13/21/7 9/19/7
f 15/59/10 14/77/10 18/35/10
f 11/25/11 20/78/11 15/61/11
